%TF.GenerationSoftware,Altium Limited,Altium Designer,25.7.1 (20)*%
G04 Layer_Color=0*
%FSLAX45Y45*%
%MOMM*%
%TF.SameCoordinates,60F54EB5-AD18-4720-8024-DB24567C3D5D*%
%TF.FilePolarity,Positive*%
%TF.FileFunction,Other,Top_Component_Center*%
%TF.Part,Single*%
G01*
G75*
%TA.AperFunction,NonConductor*%
%ADD27C,0.10000*%
D27*
X8509000Y3323500D02*
Y3423500D01*
X8459000Y3373500D02*
X8559000D01*
X6477000Y3323500D02*
Y3423500D01*
X6427000Y3373500D02*
X6527000D01*
X13412000Y7183500D02*
X13512000D01*
X13462000Y7133500D02*
Y7233500D01*
X11380000Y7183500D02*
X11480000D01*
X11430000Y7133500D02*
Y7233500D01*
X13412000Y3373500D02*
X13512000D01*
X13462000Y3323500D02*
Y3423500D01*
X11380000Y3373500D02*
X11480000D01*
X11430000Y3323500D02*
Y3423500D01*
X18364999Y3373500D02*
X18464999D01*
X18414999Y3323500D02*
Y3423500D01*
X16333000Y3373500D02*
X16433000D01*
X16383000Y3323500D02*
Y3423500D01*
X3506000Y7183500D02*
X3606000D01*
X3556000Y7133500D02*
Y7233500D01*
X1474000Y7183500D02*
X1574000D01*
X1524000Y7133500D02*
Y7233500D01*
X8459000Y7183500D02*
X8559000D01*
X8509000Y7133500D02*
Y7233500D01*
X6427000Y7183500D02*
X6527000D01*
X6477000Y7133500D02*
Y7233500D01*
X18364999Y7183500D02*
X18464999D01*
X18414999Y7133500D02*
Y7233500D01*
X16333000Y7183500D02*
X16433000D01*
X16383000Y7133500D02*
Y7233500D01*
X3506000Y3373500D02*
X3606000D01*
X3556000Y3323500D02*
Y3423500D01*
X1474000Y3373500D02*
X1574000D01*
X1524000Y3323500D02*
Y3423500D01*
X15697200Y9063000D02*
Y9163000D01*
X15647200Y9113000D02*
X15747200D01*
X17576801Y8731044D02*
Y8831044D01*
X17526801Y8781044D02*
X17626801D01*
%TF.MD5,b7df96e495396b0f53e585321d268924*%
M02*
