%TF.GenerationSoftware,Altium Limited,Altium Designer,25.7.1 (20)*%
G04 Layer_Color=8388736*
%FSLAX45Y45*%
%MOMM*%
%TF.SameCoordinates,C85018D4-D0C4-44B4-89D4-C4E6911D6D7A*%
%TF.FilePolarity,Negative*%
%TF.FileFunction,Soldermask,Top*%
%TF.Part,Single*%
G01*
G75*
%TA.AperFunction,SMDPad,CuDef*%
%ADD10R,2.00620X0.95620*%
%ADD14R,2.00415X1.70328*%
%TA.AperFunction,ComponentPad*%
%ADD22C,2.50000*%
%ADD24R,2.50000X2.50000*%
%TA.AperFunction,SMDPad,CuDef*%
%ADD30R,1.77600X1.22600*%
%ADD31R,0.67600X1.32600*%
%ADD32R,4.07600X8.07600*%
%TA.AperFunction,ComponentPad*%
%ADD33R,2.17600X2.17600*%
%ADD34C,2.17600*%
%ADD35C,2.07100*%
%TA.AperFunction,ViaPad*%
%ADD36C,5.57600*%
%ADD37C,1.34600*%
D10*
X8509000Y3191000D02*
D03*
Y3556000D02*
D03*
X6477000Y3191000D02*
D03*
Y3556000D02*
D03*
X8509000Y7366000D02*
D03*
X18414999D02*
D03*
X6477000D02*
D03*
X16383000D02*
D03*
X18414999Y3556000D02*
D03*
X3556000Y7366000D02*
D03*
X1524000D02*
D03*
X13462000Y3556000D02*
D03*
X11430000D02*
D03*
X16383000D02*
D03*
X13462000Y7366000D02*
D03*
X11430000D02*
D03*
X3556000Y3556000D02*
D03*
X1524000D02*
D03*
X13462000Y7001000D02*
D03*
X11430000D02*
D03*
X13462000Y3191000D02*
D03*
X11430000D02*
D03*
X18414999D02*
D03*
X16383000D02*
D03*
X3556000Y7001000D02*
D03*
X1524000D02*
D03*
X8509000D02*
D03*
X6477000D02*
D03*
X18414999D02*
D03*
X16383000D02*
D03*
X3556000Y3191000D02*
D03*
X1524000D02*
D03*
D14*
X17576801Y8636000D02*
D03*
Y8926087D02*
D03*
D22*
X15697200Y9398000D02*
D03*
D24*
X15237199D02*
D03*
D30*
X7493000Y2852500D02*
D03*
Y2537500D02*
D03*
X9525000Y2852500D02*
D03*
Y2537500D02*
D03*
X6985000Y2537500D02*
D03*
Y2852500D02*
D03*
X6477000Y2537500D02*
D03*
Y2852500D02*
D03*
X9017000Y2537500D02*
D03*
Y2852500D02*
D03*
X8509000Y2537500D02*
D03*
Y2852500D02*
D03*
X4572000Y6662500D02*
D03*
X9525000D02*
D03*
X19431000D02*
D03*
X17399001D02*
D03*
X7493000D02*
D03*
X14478000D02*
D03*
X19431000Y2852500D02*
D03*
X2540000Y6662500D02*
D03*
X14478000Y2852500D02*
D03*
X12446000D02*
D03*
X17399001D02*
D03*
X12446000Y6662500D02*
D03*
X4572000Y2852500D02*
D03*
X2540000D02*
D03*
X12446000Y6347500D02*
D03*
X14478000D02*
D03*
X11938000Y6662500D02*
D03*
Y6347500D02*
D03*
X11430000Y6662500D02*
D03*
Y6347500D02*
D03*
X13970000Y6662500D02*
D03*
Y6347500D02*
D03*
X13462000Y6662500D02*
D03*
Y6347500D02*
D03*
X12446000Y2537500D02*
D03*
X14478000D02*
D03*
X11938000Y2852500D02*
D03*
Y2537500D02*
D03*
X11430000Y2852500D02*
D03*
Y2537500D02*
D03*
X13970000Y2852500D02*
D03*
Y2537500D02*
D03*
X13462000Y2852500D02*
D03*
Y2537500D02*
D03*
X17399001Y2537500D02*
D03*
X19431000D02*
D03*
X16891000Y2852500D02*
D03*
Y2537500D02*
D03*
X16383000Y2852500D02*
D03*
Y2537500D02*
D03*
X18923000Y2852500D02*
D03*
Y2537500D02*
D03*
X18414999Y2852500D02*
D03*
Y2537500D02*
D03*
X2540000Y6347500D02*
D03*
X4572000D02*
D03*
X2032000Y6662500D02*
D03*
Y6347500D02*
D03*
X1524000Y6662500D02*
D03*
Y6347500D02*
D03*
X4064000Y6662500D02*
D03*
Y6347500D02*
D03*
X3556000Y6662500D02*
D03*
Y6347500D02*
D03*
X7493000Y6347500D02*
D03*
X9525000D02*
D03*
X6985000Y6662500D02*
D03*
Y6347500D02*
D03*
X6477000Y6662500D02*
D03*
Y6347500D02*
D03*
X9017000Y6662500D02*
D03*
Y6347500D02*
D03*
X8509000Y6662500D02*
D03*
Y6347500D02*
D03*
X17399001Y6347500D02*
D03*
X19431000D02*
D03*
X16891000Y6662500D02*
D03*
Y6347500D02*
D03*
X16383000Y6662500D02*
D03*
Y6347500D02*
D03*
X18923000Y6662500D02*
D03*
Y6347500D02*
D03*
X18414999Y6662500D02*
D03*
Y6347500D02*
D03*
X2540000Y2537500D02*
D03*
X4572000D02*
D03*
X2032000Y2852500D02*
D03*
Y2537500D02*
D03*
X1524000Y2852500D02*
D03*
Y2537500D02*
D03*
X4064000Y2852500D02*
D03*
Y2537500D02*
D03*
X3556000Y2852500D02*
D03*
Y2537500D02*
D03*
D31*
X7080000Y3554000D02*
D03*
X6890000D02*
D03*
X6985000D02*
D03*
X6890000Y3304000D02*
D03*
X7080000D02*
D03*
X9112000Y3554000D02*
D03*
X8922000D02*
D03*
X9017000D02*
D03*
X8922000Y3304000D02*
D03*
X9112000D02*
D03*
X4064000Y7364000D02*
D03*
X9017000D02*
D03*
X18923000D02*
D03*
X6985000D02*
D03*
X16891000D02*
D03*
X13970000D02*
D03*
X18923000Y3554000D02*
D03*
X2032000Y7364000D02*
D03*
X13970000Y3554000D02*
D03*
X11938000D02*
D03*
X16891000D02*
D03*
X11938000Y7364000D02*
D03*
X4064000Y3554000D02*
D03*
X2032000D02*
D03*
X4159000Y7364000D02*
D03*
X3969000D02*
D03*
X6890000D02*
D03*
X9112000D02*
D03*
X18828000D02*
D03*
X8922000D02*
D03*
X16986000D02*
D03*
X19017999D02*
D03*
X16796001D02*
D03*
X7080000D02*
D03*
X14064999D02*
D03*
X13875000D02*
D03*
X18828000Y3554000D02*
D03*
X19017999D02*
D03*
X16796001D02*
D03*
X16986000D02*
D03*
X13875000D02*
D03*
X14064999D02*
D03*
X11843000D02*
D03*
X12033000D02*
D03*
X2127000Y7364000D02*
D03*
X1937000D02*
D03*
X12033000D02*
D03*
X11843000D02*
D03*
X1937000Y3554000D02*
D03*
X3969000D02*
D03*
X4159000D02*
D03*
X2127000D02*
D03*
X12033000Y7114000D02*
D03*
X11843000D02*
D03*
X14064999D02*
D03*
X13875000D02*
D03*
X12033000Y3304000D02*
D03*
X11843000D02*
D03*
X14064999D02*
D03*
X13875000D02*
D03*
X16986000D02*
D03*
X16796001D02*
D03*
X19017999D02*
D03*
X18828000D02*
D03*
X2127000Y7114000D02*
D03*
X1937000D02*
D03*
X4159000D02*
D03*
X3969000D02*
D03*
X7080000D02*
D03*
X6890000D02*
D03*
X9112000D02*
D03*
X8922000D02*
D03*
X16986000D02*
D03*
X16796001D02*
D03*
X19017999D02*
D03*
X18828000D02*
D03*
X2127000Y3304000D02*
D03*
X1937000D02*
D03*
X4159000D02*
D03*
X3969000D02*
D03*
D32*
X19685001Y9652000D02*
D03*
X19050000D02*
D03*
X18414999D02*
D03*
D33*
X10033000Y1524000D02*
D03*
X14986000Y5334000D02*
D03*
Y1524000D02*
D03*
X19939000D02*
D03*
X5080000Y5334000D02*
D03*
X10033000D02*
D03*
X19939000D02*
D03*
X5080000Y1524000D02*
D03*
D34*
X9525000D02*
D03*
X9017000D02*
D03*
X8509000D02*
D03*
X8001000D02*
D03*
X7493000D02*
D03*
X6985000D02*
D03*
X6477000D02*
D03*
X4064000Y5334000D02*
D03*
X9017000D02*
D03*
X18923000D02*
D03*
X16891000D02*
D03*
X6985000D02*
D03*
X13970000D02*
D03*
X18923000Y1524000D02*
D03*
X2032000Y5334000D02*
D03*
X16891000Y1524000D02*
D03*
X11938000D02*
D03*
X13970000D02*
D03*
X11938000Y5334000D02*
D03*
X4064000Y1524000D02*
D03*
X2032000D02*
D03*
X11430000Y5334000D02*
D03*
X12446000D02*
D03*
X12953999D02*
D03*
X13462000D02*
D03*
X14478000D02*
D03*
X11430000Y1524000D02*
D03*
X12446000D02*
D03*
X12953999D02*
D03*
X13462000D02*
D03*
X14478000D02*
D03*
X16383000D02*
D03*
X17399001D02*
D03*
X17907001D02*
D03*
X18414999D02*
D03*
X19431000D02*
D03*
X1524000Y5334000D02*
D03*
X2540000D02*
D03*
X3048000D02*
D03*
X3556000D02*
D03*
X4572000D02*
D03*
X6477000D02*
D03*
X7493000D02*
D03*
X8001000D02*
D03*
X8509000D02*
D03*
X9525000D02*
D03*
X16383000D02*
D03*
X17399001D02*
D03*
X17907001D02*
D03*
X18414999D02*
D03*
X19431000D02*
D03*
X1524000Y1524000D02*
D03*
X2540000D02*
D03*
X3048000D02*
D03*
X3556000D02*
D03*
X4572000D02*
D03*
D35*
X7212000Y9017000D02*
D03*
X13181000D02*
D03*
X8001000D02*
D03*
X2032000D02*
D03*
D36*
X21336000Y508000D02*
D03*
Y9779000D02*
D03*
X508000D02*
D03*
Y508000D02*
D03*
D37*
X19050000Y8775700D02*
D03*
X18402299D02*
D03*
X19685001Y8763000D02*
D03*
X13970000Y7620000D02*
D03*
X11938000D02*
D03*
X14478000Y6908800D02*
D03*
X12446000D02*
D03*
X11430000Y7620000D02*
D03*
X13462000D02*
D03*
X4064000D02*
D03*
X2032000D02*
D03*
X4572000Y6908800D02*
D03*
X1524000Y7620000D02*
D03*
X3556000D02*
D03*
X2540000Y6908800D02*
D03*
X9017000Y7620000D02*
D03*
X6985000D02*
D03*
X9525000Y6908800D02*
D03*
X6477000Y7620000D02*
D03*
X8509000D02*
D03*
X7493000Y6908800D02*
D03*
X18923000Y7620000D02*
D03*
X16891000D02*
D03*
X19431000Y6908800D02*
D03*
X16383000Y7620000D02*
D03*
X18414999D02*
D03*
X17399001Y6908800D02*
D03*
X18923000Y3810000D02*
D03*
X16891000D02*
D03*
X19431000Y3098800D02*
D03*
X16383000Y3810000D02*
D03*
X18414999D02*
D03*
X17399001Y3098800D02*
D03*
X13970000Y3810000D02*
D03*
X11938000D02*
D03*
X14478000Y3098800D02*
D03*
X11430000Y3810000D02*
D03*
X13462000D02*
D03*
X12446000Y3098800D02*
D03*
X9017000Y3810000D02*
D03*
X6985000D02*
D03*
X9525000Y3098800D02*
D03*
X6477000Y3810000D02*
D03*
X8509000D02*
D03*
X7493000Y3098800D02*
D03*
X17576801Y8382000D02*
D03*
X4064000Y3810000D02*
D03*
X1524000D02*
D03*
X2032000D02*
D03*
X3556000D02*
D03*
X4572000Y3098800D02*
D03*
X2540000D02*
D03*
%TF.MD5,6eee379353df2edb990f941e17836821*%
M02*
