%TF.GenerationSoftware,Altium Limited,Altium Designer,25.7.1 (20)*%
G04 Layer_Color=255*
%FSLAX45Y45*%
%MOMM*%
%TF.SameCoordinates,60F54EB5-AD18-4720-8024-DB24567C3D5D*%
%TF.FilePolarity,Positive*%
%TF.FileFunction,Pads,Top*%
%TF.Part,Single*%
G01*
G75*
%TA.AperFunction,SMDPad,CuDef*%
%ADD10R,2.00620X0.95620*%
%ADD11R,1.70000X1.15000*%
%ADD12R,0.60000X1.25000*%
%ADD13R,4.00000X8.00000*%
%ADD14R,2.00415X1.70328*%
%TA.AperFunction,ComponentPad*%
%ADD19R,2.10000X2.10000*%
%ADD20C,2.10000*%
%ADD21C,1.99500*%
%ADD22C,2.50000*%
%TA.AperFunction,ViaPad*%
%ADD23C,5.50000*%
%TA.AperFunction,ComponentPad*%
%ADD24R,2.50000X2.50000*%
D10*
X8509000Y3191000D02*
D03*
Y3556000D02*
D03*
X6477000Y3191000D02*
D03*
Y3556000D02*
D03*
X8509000Y7366000D02*
D03*
X18414999D02*
D03*
X6477000D02*
D03*
X16383000D02*
D03*
X18414999Y3556000D02*
D03*
X3556000Y7366000D02*
D03*
X1524000D02*
D03*
X13462000Y3556000D02*
D03*
X11430000D02*
D03*
X16383000D02*
D03*
X13462000Y7366000D02*
D03*
X11430000D02*
D03*
X3556000Y3556000D02*
D03*
X1524000D02*
D03*
X13462000Y7001000D02*
D03*
X11430000D02*
D03*
X13462000Y3191000D02*
D03*
X11430000D02*
D03*
X18414999D02*
D03*
X16383000D02*
D03*
X3556000Y7001000D02*
D03*
X1524000D02*
D03*
X8509000D02*
D03*
X6477000D02*
D03*
X18414999D02*
D03*
X16383000D02*
D03*
X3556000Y3191000D02*
D03*
X1524000D02*
D03*
D11*
X7493000Y2852500D02*
D03*
Y2537500D02*
D03*
X9525000Y2852500D02*
D03*
Y2537500D02*
D03*
X6985000Y2537500D02*
D03*
Y2852500D02*
D03*
X6477000Y2537500D02*
D03*
Y2852500D02*
D03*
X9017000Y2537500D02*
D03*
Y2852500D02*
D03*
X8509000Y2537500D02*
D03*
Y2852500D02*
D03*
X4572000Y6662500D02*
D03*
X9525000D02*
D03*
X19431000D02*
D03*
X17399001D02*
D03*
X7493000D02*
D03*
X14478000D02*
D03*
X19431000Y2852500D02*
D03*
X2540000Y6662500D02*
D03*
X14478000Y2852500D02*
D03*
X12446000D02*
D03*
X17399001D02*
D03*
X12446000Y6662500D02*
D03*
X4572000Y2852500D02*
D03*
X2540000D02*
D03*
X12446000Y6347500D02*
D03*
X14478000D02*
D03*
X11938000Y6662500D02*
D03*
Y6347500D02*
D03*
X11430000Y6662500D02*
D03*
Y6347500D02*
D03*
X13970000Y6662500D02*
D03*
Y6347500D02*
D03*
X13462000Y6662500D02*
D03*
Y6347500D02*
D03*
X12446000Y2537500D02*
D03*
X14478000D02*
D03*
X11938000Y2852500D02*
D03*
Y2537500D02*
D03*
X11430000Y2852500D02*
D03*
Y2537500D02*
D03*
X13970000Y2852500D02*
D03*
Y2537500D02*
D03*
X13462000Y2852500D02*
D03*
Y2537500D02*
D03*
X17399001Y2537500D02*
D03*
X19431000D02*
D03*
X16891000Y2852500D02*
D03*
Y2537500D02*
D03*
X16383000Y2852500D02*
D03*
Y2537500D02*
D03*
X18923000Y2852500D02*
D03*
Y2537500D02*
D03*
X18414999Y2852500D02*
D03*
Y2537500D02*
D03*
X2540000Y6347500D02*
D03*
X4572000D02*
D03*
X2032000Y6662500D02*
D03*
Y6347500D02*
D03*
X1524000Y6662500D02*
D03*
Y6347500D02*
D03*
X4064000Y6662500D02*
D03*
Y6347500D02*
D03*
X3556000Y6662500D02*
D03*
Y6347500D02*
D03*
X7493000Y6347500D02*
D03*
X9525000D02*
D03*
X6985000Y6662500D02*
D03*
Y6347500D02*
D03*
X6477000Y6662500D02*
D03*
Y6347500D02*
D03*
X9017000Y6662500D02*
D03*
Y6347500D02*
D03*
X8509000Y6662500D02*
D03*
Y6347500D02*
D03*
X17399001Y6347500D02*
D03*
X19431000D02*
D03*
X16891000Y6662500D02*
D03*
Y6347500D02*
D03*
X16383000Y6662500D02*
D03*
Y6347500D02*
D03*
X18923000Y6662500D02*
D03*
Y6347500D02*
D03*
X18414999Y6662500D02*
D03*
Y6347500D02*
D03*
X2540000Y2537500D02*
D03*
X4572000D02*
D03*
X2032000Y2852500D02*
D03*
Y2537500D02*
D03*
X1524000Y2852500D02*
D03*
Y2537500D02*
D03*
X4064000Y2852500D02*
D03*
Y2537500D02*
D03*
X3556000Y2852500D02*
D03*
Y2537500D02*
D03*
D12*
X7080000Y3554000D02*
D03*
X6890000D02*
D03*
X6985000D02*
D03*
X6890000Y3304000D02*
D03*
X7080000D02*
D03*
X9112000Y3554000D02*
D03*
X8922000D02*
D03*
X9017000D02*
D03*
X8922000Y3304000D02*
D03*
X9112000D02*
D03*
X4064000Y7364000D02*
D03*
X9017000D02*
D03*
X18923000D02*
D03*
X6985000D02*
D03*
X16891000D02*
D03*
X13970000D02*
D03*
X18923000Y3554000D02*
D03*
X2032000Y7364000D02*
D03*
X13970000Y3554000D02*
D03*
X11938000D02*
D03*
X16891000D02*
D03*
X11938000Y7364000D02*
D03*
X4064000Y3554000D02*
D03*
X2032000D02*
D03*
X4159000Y7364000D02*
D03*
X3969000D02*
D03*
X6890000D02*
D03*
X9112000D02*
D03*
X18828000D02*
D03*
X8922000D02*
D03*
X16986000D02*
D03*
X19017999D02*
D03*
X16796001D02*
D03*
X7080000D02*
D03*
X14064999D02*
D03*
X13875000D02*
D03*
X18828000Y3554000D02*
D03*
X19017999D02*
D03*
X16796001D02*
D03*
X16986000D02*
D03*
X13875000D02*
D03*
X14064999D02*
D03*
X11843000D02*
D03*
X12033000D02*
D03*
X2127000Y7364000D02*
D03*
X1937000D02*
D03*
X12033000D02*
D03*
X11843000D02*
D03*
X1937000Y3554000D02*
D03*
X3969000D02*
D03*
X4159000D02*
D03*
X2127000D02*
D03*
X12033000Y7114000D02*
D03*
X11843000D02*
D03*
X14064999D02*
D03*
X13875000D02*
D03*
X12033000Y3304000D02*
D03*
X11843000D02*
D03*
X14064999D02*
D03*
X13875000D02*
D03*
X16986000D02*
D03*
X16796001D02*
D03*
X19017999D02*
D03*
X18828000D02*
D03*
X2127000Y7114000D02*
D03*
X1937000D02*
D03*
X4159000D02*
D03*
X3969000D02*
D03*
X7080000D02*
D03*
X6890000D02*
D03*
X9112000D02*
D03*
X8922000D02*
D03*
X16986000D02*
D03*
X16796001D02*
D03*
X19017999D02*
D03*
X18828000D02*
D03*
X2127000Y3304000D02*
D03*
X1937000D02*
D03*
X4159000D02*
D03*
X3969000D02*
D03*
D13*
X19685001Y9652000D02*
D03*
X19050000D02*
D03*
X18414999D02*
D03*
D14*
X17576801Y8636000D02*
D03*
Y8926087D02*
D03*
D19*
X10033000Y1524000D02*
D03*
X14986000Y5334000D02*
D03*
Y1524000D02*
D03*
X19939000D02*
D03*
X5080000Y5334000D02*
D03*
X10033000D02*
D03*
X19939000D02*
D03*
X5080000Y1524000D02*
D03*
D20*
X9525000D02*
D03*
X9017000D02*
D03*
X8509000D02*
D03*
X8001000D02*
D03*
X7493000D02*
D03*
X6985000D02*
D03*
X6477000D02*
D03*
X4064000Y5334000D02*
D03*
X9017000D02*
D03*
X18923000D02*
D03*
X16891000D02*
D03*
X6985000D02*
D03*
X13970000D02*
D03*
X18923000Y1524000D02*
D03*
X2032000Y5334000D02*
D03*
X16891000Y1524000D02*
D03*
X11938000D02*
D03*
X13970000D02*
D03*
X11938000Y5334000D02*
D03*
X4064000Y1524000D02*
D03*
X2032000D02*
D03*
X11430000Y5334000D02*
D03*
X12446000D02*
D03*
X12953999D02*
D03*
X13462000D02*
D03*
X14478000D02*
D03*
X11430000Y1524000D02*
D03*
X12446000D02*
D03*
X12953999D02*
D03*
X13462000D02*
D03*
X14478000D02*
D03*
X16383000D02*
D03*
X17399001D02*
D03*
X17907001D02*
D03*
X18414999D02*
D03*
X19431000D02*
D03*
X1524000Y5334000D02*
D03*
X2540000D02*
D03*
X3048000D02*
D03*
X3556000D02*
D03*
X4572000D02*
D03*
X6477000D02*
D03*
X7493000D02*
D03*
X8001000D02*
D03*
X8509000D02*
D03*
X9525000D02*
D03*
X16383000D02*
D03*
X17399001D02*
D03*
X17907001D02*
D03*
X18414999D02*
D03*
X19431000D02*
D03*
X1524000Y1524000D02*
D03*
X2540000D02*
D03*
X3048000D02*
D03*
X3556000D02*
D03*
X4572000D02*
D03*
D21*
X7212000Y9017000D02*
D03*
X13181000D02*
D03*
X8001000D02*
D03*
X2032000D02*
D03*
D22*
X15697200Y9398000D02*
D03*
D23*
X21336000Y508000D02*
D03*
Y9779000D02*
D03*
X508000D02*
D03*
Y508000D02*
D03*
D24*
X15237199Y9398000D02*
D03*
%TF.MD5,5deacd259b15b15e96f7e8315e78e19d*%
M02*
