%TF.GenerationSoftware,Altium Limited,Altium Designer,25.7.1 (20)*%
G04 Layer_Color=8388736*
%FSLAX45Y45*%
%MOMM*%
%TF.SameCoordinates,C85018D4-D0C4-44B4-89D4-C4E6911D6D7A*%
%TF.FilePolarity,Positive*%
%TF.FileFunction,Other,Top_Courtyard*%
%TF.Part,Single*%
G01*
G75*
%TA.AperFunction,NonConductor*%
%ADD26C,0.20000*%
D26*
X8358690Y3093190D02*
Y3653810D01*
X8659310D01*
Y3093190D02*
Y3653810D01*
X8358690Y3093190D02*
X8659310D01*
X6326690D02*
Y3653810D01*
X6627310D01*
Y3093190D02*
Y3653810D01*
X6326690Y3093190D02*
X6627310D01*
X13311690Y6903190D02*
X13612309D01*
Y7463810D01*
X13311690D02*
X13612309D01*
X13311690Y6903190D02*
Y7463810D01*
X11279690Y6903190D02*
X11580310D01*
Y7463810D01*
X11279690D02*
X11580310D01*
X11279690Y6903190D02*
Y7463810D01*
X13311690Y3093190D02*
X13612309D01*
Y3653810D01*
X13311690D02*
X13612309D01*
X13311690Y3093190D02*
Y3653810D01*
X11279690Y3093190D02*
X11580310D01*
Y3653810D01*
X11279690D02*
X11580310D01*
X11279690Y3093190D02*
Y3653810D01*
X18264690Y3093190D02*
X18565311D01*
Y3653810D01*
X18264690D02*
X18565311D01*
X18264690Y3093190D02*
Y3653810D01*
X16232690Y3093190D02*
X16533310D01*
Y3653810D01*
X16232690D02*
X16533310D01*
X16232690Y3093190D02*
Y3653810D01*
X3405690Y6903190D02*
X3706310D01*
Y7463810D01*
X3405690D02*
X3706310D01*
X3405690Y6903190D02*
Y7463810D01*
X1373690Y6903190D02*
X1674310D01*
Y7463810D01*
X1373690D02*
X1674310D01*
X1373690Y6903190D02*
Y7463810D01*
X8358690Y6903190D02*
X8659310D01*
Y7463810D01*
X8358690D02*
X8659310D01*
X8358690Y6903190D02*
Y7463810D01*
X6326690Y6903190D02*
X6627310D01*
Y7463810D01*
X6326690D02*
X6627310D01*
X6326690Y6903190D02*
Y7463810D01*
X18264690Y6903190D02*
X18565311D01*
Y7463810D01*
X18264690D02*
X18565311D01*
X18264690Y6903190D02*
Y7463810D01*
X16232690Y6903190D02*
X16533310D01*
Y7463810D01*
X16232690D02*
X16533310D01*
X16232690Y6903190D02*
Y7463810D01*
X3405690Y3093190D02*
X3706310D01*
Y3653810D01*
X3405690D02*
X3706310D01*
X3405690Y3093190D02*
Y3653810D01*
X1373690Y3093190D02*
X1674310D01*
Y3653810D01*
X1373690D02*
X1674310D01*
X1373690Y3093190D02*
Y3653810D01*
X16662199Y8563500D02*
Y9662500D01*
X14732201Y8563500D02*
X16662199D01*
X14732201D02*
Y9662500D01*
X16662199D01*
X17727008Y8500836D02*
Y9061251D01*
X17426591Y8500836D02*
X17727008D01*
X17426591D02*
Y9061251D01*
X17727008D01*
%TF.MD5,87358bfc11240a55b1687e1206da3fe5*%
M02*
