%TF.GenerationSoftware,Altium Limited,Altium Designer,25.7.1 (20)*%
G04 Layer_Color=65535*
%FSLAX45Y45*%
%MOMM*%
%TF.SameCoordinates,C85018D4-D0C4-44B4-89D4-C4E6911D6D7A*%
%TF.FilePolarity,Positive*%
%TF.FileFunction,Legend,Top*%
%TF.Part,Single*%
G01*
G75*
%TA.AperFunction,NonConductor*%
%ADD26C,0.20000*%
%ADD27C,0.10000*%
%ADD28C,0.25400*%
%ADD29C,0.50800*%
D26*
X10473000Y1524000D02*
G03*
X10473000Y1524000I-5000J0D01*
G01*
X15425999Y5334000D02*
G03*
X15425999Y5334000I-5000J0D01*
G01*
Y1524000D02*
G03*
X15425999Y1524000I-5000J0D01*
G01*
X20378999D02*
G03*
X20378999Y1524000I-5000J0D01*
G01*
X5520000Y5334000D02*
G03*
X5520000Y5334000I-5000J0D01*
G01*
X10473000D02*
G03*
X10473000Y5334000I-5000J0D01*
G01*
X20378999D02*
G03*
X20378999Y5334000I-5000J0D01*
G01*
X5520000Y1524000D02*
G03*
X5520000Y1524000I-5000J0D01*
G01*
X8609310Y3268810D02*
Y3478190D01*
X8408690Y3268810D02*
Y3478190D01*
X6577310Y3268810D02*
Y3478190D01*
X6376690Y3268810D02*
Y3478190D01*
X7493000Y2962500D02*
X7630500D01*
Y2432500D02*
Y2962500D01*
X7355500D02*
X7493000D01*
X7355500Y2432500D02*
Y2960000D01*
Y2432500D02*
X7630500D01*
X9525000Y2962500D02*
X9662500D01*
Y2432500D02*
Y2962500D01*
X9387500D02*
X9525000D01*
X9387500Y2432500D02*
Y2960000D01*
Y2432500D02*
X9662500D01*
X6847500Y2427500D02*
X6985000D01*
X6847500D02*
Y2957500D01*
X6985000Y2427500D02*
X7122500D01*
Y2430000D02*
Y2957500D01*
X6847500D02*
X7122500D01*
X6339500Y2427500D02*
X6477000D01*
X6339500D02*
Y2957500D01*
X6477000Y2427500D02*
X6614500D01*
Y2430000D02*
Y2957500D01*
X6339500D02*
X6614500D01*
X8879500Y2427500D02*
X9017000D01*
X8879500D02*
Y2957500D01*
X9017000Y2427500D02*
X9154500D01*
Y2430000D02*
Y2957500D01*
X8879500D02*
X9154500D01*
X8371500Y2427500D02*
X8509000D01*
X8371500D02*
Y2957500D01*
X8509000Y2427500D02*
X8646500D01*
Y2430000D02*
Y2957500D01*
X8371500D02*
X8646500D01*
X7130000Y3401500D02*
Y3456500D01*
X6840000Y3401500D02*
X7130000D01*
X6840000D02*
Y3456500D01*
X7130000D01*
X7135000Y3491500D02*
Y3616500D01*
X9162000Y3401500D02*
Y3456500D01*
X8872000Y3401500D02*
X9162000D01*
X8872000D02*
Y3456500D01*
X9162000D01*
X9167000Y3491500D02*
Y3616500D01*
X13361690Y7078810D02*
Y7288190D01*
X13562309Y7078810D02*
Y7288190D01*
X11329690Y7078810D02*
Y7288190D01*
X11530310Y7078810D02*
Y7288190D01*
X12308500Y6242500D02*
X12583500D01*
X12308500D02*
Y6770000D01*
Y6772500D02*
X12446000D01*
X12583500Y6242500D02*
Y6772500D01*
X12446000D02*
X12583500D01*
X14340500Y6242500D02*
X14615500D01*
X14340500D02*
Y6770000D01*
Y6772500D02*
X14478000D01*
X14615500Y6242500D02*
Y6772500D01*
X14478000D02*
X14615500D01*
X11800500Y6767500D02*
X12075500D01*
Y6240000D02*
Y6767500D01*
X11938000Y6237500D02*
X12075500D01*
X11800500D02*
Y6767500D01*
Y6237500D02*
X11938000D01*
X11292500Y6767500D02*
X11567500D01*
Y6240000D02*
Y6767500D01*
X11430000Y6237500D02*
X11567500D01*
X11292500D02*
Y6767500D01*
Y6237500D02*
X11430000D01*
X13832500Y6767500D02*
X14107500D01*
Y6240000D02*
Y6767500D01*
X13970000Y6237500D02*
X14107500D01*
X13832500D02*
Y6767500D01*
Y6237500D02*
X13970000D01*
X13324500Y6767500D02*
X13599500D01*
Y6240000D02*
Y6767500D01*
X13462000Y6237500D02*
X13599500D01*
X13324500D02*
Y6767500D01*
Y6237500D02*
X13462000D01*
X12088000Y7301500D02*
Y7426500D01*
X11793000Y7266500D02*
X12083000D01*
X11793000Y7211500D02*
Y7266500D01*
Y7211500D02*
X12083000D01*
Y7266500D01*
X14120000Y7301500D02*
Y7426500D01*
X13825000Y7266500D02*
X14114999D01*
X13825000Y7211500D02*
Y7266500D01*
Y7211500D02*
X14114999D01*
Y7266500D01*
X13361690Y3268810D02*
Y3478190D01*
X13562309Y3268810D02*
Y3478190D01*
X11329690Y3268810D02*
Y3478190D01*
X11530310Y3268810D02*
Y3478190D01*
X12308500Y2432500D02*
X12583500D01*
X12308500D02*
Y2960000D01*
Y2962500D02*
X12446000D01*
X12583500Y2432500D02*
Y2962500D01*
X12446000D02*
X12583500D01*
X14340500Y2432500D02*
X14615500D01*
X14340500D02*
Y2960000D01*
Y2962500D02*
X14478000D01*
X14615500Y2432500D02*
Y2962500D01*
X14478000D02*
X14615500D01*
X11800500Y2957500D02*
X12075500D01*
Y2430000D02*
Y2957500D01*
X11938000Y2427500D02*
X12075500D01*
X11800500D02*
Y2957500D01*
Y2427500D02*
X11938000D01*
X11292500Y2957500D02*
X11567500D01*
Y2430000D02*
Y2957500D01*
X11430000Y2427500D02*
X11567500D01*
X11292500D02*
Y2957500D01*
Y2427500D02*
X11430000D01*
X13832500Y2957500D02*
X14107500D01*
Y2430000D02*
Y2957500D01*
X13970000Y2427500D02*
X14107500D01*
X13832500D02*
Y2957500D01*
Y2427500D02*
X13970000D01*
X13324500Y2957500D02*
X13599500D01*
Y2430000D02*
Y2957500D01*
X13462000Y2427500D02*
X13599500D01*
X13324500D02*
Y2957500D01*
Y2427500D02*
X13462000D01*
X12088000Y3491500D02*
Y3616500D01*
X11793000Y3456500D02*
X12083000D01*
X11793000Y3401500D02*
Y3456500D01*
Y3401500D02*
X12083000D01*
Y3456500D01*
X14120000Y3491500D02*
Y3616500D01*
X13825000Y3456500D02*
X14114999D01*
X13825000Y3401500D02*
Y3456500D01*
Y3401500D02*
X14114999D01*
Y3456500D01*
X18314690Y3268810D02*
Y3478190D01*
X18515311Y3268810D02*
Y3478190D01*
X16282690Y3268810D02*
Y3478190D01*
X16483310Y3268810D02*
Y3478190D01*
X17261501Y2432500D02*
X17536501D01*
X17261501D02*
Y2960000D01*
Y2962500D02*
X17399001D01*
X17536501Y2432500D02*
Y2962500D01*
X17399001D02*
X17536501D01*
X19293500Y2432500D02*
X19568500D01*
X19293500D02*
Y2960000D01*
Y2962500D02*
X19431000D01*
X19568500Y2432500D02*
Y2962500D01*
X19431000D02*
X19568500D01*
X16753500Y2957500D02*
X17028500D01*
Y2430000D02*
Y2957500D01*
X16891000Y2427500D02*
X17028500D01*
X16753500D02*
Y2957500D01*
Y2427500D02*
X16891000D01*
X16245500Y2957500D02*
X16520500D01*
Y2430000D02*
Y2957500D01*
X16383000Y2427500D02*
X16520500D01*
X16245500D02*
Y2957500D01*
Y2427500D02*
X16383000D01*
X18785500Y2957500D02*
X19060500D01*
Y2430000D02*
Y2957500D01*
X18923000Y2427500D02*
X19060500D01*
X18785500D02*
Y2957500D01*
Y2427500D02*
X18923000D01*
X18277499Y2957500D02*
X18552499D01*
Y2430000D02*
Y2957500D01*
X18414999Y2427500D02*
X18552499D01*
X18277499D02*
Y2957500D01*
Y2427500D02*
X18414999D01*
X17041000Y3491500D02*
Y3616500D01*
X16746001Y3456500D02*
X17036000D01*
X16746001Y3401500D02*
Y3456500D01*
Y3401500D02*
X17036000D01*
Y3456500D01*
X19073000Y3491500D02*
Y3616500D01*
X18778000Y3456500D02*
X19067999D01*
X18778000Y3401500D02*
Y3456500D01*
Y3401500D02*
X19067999D01*
Y3456500D01*
X3455690Y7078810D02*
Y7288190D01*
X3656310Y7078810D02*
Y7288190D01*
X1423690Y7078810D02*
Y7288190D01*
X1624310Y7078810D02*
Y7288190D01*
X2402500Y6242500D02*
X2677500D01*
X2402500D02*
Y6770000D01*
Y6772500D02*
X2540000D01*
X2677500Y6242500D02*
Y6772500D01*
X2540000D02*
X2677500D01*
X4434500Y6242500D02*
X4709500D01*
X4434500D02*
Y6770000D01*
Y6772500D02*
X4572000D01*
X4709500Y6242500D02*
Y6772500D01*
X4572000D02*
X4709500D01*
X1894500Y6767500D02*
X2169500D01*
Y6240000D02*
Y6767500D01*
X2032000Y6237500D02*
X2169500D01*
X1894500D02*
Y6767500D01*
Y6237500D02*
X2032000D01*
X1386500Y6767500D02*
X1661500D01*
Y6240000D02*
Y6767500D01*
X1524000Y6237500D02*
X1661500D01*
X1386500D02*
Y6767500D01*
Y6237500D02*
X1524000D01*
X3926500Y6767500D02*
X4201500D01*
Y6240000D02*
Y6767500D01*
X4064000Y6237500D02*
X4201500D01*
X3926500D02*
Y6767500D01*
Y6237500D02*
X4064000D01*
X3418500Y6767500D02*
X3693500D01*
Y6240000D02*
Y6767500D01*
X3556000Y6237500D02*
X3693500D01*
X3418500D02*
Y6767500D01*
Y6237500D02*
X3556000D01*
X2182000Y7301500D02*
Y7426500D01*
X1887000Y7266500D02*
X2177000D01*
X1887000Y7211500D02*
Y7266500D01*
Y7211500D02*
X2177000D01*
Y7266500D01*
X4214000Y7301500D02*
Y7426500D01*
X3919000Y7266500D02*
X4209000D01*
X3919000Y7211500D02*
Y7266500D01*
Y7211500D02*
X4209000D01*
Y7266500D01*
X8408690Y7078810D02*
Y7288190D01*
X8609310Y7078810D02*
Y7288190D01*
X6376690Y7078810D02*
Y7288190D01*
X6577310Y7078810D02*
Y7288190D01*
X7355500Y6242500D02*
X7630500D01*
X7355500D02*
Y6770000D01*
Y6772500D02*
X7493000D01*
X7630500Y6242500D02*
Y6772500D01*
X7493000D02*
X7630500D01*
X9387500Y6242500D02*
X9662500D01*
X9387500D02*
Y6770000D01*
Y6772500D02*
X9525000D01*
X9662500Y6242500D02*
Y6772500D01*
X9525000D02*
X9662500D01*
X6847500Y6767500D02*
X7122500D01*
Y6240000D02*
Y6767500D01*
X6985000Y6237500D02*
X7122500D01*
X6847500D02*
Y6767500D01*
Y6237500D02*
X6985000D01*
X6339500Y6767500D02*
X6614500D01*
Y6240000D02*
Y6767500D01*
X6477000Y6237500D02*
X6614500D01*
X6339500D02*
Y6767500D01*
Y6237500D02*
X6477000D01*
X8879500Y6767500D02*
X9154500D01*
Y6240000D02*
Y6767500D01*
X9017000Y6237500D02*
X9154500D01*
X8879500D02*
Y6767500D01*
Y6237500D02*
X9017000D01*
X8371500Y6767500D02*
X8646500D01*
Y6240000D02*
Y6767500D01*
X8509000Y6237500D02*
X8646500D01*
X8371500D02*
Y6767500D01*
Y6237500D02*
X8509000D01*
X7135000Y7301500D02*
Y7426500D01*
X6840000Y7266500D02*
X7130000D01*
X6840000Y7211500D02*
Y7266500D01*
Y7211500D02*
X7130000D01*
Y7266500D01*
X9167000Y7301500D02*
Y7426500D01*
X8872000Y7266500D02*
X9162000D01*
X8872000Y7211500D02*
Y7266500D01*
Y7211500D02*
X9162000D01*
Y7266500D01*
X18314690Y7078810D02*
Y7288190D01*
X18515311Y7078810D02*
Y7288190D01*
X16282690Y7078810D02*
Y7288190D01*
X16483310Y7078810D02*
Y7288190D01*
X17261501Y6242500D02*
X17536501D01*
X17261501D02*
Y6770000D01*
Y6772500D02*
X17399001D01*
X17536501Y6242500D02*
Y6772500D01*
X17399001D02*
X17536501D01*
X19293500Y6242500D02*
X19568500D01*
X19293500D02*
Y6770000D01*
Y6772500D02*
X19431000D01*
X19568500Y6242500D02*
Y6772500D01*
X19431000D02*
X19568500D01*
X16753500Y6767500D02*
X17028500D01*
Y6240000D02*
Y6767500D01*
X16891000Y6237500D02*
X17028500D01*
X16753500D02*
Y6767500D01*
Y6237500D02*
X16891000D01*
X16245500Y6767500D02*
X16520500D01*
Y6240000D02*
Y6767500D01*
X16383000Y6237500D02*
X16520500D01*
X16245500D02*
Y6767500D01*
Y6237500D02*
X16383000D01*
X18785500Y6767500D02*
X19060500D01*
Y6240000D02*
Y6767500D01*
X18923000Y6237500D02*
X19060500D01*
X18785500D02*
Y6767500D01*
Y6237500D02*
X18923000D01*
X18277499Y6767500D02*
X18552499D01*
Y6240000D02*
Y6767500D01*
X18414999Y6237500D02*
X18552499D01*
X18277499D02*
Y6767500D01*
Y6237500D02*
X18414999D01*
X17041000Y7301500D02*
Y7426500D01*
X16746001Y7266500D02*
X17036000D01*
X16746001Y7211500D02*
Y7266500D01*
Y7211500D02*
X17036000D01*
Y7266500D01*
X19073000Y7301500D02*
Y7426500D01*
X18778000Y7266500D02*
X19067999D01*
X18778000Y7211500D02*
Y7266500D01*
Y7211500D02*
X19067999D01*
Y7266500D01*
X2402500Y2432500D02*
X2677500D01*
X2402500D02*
Y2960000D01*
Y2962500D02*
X2540000D01*
X2677500Y2432500D02*
Y2962500D01*
X2540000D02*
X2677500D01*
X3455690Y3268810D02*
Y3478190D01*
X3656310Y3268810D02*
Y3478190D01*
X1423690Y3268810D02*
Y3478190D01*
X1624310Y3268810D02*
Y3478190D01*
X4434500Y2432500D02*
X4709500D01*
X4434500D02*
Y2960000D01*
Y2962500D02*
X4572000D01*
X4709500Y2432500D02*
Y2962500D01*
X4572000D02*
X4709500D01*
X1894500Y2957500D02*
X2169500D01*
Y2430000D02*
Y2957500D01*
X2032000Y2427500D02*
X2169500D01*
X1894500D02*
Y2957500D01*
Y2427500D02*
X2032000D01*
X1386500Y2957500D02*
X1661500D01*
Y2430000D02*
Y2957500D01*
X1524000Y2427500D02*
X1661500D01*
X1386500D02*
Y2957500D01*
Y2427500D02*
X1524000D01*
X3926500Y2957500D02*
X4201500D01*
Y2430000D02*
Y2957500D01*
X4064000Y2427500D02*
X4201500D01*
X3926500D02*
Y2957500D01*
Y2427500D02*
X4064000D01*
X3418500Y2957500D02*
X3693500D01*
Y2430000D02*
Y2957500D01*
X3556000Y2427500D02*
X3693500D01*
X3418500D02*
Y2957500D01*
Y2427500D02*
X3556000D01*
X2182000Y3491500D02*
Y3616500D01*
X1887000Y3456500D02*
X2177000D01*
X1887000Y3401500D02*
Y3456500D01*
Y3401500D02*
X2177000D01*
Y3456500D01*
X4214000Y3491500D02*
Y3616500D01*
X3919000Y3456500D02*
X4209000D01*
X3919000Y3401500D02*
Y3456500D01*
Y3401500D02*
X4209000D01*
Y3456500D01*
X16652200Y8573500D02*
Y9652500D01*
X14742200Y8573500D02*
X16652200D01*
X14742200D02*
Y9652500D01*
X16652200D01*
X17476591Y8751164D02*
Y8810923D01*
X17677008Y8751164D02*
Y8810923D01*
D27*
X10387000Y1054000D02*
Y1911000D01*
X6123000Y1054000D02*
Y1911000D01*
Y1054000D02*
X10387000D01*
X6123000Y1911000D02*
X10387000D01*
X11076000Y5721000D02*
X15339999D01*
X11076000Y4864000D02*
X15339999D01*
X11076000D02*
Y5721000D01*
X15339999Y4864000D02*
Y5721000D01*
X11076000Y1911000D02*
X15339999D01*
X11076000Y1054000D02*
X15339999D01*
X11076000D02*
Y1911000D01*
X15339999Y1054000D02*
Y1911000D01*
X16028999D02*
X20292999D01*
X16028999Y1054000D02*
X20292999D01*
X16028999D02*
Y1911000D01*
X20292999Y1054000D02*
Y1911000D01*
X1170000Y5721000D02*
X5434000D01*
X1170000Y4864000D02*
X5434000D01*
X1170000D02*
Y5721000D01*
X5434000Y4864000D02*
Y5721000D01*
X6123000D02*
X10387000D01*
X6123000Y4864000D02*
X10387000D01*
X6123000D02*
Y5721000D01*
X10387000Y4864000D02*
Y5721000D01*
X16028999D02*
X20292999D01*
X16028999Y4864000D02*
X20292999D01*
X16028999D02*
Y5721000D01*
X20292999Y4864000D02*
Y5721000D01*
X1170000Y1911000D02*
X5434000D01*
X1170000Y1054000D02*
X5434000D01*
X1170000D02*
Y1911000D01*
X5434000Y1054000D02*
Y1911000D01*
X1782000Y8172000D02*
Y9862000D01*
Y8172000D02*
X7462000D01*
Y9862000D01*
X1782000D02*
X7462000D01*
X7751000Y8172000D02*
Y9862000D01*
Y8172000D02*
X13431000D01*
Y9862000D01*
X7751000D02*
X13431000D01*
D28*
X10083783Y889000D02*
X9982216D01*
X9067785D02*
X8966218D01*
X8051785D02*
X7950218D01*
X7035785D02*
X6934218D01*
X8373661Y761969D02*
Y660402D01*
X8441372D01*
X8526011Y761969D02*
X8492156D01*
X8475228Y745041D01*
Y677329D01*
X8492156Y660402D01*
X8526011D01*
X8542939Y677329D01*
Y745041D01*
X8526011Y761969D01*
X8576795Y660402D02*
Y728113D01*
X8610651Y761969D01*
X8644506Y728113D01*
Y660402D01*
Y711185D01*
X8576795D01*
X8678362Y761969D02*
Y660402D01*
X8729146D01*
X8746074Y677329D01*
Y745041D01*
X8729146Y761969D01*
X8678362D01*
X8847641Y745041D02*
X8830713Y761969D01*
X8796857D01*
X8779930Y745041D01*
Y677329D01*
X8796857Y660402D01*
X8830713D01*
X8847641Y677329D01*
X8949208Y761969D02*
X8881497D01*
Y660402D01*
X8949208D01*
X8881497Y711185D02*
X8915353D01*
X8983064Y761969D02*
Y660402D01*
X9050775D01*
X9084631Y761969D02*
Y660402D01*
X9152343D01*
X9643577D02*
Y728113D01*
X9677433Y761969D01*
X9711288Y728113D01*
Y660402D01*
Y711185D01*
X9643577D01*
X9745144Y761969D02*
Y660402D01*
X9795928D01*
X9812856Y677329D01*
Y745041D01*
X9795928Y761969D01*
X9745144D01*
X9914423Y745041D02*
X9897495Y761969D01*
X9863639D01*
X9846712Y745041D01*
Y677329D01*
X9863639Y660402D01*
X9897495D01*
X9914423Y677329D01*
X6341661Y761969D02*
Y660402D01*
X6409372D01*
X6494011Y761969D02*
X6460156D01*
X6443228Y745041D01*
Y677329D01*
X6460156Y660402D01*
X6494011D01*
X6510939Y677329D01*
Y745041D01*
X6494011Y761969D01*
X6544795Y660402D02*
Y728113D01*
X6578651Y761969D01*
X6612506Y728113D01*
Y660402D01*
Y711185D01*
X6544795D01*
X6646362Y761969D02*
Y660402D01*
X6697146D01*
X6714074Y677329D01*
Y745041D01*
X6697146Y761969D01*
X6646362D01*
X6815641Y745041D02*
X6798713Y761969D01*
X6764857D01*
X6747930Y745041D01*
Y677329D01*
X6764857Y660402D01*
X6798713D01*
X6815641Y677329D01*
X6917208Y761969D02*
X6849497D01*
Y660402D01*
X6917208D01*
X6849497Y711185D02*
X6883353D01*
X6951064Y761969D02*
Y660402D01*
X7018775D01*
X7052631Y761969D02*
Y660402D01*
X7120343D01*
X7611577D02*
Y728113D01*
X7645433Y761969D01*
X7679288Y728113D01*
Y660402D01*
Y711185D01*
X7611577D01*
X7713144Y761969D02*
Y660402D01*
X7763928D01*
X7780856Y677329D01*
Y745041D01*
X7763928Y761969D01*
X7713144D01*
X7882423Y745041D02*
X7865495Y761969D01*
X7831639D01*
X7814712Y745041D01*
Y677329D01*
X7831639Y660402D01*
X7865495D01*
X7882423Y677329D01*
X6527785Y888999D02*
X6426218D01*
X6477002Y838216D02*
Y939783D01*
X7543785Y888999D02*
X7442218D01*
X7493002Y838216D02*
Y939783D01*
X8559785Y888999D02*
X8458218D01*
X8509002Y838216D02*
Y939783D01*
X9575785Y888999D02*
X9474218D01*
X9525002Y838216D02*
Y939783D01*
X14528786Y4698999D02*
X14427219D01*
X14478001Y4648216D02*
Y4749783D01*
X13512785Y4698999D02*
X13411218D01*
X13462003Y4648216D02*
Y4749783D01*
X12496785Y4698999D02*
X12395218D01*
X12446002Y4648216D02*
Y4749783D01*
X11480785Y4698999D02*
X11379218D01*
X11430002Y4648216D02*
Y4749783D01*
X12564577Y4470414D02*
Y4538126D01*
X12598433Y4571981D01*
X12632288Y4538126D01*
Y4470414D01*
Y4521198D01*
X12564577D01*
X12666144Y4571981D02*
Y4470414D01*
X12716928D01*
X12733856Y4487342D01*
Y4555054D01*
X12716928Y4571981D01*
X12666144D01*
X12835423Y4555054D02*
X12818495Y4571981D01*
X12784639D01*
X12767712Y4555054D01*
Y4487342D01*
X12784639Y4470414D01*
X12818495D01*
X12835423Y4487342D01*
X11294661Y4571981D02*
Y4470414D01*
X11362372D01*
X11447011Y4571981D02*
X11413156D01*
X11396228Y4555054D01*
Y4487342D01*
X11413156Y4470414D01*
X11447011D01*
X11463939Y4487342D01*
Y4555054D01*
X11447011Y4571981D01*
X11497795Y4470414D02*
Y4538126D01*
X11531651Y4571981D01*
X11565506Y4538126D01*
Y4470414D01*
Y4521198D01*
X11497795D01*
X11599362Y4571981D02*
Y4470414D01*
X11650146D01*
X11667074Y4487342D01*
Y4555054D01*
X11650146Y4571981D01*
X11599362D01*
X11768641Y4555054D02*
X11751713Y4571981D01*
X11717857D01*
X11700930Y4555054D01*
Y4487342D01*
X11717857Y4470414D01*
X11751713D01*
X11768641Y4487342D01*
X11870208Y4571981D02*
X11802497D01*
Y4470414D01*
X11870208D01*
X11802497Y4521198D02*
X11836353D01*
X11904064Y4571981D02*
Y4470414D01*
X11971775D01*
X12005631Y4571981D02*
Y4470414D01*
X12073343D01*
X14596577D02*
Y4538126D01*
X14630434Y4571981D01*
X14664288Y4538126D01*
Y4470414D01*
Y4521198D01*
X14596577D01*
X14698145Y4571981D02*
Y4470414D01*
X14748927D01*
X14765855Y4487342D01*
Y4555054D01*
X14748927Y4571981D01*
X14698145D01*
X14867422Y4555054D02*
X14850494Y4571981D01*
X14816640D01*
X14799712Y4555054D01*
Y4487342D01*
X14816640Y4470414D01*
X14850494D01*
X14867422Y4487342D01*
X13326662Y4571981D02*
Y4470414D01*
X13394373D01*
X13479012Y4571981D02*
X13445155D01*
X13428229Y4555054D01*
Y4487342D01*
X13445155Y4470414D01*
X13479012D01*
X13495940Y4487342D01*
Y4555054D01*
X13479012Y4571981D01*
X13529794Y4470414D02*
Y4538126D01*
X13563651Y4571981D01*
X13597507Y4538126D01*
Y4470414D01*
Y4521198D01*
X13529794D01*
X13631361Y4571981D02*
Y4470414D01*
X13682146D01*
X13699074Y4487342D01*
Y4555054D01*
X13682146Y4571981D01*
X13631361D01*
X13800641Y4555054D02*
X13783713Y4571981D01*
X13749857D01*
X13732930Y4555054D01*
Y4487342D01*
X13749857Y4470414D01*
X13783713D01*
X13800641Y4487342D01*
X13902208Y4571981D02*
X13834497D01*
Y4470414D01*
X13902208D01*
X13834497Y4521198D02*
X13868353D01*
X13936064Y4571981D02*
Y4470414D01*
X14003775D01*
X14037631Y4571981D02*
Y4470414D01*
X14105344D01*
X11988785Y4699000D02*
X11887218D01*
X13004785D02*
X12903218D01*
X14020786D02*
X13919218D01*
X15036783D02*
X14935216D01*
X14528786Y888999D02*
X14427219D01*
X14478001Y838216D02*
Y939783D01*
X13512785Y888999D02*
X13411218D01*
X13462003Y838216D02*
Y939783D01*
X12496785Y888999D02*
X12395218D01*
X12446002Y838216D02*
Y939783D01*
X11480785Y888999D02*
X11379218D01*
X11430002Y838216D02*
Y939783D01*
X12564577Y660402D02*
Y728113D01*
X12598433Y761969D01*
X12632288Y728113D01*
Y660402D01*
Y711185D01*
X12564577D01*
X12666144Y761969D02*
Y660402D01*
X12716928D01*
X12733856Y677329D01*
Y745041D01*
X12716928Y761969D01*
X12666144D01*
X12835423Y745041D02*
X12818495Y761969D01*
X12784639D01*
X12767712Y745041D01*
Y677329D01*
X12784639Y660402D01*
X12818495D01*
X12835423Y677329D01*
X11294661Y761969D02*
Y660402D01*
X11362372D01*
X11447011Y761969D02*
X11413156D01*
X11396228Y745041D01*
Y677329D01*
X11413156Y660402D01*
X11447011D01*
X11463939Y677329D01*
Y745041D01*
X11447011Y761969D01*
X11497795Y660402D02*
Y728113D01*
X11531651Y761969D01*
X11565506Y728113D01*
Y660402D01*
Y711185D01*
X11497795D01*
X11599362Y761969D02*
Y660402D01*
X11650146D01*
X11667074Y677329D01*
Y745041D01*
X11650146Y761969D01*
X11599362D01*
X11768641Y745041D02*
X11751713Y761969D01*
X11717857D01*
X11700930Y745041D01*
Y677329D01*
X11717857Y660402D01*
X11751713D01*
X11768641Y677329D01*
X11870208Y761969D02*
X11802497D01*
Y660402D01*
X11870208D01*
X11802497Y711185D02*
X11836353D01*
X11904064Y761969D02*
Y660402D01*
X11971775D01*
X12005631Y761969D02*
Y660402D01*
X12073343D01*
X14596577D02*
Y728113D01*
X14630434Y761969D01*
X14664288Y728113D01*
Y660402D01*
Y711185D01*
X14596577D01*
X14698145Y761969D02*
Y660402D01*
X14748927D01*
X14765855Y677329D01*
Y745041D01*
X14748927Y761969D01*
X14698145D01*
X14867422Y745041D02*
X14850494Y761969D01*
X14816640D01*
X14799712Y745041D01*
Y677329D01*
X14816640Y660402D01*
X14850494D01*
X14867422Y677329D01*
X13326662Y761969D02*
Y660402D01*
X13394373D01*
X13479012Y761969D02*
X13445155D01*
X13428229Y745041D01*
Y677329D01*
X13445155Y660402D01*
X13479012D01*
X13495940Y677329D01*
Y745041D01*
X13479012Y761969D01*
X13529794Y660402D02*
Y728113D01*
X13563651Y761969D01*
X13597507Y728113D01*
Y660402D01*
Y711185D01*
X13529794D01*
X13631361Y761969D02*
Y660402D01*
X13682146D01*
X13699074Y677329D01*
Y745041D01*
X13682146Y761969D01*
X13631361D01*
X13800641Y745041D02*
X13783713Y761969D01*
X13749857D01*
X13732930Y745041D01*
Y677329D01*
X13749857Y660402D01*
X13783713D01*
X13800641Y677329D01*
X13902208Y761969D02*
X13834497D01*
Y660402D01*
X13902208D01*
X13834497Y711185D02*
X13868353D01*
X13936064Y761969D02*
Y660402D01*
X14003775D01*
X14037631Y761969D02*
Y660402D01*
X14105344D01*
X11988785Y889000D02*
X11887218D01*
X13004785D02*
X12903218D01*
X14020786D02*
X13919218D01*
X15036783D02*
X14935216D01*
X19481786Y888999D02*
X19380219D01*
X19431001Y838216D02*
Y939783D01*
X18465785Y888999D02*
X18364218D01*
X18415002Y838216D02*
Y939783D01*
X17449785Y888999D02*
X17348218D01*
X17399002Y838216D02*
Y939783D01*
X16433784Y888999D02*
X16332217D01*
X16383002Y838216D02*
Y939783D01*
X17517577Y660402D02*
Y728113D01*
X17551433Y761969D01*
X17585287Y728113D01*
Y660402D01*
Y711185D01*
X17517577D01*
X17619144Y761969D02*
Y660402D01*
X17669928D01*
X17686856Y677329D01*
Y745041D01*
X17669928Y761969D01*
X17619144D01*
X17788423Y745041D02*
X17771495Y761969D01*
X17737639D01*
X17720712Y745041D01*
Y677329D01*
X17737639Y660402D01*
X17771495D01*
X17788423Y677329D01*
X16247661Y761969D02*
Y660402D01*
X16315372D01*
X16400011Y761969D02*
X16366156D01*
X16349228Y745041D01*
Y677329D01*
X16366156Y660402D01*
X16400011D01*
X16416939Y677329D01*
Y745041D01*
X16400011Y761969D01*
X16450795Y660402D02*
Y728113D01*
X16484651Y761969D01*
X16518506Y728113D01*
Y660402D01*
Y711185D01*
X16450795D01*
X16552362Y761969D02*
Y660402D01*
X16603146D01*
X16620074Y677329D01*
Y745041D01*
X16603146Y761969D01*
X16552362D01*
X16721642Y745041D02*
X16704713Y761969D01*
X16670857D01*
X16653931Y745041D01*
Y677329D01*
X16670857Y660402D01*
X16704713D01*
X16721642Y677329D01*
X16823209Y761969D02*
X16755498D01*
Y660402D01*
X16823209D01*
X16755498Y711185D02*
X16789352D01*
X16857063Y761969D02*
Y660402D01*
X16924776D01*
X16958630Y761969D02*
Y660402D01*
X17026343D01*
X19549577D02*
Y728113D01*
X19583434Y761969D01*
X19617288Y728113D01*
Y660402D01*
Y711185D01*
X19549577D01*
X19651144Y761969D02*
Y660402D01*
X19701929D01*
X19718855Y677329D01*
Y745041D01*
X19701929Y761969D01*
X19651144D01*
X19820422Y745041D02*
X19803494Y761969D01*
X19769640D01*
X19752711Y745041D01*
Y677329D01*
X19769640Y660402D01*
X19803494D01*
X19820422Y677329D01*
X18279662Y761969D02*
Y660402D01*
X18347372D01*
X18432011Y761969D02*
X18398157D01*
X18381229Y745041D01*
Y677329D01*
X18398157Y660402D01*
X18432011D01*
X18448940Y677329D01*
Y745041D01*
X18432011Y761969D01*
X18482796Y660402D02*
Y728113D01*
X18516650Y761969D01*
X18550507Y728113D01*
Y660402D01*
Y711185D01*
X18482796D01*
X18584361Y761969D02*
Y660402D01*
X18635146D01*
X18652074Y677329D01*
Y745041D01*
X18635146Y761969D01*
X18584361D01*
X18753641Y745041D02*
X18736713Y761969D01*
X18702856D01*
X18685930Y745041D01*
Y677329D01*
X18702856Y660402D01*
X18736713D01*
X18753641Y677329D01*
X18855208Y761969D02*
X18787497D01*
Y660402D01*
X18855208D01*
X18787497Y711185D02*
X18821353D01*
X18889064Y761969D02*
Y660402D01*
X18956775D01*
X18990631Y761969D02*
Y660402D01*
X19058344D01*
X16941785Y889000D02*
X16840218D01*
X17957785D02*
X17856218D01*
X18973785D02*
X18872218D01*
X19989783D02*
X19888216D01*
X4622785Y4698999D02*
X4521218D01*
X4572002Y4648216D02*
Y4749783D01*
X3606785Y4698999D02*
X3505218D01*
X3556002Y4648216D02*
Y4749783D01*
X2590785Y4698999D02*
X2489218D01*
X2540002Y4648216D02*
Y4749783D01*
X1574785Y4698999D02*
X1473218D01*
X1524002Y4648216D02*
Y4749783D01*
X2658577Y4470402D02*
Y4538113D01*
X2692433Y4571969D01*
X2726288Y4538113D01*
Y4470402D01*
Y4521185D01*
X2658577D01*
X2760144Y4571969D02*
Y4470402D01*
X2810928D01*
X2827856Y4487329D01*
Y4555041D01*
X2810928Y4571969D01*
X2760144D01*
X2929423Y4555041D02*
X2912495Y4571969D01*
X2878639D01*
X2861712Y4555041D01*
Y4487329D01*
X2878639Y4470402D01*
X2912495D01*
X2929423Y4487329D01*
X4690577Y4470402D02*
Y4538113D01*
X4724433Y4571969D01*
X4758288Y4538113D01*
Y4470402D01*
Y4521185D01*
X4690577D01*
X4792144Y4571969D02*
Y4470402D01*
X4842928D01*
X4859856Y4487329D01*
Y4555041D01*
X4842928Y4571969D01*
X4792144D01*
X4961423Y4555041D02*
X4944495Y4571969D01*
X4910639D01*
X4893712Y4555041D01*
Y4487329D01*
X4910639Y4470402D01*
X4944495D01*
X4961423Y4487329D01*
X3420661Y4571969D02*
Y4470402D01*
X3488372D01*
X3573011Y4571969D02*
X3539156D01*
X3522228Y4555041D01*
Y4487329D01*
X3539156Y4470402D01*
X3573011D01*
X3589939Y4487329D01*
Y4555041D01*
X3573011Y4571969D01*
X3623795Y4470402D02*
Y4538113D01*
X3657651Y4571969D01*
X3691506Y4538113D01*
Y4470402D01*
Y4521185D01*
X3623795D01*
X3725362Y4571969D02*
Y4470402D01*
X3776146D01*
X3793074Y4487329D01*
Y4555041D01*
X3776146Y4571969D01*
X3725362D01*
X3894641Y4555041D02*
X3877713Y4571969D01*
X3843857D01*
X3826930Y4555041D01*
Y4487329D01*
X3843857Y4470402D01*
X3877713D01*
X3894641Y4487329D01*
X3996208Y4571969D02*
X3928497D01*
Y4470402D01*
X3996208D01*
X3928497Y4521185D02*
X3962353D01*
X4030064Y4571969D02*
Y4470402D01*
X4097775D01*
X4131631Y4571969D02*
Y4470402D01*
X4199343D01*
X2082785Y4699000D02*
X1981218D01*
X3098785D02*
X2997218D01*
X4114785D02*
X4013218D01*
X5130783D02*
X5029216D01*
X1388661Y4571969D02*
Y4470402D01*
X1456372D01*
X1541011Y4571969D02*
X1507156D01*
X1490228Y4555041D01*
Y4487329D01*
X1507156Y4470402D01*
X1541011D01*
X1557939Y4487329D01*
Y4555041D01*
X1541011Y4571969D01*
X1591795Y4470402D02*
Y4538113D01*
X1625651Y4571969D01*
X1659506Y4538113D01*
Y4470402D01*
Y4521185D01*
X1591795D01*
X1693362Y4571969D02*
Y4470402D01*
X1744146D01*
X1761074Y4487329D01*
Y4555041D01*
X1744146Y4571969D01*
X1693362D01*
X1862641Y4555041D02*
X1845713Y4571969D01*
X1811857D01*
X1794930Y4555041D01*
Y4487329D01*
X1811857Y4470402D01*
X1845713D01*
X1862641Y4487329D01*
X1964208Y4571969D02*
X1896497D01*
Y4470402D01*
X1964208D01*
X1896497Y4521185D02*
X1930353D01*
X1998064Y4571969D02*
Y4470402D01*
X2065775D01*
X2099631Y4571969D02*
Y4470402D01*
X2167343D01*
X9575785Y4698999D02*
X9474218D01*
X9525002Y4648216D02*
Y4749783D01*
X8559785Y4698999D02*
X8458218D01*
X8509002Y4648216D02*
Y4749783D01*
X7543785Y4698999D02*
X7442218D01*
X7493002Y4648216D02*
Y4749783D01*
X6527785Y4698999D02*
X6426218D01*
X6477002Y4648216D02*
Y4749783D01*
X7611577Y4470402D02*
Y4538113D01*
X7645433Y4571969D01*
X7679288Y4538113D01*
Y4470402D01*
Y4521185D01*
X7611577D01*
X7713144Y4571969D02*
Y4470402D01*
X7763928D01*
X7780856Y4487329D01*
Y4555041D01*
X7763928Y4571969D01*
X7713144D01*
X7882423Y4555041D02*
X7865495Y4571969D01*
X7831639D01*
X7814712Y4555041D01*
Y4487329D01*
X7831639Y4470402D01*
X7865495D01*
X7882423Y4487329D01*
X6341661Y4571969D02*
Y4470402D01*
X6409372D01*
X6494011Y4571969D02*
X6460156D01*
X6443228Y4555041D01*
Y4487329D01*
X6460156Y4470402D01*
X6494011D01*
X6510939Y4487329D01*
Y4555041D01*
X6494011Y4571969D01*
X6544795Y4470402D02*
Y4538113D01*
X6578651Y4571969D01*
X6612506Y4538113D01*
Y4470402D01*
Y4521185D01*
X6544795D01*
X6646362Y4571969D02*
Y4470402D01*
X6697146D01*
X6714074Y4487329D01*
Y4555041D01*
X6697146Y4571969D01*
X6646362D01*
X6815641Y4555041D02*
X6798713Y4571969D01*
X6764857D01*
X6747930Y4555041D01*
Y4487329D01*
X6764857Y4470402D01*
X6798713D01*
X6815641Y4487329D01*
X6917208Y4571969D02*
X6849497D01*
Y4470402D01*
X6917208D01*
X6849497Y4521185D02*
X6883353D01*
X6951064Y4571969D02*
Y4470402D01*
X7018775D01*
X7052631Y4571969D02*
Y4470402D01*
X7120343D01*
X9643577D02*
Y4538113D01*
X9677433Y4571969D01*
X9711288Y4538113D01*
Y4470402D01*
Y4521185D01*
X9643577D01*
X9745144Y4571969D02*
Y4470402D01*
X9795928D01*
X9812856Y4487329D01*
Y4555041D01*
X9795928Y4571969D01*
X9745144D01*
X9914423Y4555041D02*
X9897495Y4571969D01*
X9863639D01*
X9846712Y4555041D01*
Y4487329D01*
X9863639Y4470402D01*
X9897495D01*
X9914423Y4487329D01*
X8373661Y4571969D02*
Y4470402D01*
X8441372D01*
X8526011Y4571969D02*
X8492156D01*
X8475228Y4555041D01*
Y4487329D01*
X8492156Y4470402D01*
X8526011D01*
X8542939Y4487329D01*
Y4555041D01*
X8526011Y4571969D01*
X8576795Y4470402D02*
Y4538113D01*
X8610651Y4571969D01*
X8644506Y4538113D01*
Y4470402D01*
Y4521185D01*
X8576795D01*
X8678362Y4571969D02*
Y4470402D01*
X8729146D01*
X8746074Y4487329D01*
Y4555041D01*
X8729146Y4571969D01*
X8678362D01*
X8847641Y4555041D02*
X8830713Y4571969D01*
X8796857D01*
X8779930Y4555041D01*
Y4487329D01*
X8796857Y4470402D01*
X8830713D01*
X8847641Y4487329D01*
X8949208Y4571969D02*
X8881497D01*
Y4470402D01*
X8949208D01*
X8881497Y4521185D02*
X8915353D01*
X8983064Y4571969D02*
Y4470402D01*
X9050775D01*
X9084631Y4571969D02*
Y4470402D01*
X9152343D01*
X7035785Y4699000D02*
X6934218D01*
X8051785D02*
X7950218D01*
X9067785D02*
X8966218D01*
X10083783D02*
X9982216D01*
X19481786Y4698999D02*
X19380219D01*
X19431001Y4648216D02*
Y4749783D01*
X18465785Y4698999D02*
X18364218D01*
X18415002Y4648216D02*
Y4749783D01*
X17449785Y4698999D02*
X17348218D01*
X17399002Y4648216D02*
Y4749783D01*
X16433784Y4698999D02*
X16332217D01*
X16383002Y4648216D02*
Y4749783D01*
X17517577Y4470402D02*
Y4538113D01*
X17551433Y4571969D01*
X17585287Y4538113D01*
Y4470402D01*
Y4521185D01*
X17517577D01*
X17619144Y4571969D02*
Y4470402D01*
X17669928D01*
X17686856Y4487329D01*
Y4555041D01*
X17669928Y4571969D01*
X17619144D01*
X17788423Y4555041D02*
X17771495Y4571969D01*
X17737639D01*
X17720712Y4555041D01*
Y4487329D01*
X17737639Y4470402D01*
X17771495D01*
X17788423Y4487329D01*
X16247661Y4571969D02*
Y4470402D01*
X16315372D01*
X16400011Y4571969D02*
X16366156D01*
X16349228Y4555041D01*
Y4487329D01*
X16366156Y4470402D01*
X16400011D01*
X16416939Y4487329D01*
Y4555041D01*
X16400011Y4571969D01*
X16450795Y4470402D02*
Y4538113D01*
X16484651Y4571969D01*
X16518506Y4538113D01*
Y4470402D01*
Y4521185D01*
X16450795D01*
X16552362Y4571969D02*
Y4470402D01*
X16603146D01*
X16620074Y4487329D01*
Y4555041D01*
X16603146Y4571969D01*
X16552362D01*
X16721642Y4555041D02*
X16704713Y4571969D01*
X16670857D01*
X16653931Y4555041D01*
Y4487329D01*
X16670857Y4470402D01*
X16704713D01*
X16721642Y4487329D01*
X16823209Y4571969D02*
X16755498D01*
Y4470402D01*
X16823209D01*
X16755498Y4521185D02*
X16789352D01*
X16857063Y4571969D02*
Y4470402D01*
X16924776D01*
X16958630Y4571969D02*
Y4470402D01*
X17026343D01*
X19549577D02*
Y4538113D01*
X19583434Y4571969D01*
X19617288Y4538113D01*
Y4470402D01*
Y4521185D01*
X19549577D01*
X19651144Y4571969D02*
Y4470402D01*
X19701929D01*
X19718855Y4487329D01*
Y4555041D01*
X19701929Y4571969D01*
X19651144D01*
X19820422Y4555041D02*
X19803494Y4571969D01*
X19769640D01*
X19752711Y4555041D01*
Y4487329D01*
X19769640Y4470402D01*
X19803494D01*
X19820422Y4487329D01*
X18279662Y4571969D02*
Y4470402D01*
X18347372D01*
X18432011Y4571969D02*
X18398157D01*
X18381229Y4555041D01*
Y4487329D01*
X18398157Y4470402D01*
X18432011D01*
X18448940Y4487329D01*
Y4555041D01*
X18432011Y4571969D01*
X18482796Y4470402D02*
Y4538113D01*
X18516650Y4571969D01*
X18550507Y4538113D01*
Y4470402D01*
Y4521185D01*
X18482796D01*
X18584361Y4571969D02*
Y4470402D01*
X18635146D01*
X18652074Y4487329D01*
Y4555041D01*
X18635146Y4571969D01*
X18584361D01*
X18753641Y4555041D02*
X18736713Y4571969D01*
X18702856D01*
X18685930Y4555041D01*
Y4487329D01*
X18702856Y4470402D01*
X18736713D01*
X18753641Y4487329D01*
X18855208Y4571969D02*
X18787497D01*
Y4470402D01*
X18855208D01*
X18787497Y4521185D02*
X18821353D01*
X18889064Y4571969D02*
Y4470402D01*
X18956775D01*
X18990631Y4571969D02*
Y4470402D01*
X19058344D01*
X16941785Y4699000D02*
X16840218D01*
X17957785D02*
X17856218D01*
X18973785D02*
X18872218D01*
X19989783D02*
X19888216D01*
X4622785Y888999D02*
X4521218D01*
X4572002Y838216D02*
Y939783D01*
X3606785Y888999D02*
X3505218D01*
X3556002Y838216D02*
Y939783D01*
X2590785Y888999D02*
X2489218D01*
X2540002Y838216D02*
Y939783D01*
X1574785Y888999D02*
X1473218D01*
X1524002Y838216D02*
Y939783D01*
X2658577Y660402D02*
Y728113D01*
X2692433Y761969D01*
X2726288Y728113D01*
Y660402D01*
Y711185D01*
X2658577D01*
X2760144Y761969D02*
Y660402D01*
X2810928D01*
X2827856Y677329D01*
Y745041D01*
X2810928Y761969D01*
X2760144D01*
X2929423Y745041D02*
X2912495Y761969D01*
X2878639D01*
X2861712Y745041D01*
Y677329D01*
X2878639Y660402D01*
X2912495D01*
X2929423Y677329D01*
X1388661Y761969D02*
Y660402D01*
X1456372D01*
X1541011Y761969D02*
X1507156D01*
X1490228Y745041D01*
Y677329D01*
X1507156Y660402D01*
X1541011D01*
X1557939Y677329D01*
Y745041D01*
X1541011Y761969D01*
X1591795Y660402D02*
Y728113D01*
X1625651Y761969D01*
X1659506Y728113D01*
Y660402D01*
Y711185D01*
X1591795D01*
X1693362Y761969D02*
Y660402D01*
X1744146D01*
X1761074Y677329D01*
Y745041D01*
X1744146Y761969D01*
X1693362D01*
X1862641Y745041D02*
X1845713Y761969D01*
X1811857D01*
X1794930Y745041D01*
Y677329D01*
X1811857Y660402D01*
X1845713D01*
X1862641Y677329D01*
X1964208Y761969D02*
X1896497D01*
Y660402D01*
X1964208D01*
X1896497Y711185D02*
X1930353D01*
X1998064Y761969D02*
Y660402D01*
X2065775D01*
X2099631Y761969D02*
Y660402D01*
X2167343D01*
X4690577D02*
Y728113D01*
X4724433Y761969D01*
X4758288Y728113D01*
Y660402D01*
Y711185D01*
X4690577D01*
X4792144Y761969D02*
Y660402D01*
X4842928D01*
X4859856Y677329D01*
Y745041D01*
X4842928Y761969D01*
X4792144D01*
X4961423Y745041D02*
X4944495Y761969D01*
X4910639D01*
X4893712Y745041D01*
Y677329D01*
X4910639Y660402D01*
X4944495D01*
X4961423Y677329D01*
X3420661Y761969D02*
Y660402D01*
X3488372D01*
X3573011Y761969D02*
X3539156D01*
X3522228Y745041D01*
Y677329D01*
X3539156Y660402D01*
X3573011D01*
X3589939Y677329D01*
Y745041D01*
X3573011Y761969D01*
X3623795Y660402D02*
Y728113D01*
X3657651Y761969D01*
X3691506Y728113D01*
Y660402D01*
Y711185D01*
X3623795D01*
X3725362Y761969D02*
Y660402D01*
X3776146D01*
X3793074Y677329D01*
Y745041D01*
X3776146Y761969D01*
X3725362D01*
X3894641Y745041D02*
X3877713Y761969D01*
X3843857D01*
X3826930Y745041D01*
Y677329D01*
X3843857Y660402D01*
X3877713D01*
X3894641Y677329D01*
X3996208Y761969D02*
X3928497D01*
Y660402D01*
X3996208D01*
X3928497Y711185D02*
X3962353D01*
X4030064Y761969D02*
Y660402D01*
X4097775D01*
X4131631Y761969D02*
Y660402D01*
X4199343D01*
X2082785Y889000D02*
X1981218D01*
X3098785D02*
X2997218D01*
X4114785D02*
X4013218D01*
X5130783D02*
X5029216D01*
X14985983Y8255049D02*
X15036768D01*
X15062160Y8280441D01*
Y8382008D01*
X15036768Y8407400D01*
X14985983D01*
X14960593Y8382008D01*
Y8280441D01*
X14985983Y8255049D01*
X14909808Y8407400D02*
Y8255049D01*
X14808241Y8407400D01*
Y8255049D01*
X16586159D02*
X16636942D01*
X16662334Y8280441D01*
Y8382008D01*
X16636942Y8407400D01*
X16586159D01*
X16560767Y8382008D01*
Y8280441D01*
X16586159Y8255049D01*
X16408417D02*
X16509982D01*
Y8331225D01*
X16459200D01*
X16509982D01*
Y8407400D01*
X16256065Y8255049D02*
X16357632D01*
Y8331225D01*
X16306850D01*
X16357632D01*
Y8407400D01*
X19786568Y8991641D02*
X19811958Y8966249D01*
X19862743D01*
X19888133Y8991641D01*
Y9093208D01*
X19862743Y9118600D01*
X19811958D01*
X19786568Y9093208D01*
Y9042425D01*
X19837350D01*
X19735783Y9118600D02*
Y8966249D01*
X19634216Y9118600D01*
Y8966249D01*
X19583434D02*
Y9118600D01*
X19507257D01*
X19481866Y9093208D01*
Y8991641D01*
X19507257Y8966249D01*
X19583434D01*
X19151567Y8991641D02*
X19176959Y8966249D01*
X19227742D01*
X19253134Y8991641D01*
Y9093208D01*
X19227742Y9118600D01*
X19176959D01*
X19151567Y9093208D01*
Y9042425D01*
X19202351D01*
X19100783Y9118600D02*
Y8966249D01*
X18999216Y9118600D01*
Y8966249D01*
X18948433D02*
Y9118600D01*
X18872256D01*
X18846866Y9093208D01*
Y8991641D01*
X18872256Y8966249D01*
X18948433D01*
X18516566Y8991641D02*
X18541959Y8966249D01*
X18592741D01*
X18618134Y8991641D01*
Y9093208D01*
X18592741Y9118600D01*
X18541959D01*
X18516566Y9093208D01*
Y9042425D01*
X18567351D01*
X18465784Y9118600D02*
Y8966249D01*
X18364217Y9118600D01*
Y8966249D01*
X18313432D02*
Y9118600D01*
X18237257D01*
X18211867Y9093208D01*
Y8991641D01*
X18237257Y8966249D01*
X18313432D01*
X17543108Y9275399D02*
X17517715Y9300791D01*
X17466933D01*
X17441541Y9275399D01*
Y9173832D01*
X17466933Y9148440D01*
X17517715D01*
X17543108Y9173832D01*
X17593890Y9275399D02*
X17619283Y9300791D01*
X17670065D01*
X17695457Y9275399D01*
Y9250007D01*
X17670065Y9224615D01*
X17644675D01*
X17670065D01*
X17695457Y9199223D01*
Y9173832D01*
X17670065Y9148440D01*
X17619283D01*
X17593890Y9173832D01*
X16941476Y9062883D02*
X16966869Y9088275D01*
Y9139059D01*
X16941476Y9164451D01*
X16916084D01*
X16890694Y9139059D01*
Y9088275D01*
X16865302Y9062883D01*
X16839909D01*
X16814519Y9088275D01*
Y9139059D01*
X16839909Y9164451D01*
X16966869Y9012100D02*
X16814519D01*
X16865302Y8961316D01*
X16814519Y8910533D01*
X16966869D01*
X16814519Y8859749D02*
Y8808966D01*
Y8834357D01*
X16966869D01*
X16941476Y8859749D01*
X1574825Y9398041D02*
X1727175D01*
Y9474217D01*
X1701783Y9499608D01*
X1676392D01*
X1651000Y9474217D01*
Y9398041D01*
Y9474217D01*
X1625608Y9499608D01*
X1600217D01*
X1574825Y9474217D01*
Y9398041D01*
X1727175Y9626567D02*
X1574825D01*
X1651000Y9550392D01*
Y9651959D01*
X7543825Y9398041D02*
X7696175D01*
Y9474217D01*
X7670783Y9499608D01*
X7645392D01*
X7620000Y9474217D01*
Y9398041D01*
Y9474217D01*
X7594608Y9499608D01*
X7569217D01*
X7543825Y9474217D01*
Y9398041D01*
X7569217Y9550392D02*
X7543825Y9575784D01*
Y9626567D01*
X7569217Y9651959D01*
X7594608D01*
X7620000Y9626567D01*
Y9601175D01*
Y9626567D01*
X7645392Y9651959D01*
X7670783D01*
X7696175Y9626567D01*
Y9575784D01*
X7670783Y9550392D01*
D29*
X465721Y1398190D02*
Y1482829D01*
Y1440510D01*
X719639D01*
Y1398190D01*
Y1482829D01*
Y1609788D02*
X550360D01*
X465721Y1694428D01*
X550360Y1779067D01*
X719639D01*
X592680D01*
Y1609788D01*
X508041Y2032985D02*
X465721Y1990665D01*
Y1906026D01*
X508041Y1863706D01*
X677319D01*
X719639Y1906026D01*
Y1990665D01*
X677319Y2032985D01*
X719639Y2540821D02*
Y2371542D01*
X550360Y2540821D01*
X508041D01*
X465721Y2498501D01*
Y2413862D01*
X508041Y2371542D01*
Y2625460D02*
X465721Y2667780D01*
Y2752419D01*
X508041Y2794739D01*
X677319D01*
X719639Y2752419D01*
Y2667780D01*
X677319Y2625460D01*
X508041D01*
X719639Y3048657D02*
Y2879378D01*
X550360Y3048657D01*
X508041D01*
X465721Y3006337D01*
Y2921698D01*
X508041Y2879378D01*
X465721Y3302575D02*
Y3133296D01*
X592680D01*
X550360Y3217935D01*
Y3260255D01*
X592680Y3302575D01*
X677319D01*
X719639Y3260255D01*
Y3175616D01*
X677319Y3133296D01*
X550360Y3641132D02*
X677319D01*
X719639Y3683452D01*
X677319Y3725771D01*
X719639Y3768091D01*
X677319Y3810410D01*
X550360D01*
X465721Y3895050D02*
X719639D01*
X592680D01*
X550360Y3937370D01*
Y4022009D01*
X592680Y4064328D01*
X719639D01*
Y4275927D02*
Y4191288D01*
X677319Y4148968D01*
X592680D01*
X550360Y4191288D01*
Y4275927D01*
X592680Y4318246D01*
X634999D01*
Y4148968D01*
X550360Y4445205D02*
Y4529845D01*
X592680Y4572164D01*
X719639D01*
Y4445205D01*
X677319Y4402886D01*
X634999Y4445205D01*
Y4572164D01*
X508041Y4699123D02*
X550360D01*
Y4656804D01*
Y4741443D01*
Y4699123D01*
X677319D01*
X719639Y4741443D01*
Y4868402D02*
Y4995361D01*
X677319Y5037681D01*
X634999Y4995361D01*
Y4910722D01*
X592680Y4868402D01*
X550360Y4910722D01*
Y5037681D01*
X508041Y5164640D02*
X550360D01*
Y5122320D01*
Y5206959D01*
Y5164640D01*
X677319D01*
X719639Y5206959D01*
Y5376238D02*
Y5460877D01*
X677319Y5503197D01*
X592680D01*
X550360Y5460877D01*
Y5376238D01*
X592680Y5333918D01*
X677319D01*
X719639Y5376238D01*
Y5587836D02*
X550360D01*
Y5714795D01*
X592680Y5757115D01*
X719639D01*
Y5968713D02*
Y5884074D01*
X677319Y5841754D01*
X592680D01*
X550360Y5884074D01*
Y5968713D01*
X592680Y6011033D01*
X634999D01*
Y5841754D01*
X465721Y6349590D02*
X719639D01*
Y6476549D01*
X677319Y6518869D01*
X634999D01*
X592680D01*
X550360Y6476549D01*
Y6349590D01*
Y6603508D02*
X719639D01*
X634999D01*
X592680Y6645828D01*
X550360Y6688147D01*
Y6730467D01*
X719639Y6857426D02*
Y6942065D01*
Y6899746D01*
X550360D01*
Y6857426D01*
X465721Y7238303D02*
X719639D01*
Y7111344D01*
X677319Y7069024D01*
X592680D01*
X550360Y7111344D01*
Y7238303D01*
X804278Y7407582D02*
Y7449901D01*
X761959Y7492221D01*
X550360D01*
Y7365262D01*
X592680Y7322942D01*
X677319D01*
X719639Y7365262D01*
Y7492221D01*
Y7703819D02*
Y7619180D01*
X677319Y7576860D01*
X592680D01*
X550360Y7619180D01*
Y7703819D01*
X592680Y7746139D01*
X634999D01*
Y7576860D01*
X719639Y8084696D02*
X465721D01*
Y8211655D01*
X508041Y8253975D01*
X592680D01*
X634999Y8211655D01*
Y8084696D01*
X508041Y8507893D02*
X465721Y8465573D01*
Y8380934D01*
X508041Y8338614D01*
X677319D01*
X719639Y8380934D01*
Y8465573D01*
X677319Y8507893D01*
X465721Y8592532D02*
X719639D01*
Y8719491D01*
X677319Y8761811D01*
X634999D01*
X592680Y8719491D01*
Y8592532D01*
Y8719491D01*
X550360Y8761811D01*
X508041D01*
X465721Y8719491D01*
Y8592532D01*
X13123361Y10033000D02*
X13292639D01*
X7154361D02*
X7323639D01*
X1947361Y10041439D02*
X2116639D01*
X2032000Y10126079D02*
Y9956800D01*
X7916361Y10041439D02*
X8085639D01*
X8001000Y10126079D02*
Y9956800D01*
%TF.MD5,2568316d29362ce17ee170a4d13f1471*%
M02*
