%TF.GenerationSoftware,Altium Limited,Altium Designer,25.7.1 (20)*%
G04 Layer_Physical_Order=1*
G04 Layer_Color=255*
%FSLAX45Y45*%
%MOMM*%
%TF.SameCoordinates,C85018D4-D0C4-44B4-89D4-C4E6911D6D7A*%
%TF.FilePolarity,Positive*%
%TF.FileFunction,Copper,L1,Top,Signal*%
%TF.Part,Single*%
G01*
G75*
%TA.AperFunction,SMDPad,CuDef*%
%ADD10R,2.00620X0.95620*%
%ADD11R,1.70000X1.15000*%
%ADD12R,0.60000X1.25000*%
%ADD13R,4.00000X8.00000*%
%ADD14R,2.00415X1.70328*%
%TA.AperFunction,Conductor*%
%ADD15C,1.00000*%
%ADD16C,0.50000*%
%ADD17C,0.25400*%
%ADD18C,2.00000*%
%TA.AperFunction,ComponentPad*%
%ADD19R,2.10000X2.10000*%
%ADD20C,2.10000*%
%ADD21C,1.99500*%
%ADD22C,2.50000*%
%TA.AperFunction,ViaPad*%
%ADD23C,5.50000*%
%TA.AperFunction,ComponentPad*%
%ADD24R,2.50000X2.50000*%
%TA.AperFunction,ViaPad*%
%ADD25C,1.27000*%
G36*
X18948399Y7874000D02*
X21336000D01*
Y3505200D01*
X21234399Y3403600D01*
X1778000D01*
Y4064000D01*
X20574001D01*
Y7112000D01*
X20472400Y7213600D01*
X1778000D01*
Y7874000D01*
X14224001D01*
X15443201Y9093200D01*
Y9753600D01*
X17068800D01*
X18948399Y7874000D01*
D02*
G37*
%LPC*%
G36*
X17707008Y8751164D02*
X17446593D01*
Y8520836D01*
X17496111D01*
Y8429240D01*
X17489671Y8418090D01*
X17483299Y8394310D01*
Y8369690D01*
X17489671Y8345910D01*
X17501982Y8324590D01*
X17519389Y8307182D01*
X17540710Y8294872D01*
X17564490Y8288500D01*
X17589110D01*
X17612891Y8294872D01*
X17634210Y8307182D01*
X17651617Y8324590D01*
X17663928Y8345910D01*
X17670300Y8369690D01*
Y8394310D01*
X17663928Y8418090D01*
X17657491Y8429240D01*
Y8520836D01*
X17707008D01*
Y8751164D01*
D02*
G37*
G36*
X18427310Y7713500D02*
X18402690D01*
X18378909Y7707128D01*
X18357590Y7694818D01*
X18340182Y7677410D01*
X18327872Y7656090D01*
X18321500Y7632310D01*
Y7607690D01*
X18327872Y7583910D01*
X18340182Y7562590D01*
X18357590Y7545182D01*
X18358923Y7544412D01*
Y7443810D01*
X18284689D01*
Y7288190D01*
X18545309D01*
Y7443810D01*
X18471077D01*
Y7544412D01*
X18472411Y7545182D01*
X18489818Y7562590D01*
X18502129Y7583910D01*
X18508501Y7607690D01*
Y7632310D01*
X18502129Y7656090D01*
X18489818Y7677410D01*
X18472411Y7694818D01*
X18451089Y7707128D01*
X18427310Y7713500D01*
D02*
G37*
G36*
X16395309D02*
X16370689D01*
X16346910Y7707128D01*
X16325591Y7694818D01*
X16308182Y7677410D01*
X16295872Y7656090D01*
X16289500Y7632310D01*
Y7607690D01*
X16295872Y7583910D01*
X16308182Y7562590D01*
X16325591Y7545182D01*
X16326923Y7544412D01*
Y7443810D01*
X16252690D01*
Y7288190D01*
X16513310D01*
Y7443810D01*
X16439078D01*
Y7544412D01*
X16440410Y7545182D01*
X16457819Y7562590D01*
X16470128Y7583910D01*
X16476500Y7607690D01*
Y7632310D01*
X16470128Y7656090D01*
X16457819Y7677410D01*
X16440410Y7694818D01*
X16419090Y7707128D01*
X16395309Y7713500D01*
D02*
G37*
G36*
X13474310D02*
X13449690D01*
X13425909Y7707128D01*
X13404590Y7694818D01*
X13387183Y7677410D01*
X13374872Y7656090D01*
X13368500Y7632310D01*
Y7607690D01*
X13374872Y7583910D01*
X13387183Y7562590D01*
X13404590Y7545182D01*
X13405923Y7544412D01*
Y7443810D01*
X13331689D01*
Y7288190D01*
X13592310D01*
Y7443810D01*
X13518077D01*
Y7544412D01*
X13519411Y7545182D01*
X13536818Y7562590D01*
X13549129Y7583910D01*
X13555499Y7607690D01*
Y7632310D01*
X13549129Y7656090D01*
X13536818Y7677410D01*
X13519411Y7694818D01*
X13498090Y7707128D01*
X13474310Y7713500D01*
D02*
G37*
G36*
X11442310D02*
X11417690D01*
X11393910Y7707128D01*
X11372590Y7694818D01*
X11355182Y7677410D01*
X11342872Y7656090D01*
X11336500Y7632310D01*
Y7607690D01*
X11342872Y7583910D01*
X11355182Y7562590D01*
X11372590Y7545182D01*
X11373923Y7544412D01*
Y7443810D01*
X11299690D01*
Y7288190D01*
X11560310D01*
Y7443810D01*
X11486077D01*
Y7544412D01*
X11487410Y7545182D01*
X11504818Y7562590D01*
X11517128Y7583910D01*
X11523500Y7607690D01*
Y7632310D01*
X11517128Y7656090D01*
X11504818Y7677410D01*
X11487410Y7694818D01*
X11466090Y7707128D01*
X11442310Y7713500D01*
D02*
G37*
G36*
X8521310D02*
X8496690D01*
X8472910Y7707128D01*
X8451590Y7694818D01*
X8434182Y7677410D01*
X8421872Y7656090D01*
X8415500Y7632310D01*
Y7607690D01*
X8421872Y7583910D01*
X8434182Y7562590D01*
X8451590Y7545182D01*
X8452923Y7544412D01*
Y7443810D01*
X8378690D01*
Y7288190D01*
X8639310D01*
Y7443810D01*
X8565077D01*
Y7544412D01*
X8566410Y7545182D01*
X8583818Y7562590D01*
X8596128Y7583910D01*
X8602500Y7607690D01*
Y7632310D01*
X8596128Y7656090D01*
X8583818Y7677410D01*
X8566410Y7694818D01*
X8545090Y7707128D01*
X8521310Y7713500D01*
D02*
G37*
G36*
X6489310D02*
X6464690D01*
X6440910Y7707128D01*
X6419590Y7694818D01*
X6402182Y7677410D01*
X6389872Y7656090D01*
X6383500Y7632310D01*
Y7607690D01*
X6389872Y7583910D01*
X6402182Y7562590D01*
X6419590Y7545182D01*
X6420923Y7544412D01*
Y7443810D01*
X6346690D01*
Y7288190D01*
X6607310D01*
Y7443810D01*
X6533077D01*
Y7544412D01*
X6534410Y7545182D01*
X6551818Y7562590D01*
X6564128Y7583910D01*
X6570500Y7607690D01*
Y7632310D01*
X6564128Y7656090D01*
X6551818Y7677410D01*
X6534410Y7694818D01*
X6513090Y7707128D01*
X6489310Y7713500D01*
D02*
G37*
G36*
X3568310D02*
X3543690D01*
X3519910Y7707128D01*
X3498590Y7694818D01*
X3481182Y7677410D01*
X3468872Y7656090D01*
X3462500Y7632310D01*
Y7607690D01*
X3468872Y7583910D01*
X3481182Y7562590D01*
X3498590Y7545182D01*
X3499923Y7544412D01*
Y7443810D01*
X3425690D01*
Y7288190D01*
X3686310D01*
Y7443810D01*
X3612077D01*
Y7544412D01*
X3613410Y7545182D01*
X3630818Y7562590D01*
X3643128Y7583910D01*
X3649500Y7607690D01*
Y7632310D01*
X3643128Y7656090D01*
X3630818Y7677410D01*
X3613410Y7694818D01*
X3592090Y7707128D01*
X3568310Y7713500D01*
D02*
G37*
G36*
X18935310D02*
X18910690D01*
X18886909Y7707128D01*
X18865590Y7694818D01*
X18848183Y7677410D01*
X18835872Y7656090D01*
X18829500Y7632310D01*
Y7607690D01*
X18835872Y7583910D01*
X18848183Y7562590D01*
X18865590Y7545182D01*
X18866924Y7544412D01*
Y7456500D01*
X18863000D01*
Y7271500D01*
X18983000D01*
Y7456500D01*
X18979077D01*
Y7544412D01*
X18980409Y7545182D01*
X18997818Y7562590D01*
X19010127Y7583910D01*
X19016499Y7607690D01*
Y7632310D01*
X19010127Y7656090D01*
X18997818Y7677410D01*
X18980409Y7694818D01*
X18959090Y7707128D01*
X18935310Y7713500D01*
D02*
G37*
G36*
X16903310D02*
X16878690D01*
X16854910Y7707128D01*
X16833591Y7694818D01*
X16816182Y7677410D01*
X16803873Y7656090D01*
X16797501Y7632310D01*
Y7607690D01*
X16803873Y7583910D01*
X16816182Y7562590D01*
X16833591Y7545182D01*
X16834923Y7544412D01*
Y7456500D01*
X16831000D01*
Y7271500D01*
X16950999D01*
Y7456500D01*
X16947076D01*
Y7544412D01*
X16948410Y7545182D01*
X16965817Y7562590D01*
X16978128Y7583910D01*
X16984500Y7607690D01*
Y7632310D01*
X16978128Y7656090D01*
X16965817Y7677410D01*
X16948410Y7694818D01*
X16927090Y7707128D01*
X16903310Y7713500D01*
D02*
G37*
G36*
X13982310D02*
X13957690D01*
X13933910Y7707128D01*
X13912590Y7694818D01*
X13895181Y7677410D01*
X13882872Y7656090D01*
X13876500Y7632310D01*
Y7607690D01*
X13882872Y7583910D01*
X13895181Y7562590D01*
X13912590Y7545182D01*
X13913924Y7544412D01*
Y7456500D01*
X13910001D01*
Y7271500D01*
X14030000D01*
Y7456500D01*
X14026077D01*
Y7544412D01*
X14027409Y7545182D01*
X14044818Y7562590D01*
X14057127Y7583910D01*
X14063499Y7607690D01*
Y7632310D01*
X14057127Y7656090D01*
X14044818Y7677410D01*
X14027409Y7694818D01*
X14006090Y7707128D01*
X13982310Y7713500D01*
D02*
G37*
G36*
X11950310D02*
X11925690D01*
X11901910Y7707128D01*
X11880590Y7694818D01*
X11863182Y7677410D01*
X11850872Y7656090D01*
X11844500Y7632310D01*
Y7607690D01*
X11850872Y7583910D01*
X11863182Y7562590D01*
X11880590Y7545182D01*
X11881923Y7544412D01*
Y7456500D01*
X11878000D01*
Y7271500D01*
X11998000D01*
Y7456500D01*
X11994077D01*
Y7544412D01*
X11995410Y7545182D01*
X12012818Y7562590D01*
X12025128Y7583910D01*
X12031500Y7607690D01*
Y7632310D01*
X12025128Y7656090D01*
X12012818Y7677410D01*
X11995410Y7694818D01*
X11974090Y7707128D01*
X11950310Y7713500D01*
D02*
G37*
G36*
X9029310D02*
X9004690D01*
X8980910Y7707128D01*
X8959590Y7694818D01*
X8942182Y7677410D01*
X8929872Y7656090D01*
X8923500Y7632310D01*
Y7607690D01*
X8929872Y7583910D01*
X8942182Y7562590D01*
X8959590Y7545182D01*
X8960923Y7544412D01*
Y7456500D01*
X8957000D01*
Y7271500D01*
X9077000D01*
Y7456500D01*
X9073077D01*
Y7544412D01*
X9074410Y7545182D01*
X9091818Y7562590D01*
X9104128Y7583910D01*
X9110500Y7607690D01*
Y7632310D01*
X9104128Y7656090D01*
X9091818Y7677410D01*
X9074410Y7694818D01*
X9053090Y7707128D01*
X9029310Y7713500D01*
D02*
G37*
G36*
X6997310D02*
X6972690D01*
X6948910Y7707128D01*
X6927590Y7694818D01*
X6910182Y7677410D01*
X6897872Y7656090D01*
X6891500Y7632310D01*
Y7607690D01*
X6897872Y7583910D01*
X6910182Y7562590D01*
X6927590Y7545182D01*
X6928923Y7544412D01*
Y7456500D01*
X6925000D01*
Y7271500D01*
X7045000D01*
Y7456500D01*
X7041077D01*
Y7544412D01*
X7042410Y7545182D01*
X7059818Y7562590D01*
X7072128Y7583910D01*
X7078500Y7607690D01*
Y7632310D01*
X7072128Y7656090D01*
X7059818Y7677410D01*
X7042410Y7694818D01*
X7021090Y7707128D01*
X6997310Y7713500D01*
D02*
G37*
G36*
X4076310D02*
X4051690D01*
X4027910Y7707128D01*
X4006590Y7694818D01*
X3989182Y7677410D01*
X3976872Y7656090D01*
X3970500Y7632310D01*
Y7607690D01*
X3976872Y7583910D01*
X3989182Y7562590D01*
X4006590Y7545182D01*
X4007923Y7544412D01*
Y7456500D01*
X4004000D01*
Y7271500D01*
X4124000D01*
Y7456500D01*
X4120077D01*
Y7544412D01*
X4121410Y7545182D01*
X4138818Y7562590D01*
X4151128Y7583910D01*
X4157500Y7607690D01*
Y7632310D01*
X4151128Y7656090D01*
X4138818Y7677410D01*
X4121410Y7694818D01*
X4100090Y7707128D01*
X4076310Y7713500D01*
D02*
G37*
G36*
X2044310D02*
X2019690D01*
X1995910Y7707128D01*
X1974590Y7694818D01*
X1957182Y7677410D01*
X1944872Y7656090D01*
X1938500Y7632310D01*
Y7607690D01*
X1944872Y7583910D01*
X1957182Y7562590D01*
X1974590Y7545182D01*
X1975923Y7544412D01*
Y7456500D01*
X1972000D01*
Y7271500D01*
X2092000D01*
Y7456500D01*
X2088077D01*
Y7544412D01*
X2089410Y7545182D01*
X2106818Y7562590D01*
X2119128Y7583910D01*
X2125500Y7607690D01*
Y7632310D01*
X2119128Y7656090D01*
X2106818Y7677410D01*
X2089410Y7694818D01*
X2068090Y7707128D01*
X2044310Y7713500D01*
D02*
G37*
G36*
X18427310Y3903500D02*
X18402690D01*
X18378909Y3897128D01*
X18357590Y3884818D01*
X18340182Y3867410D01*
X18327872Y3846090D01*
X18321500Y3822310D01*
Y3797690D01*
X18327872Y3773910D01*
X18340182Y3752590D01*
X18357590Y3735182D01*
X18358923Y3734412D01*
Y3633810D01*
X18284689D01*
Y3478190D01*
X18545309D01*
Y3633810D01*
X18471077D01*
Y3734412D01*
X18472411Y3735182D01*
X18489818Y3752590D01*
X18502129Y3773910D01*
X18508501Y3797690D01*
Y3822310D01*
X18502129Y3846090D01*
X18489818Y3867410D01*
X18472411Y3884818D01*
X18451089Y3897128D01*
X18427310Y3903500D01*
D02*
G37*
G36*
X16395309D02*
X16370689D01*
X16346910Y3897128D01*
X16325591Y3884818D01*
X16308182Y3867410D01*
X16295872Y3846090D01*
X16289500Y3822310D01*
Y3797690D01*
X16295872Y3773910D01*
X16308182Y3752590D01*
X16325591Y3735182D01*
X16326923Y3734412D01*
Y3633810D01*
X16252690D01*
Y3478190D01*
X16513310D01*
Y3633810D01*
X16439078D01*
Y3734412D01*
X16440410Y3735182D01*
X16457819Y3752590D01*
X16470128Y3773910D01*
X16476500Y3797690D01*
Y3822310D01*
X16470128Y3846090D01*
X16457819Y3867410D01*
X16440410Y3884818D01*
X16419090Y3897128D01*
X16395309Y3903500D01*
D02*
G37*
G36*
X13474310D02*
X13449690D01*
X13425909Y3897128D01*
X13404590Y3884818D01*
X13387183Y3867410D01*
X13374872Y3846090D01*
X13368500Y3822310D01*
Y3797690D01*
X13374872Y3773910D01*
X13387183Y3752590D01*
X13404590Y3735182D01*
X13405923Y3734412D01*
Y3633810D01*
X13331689D01*
Y3478190D01*
X13592310D01*
Y3633810D01*
X13518077D01*
Y3734412D01*
X13519411Y3735182D01*
X13536818Y3752590D01*
X13549129Y3773910D01*
X13555499Y3797690D01*
Y3822310D01*
X13549129Y3846090D01*
X13536818Y3867410D01*
X13519411Y3884818D01*
X13498090Y3897128D01*
X13474310Y3903500D01*
D02*
G37*
G36*
X11442310D02*
X11417690D01*
X11393910Y3897128D01*
X11372590Y3884818D01*
X11355182Y3867410D01*
X11342872Y3846090D01*
X11336500Y3822310D01*
Y3797690D01*
X11342872Y3773910D01*
X11355182Y3752590D01*
X11372590Y3735182D01*
X11373923Y3734412D01*
Y3633810D01*
X11299690D01*
Y3478190D01*
X11560310D01*
Y3633810D01*
X11486077D01*
Y3734412D01*
X11487410Y3735182D01*
X11504818Y3752590D01*
X11517128Y3773910D01*
X11523500Y3797690D01*
Y3822310D01*
X11517128Y3846090D01*
X11504818Y3867410D01*
X11487410Y3884818D01*
X11466090Y3897128D01*
X11442310Y3903500D01*
D02*
G37*
G36*
X8521310D02*
X8496690D01*
X8472910Y3897128D01*
X8451590Y3884818D01*
X8434182Y3867410D01*
X8421872Y3846090D01*
X8415500Y3822310D01*
Y3797690D01*
X8421872Y3773910D01*
X8434182Y3752590D01*
X8451590Y3735182D01*
X8452923Y3734412D01*
Y3633810D01*
X8378690D01*
Y3478190D01*
X8639310D01*
Y3633810D01*
X8565077D01*
Y3734412D01*
X8566410Y3735182D01*
X8583818Y3752590D01*
X8596128Y3773910D01*
X8602500Y3797690D01*
Y3822310D01*
X8596128Y3846090D01*
X8583818Y3867410D01*
X8566410Y3884818D01*
X8545090Y3897128D01*
X8521310Y3903500D01*
D02*
G37*
G36*
X6489310D02*
X6464690D01*
X6440910Y3897128D01*
X6419590Y3884818D01*
X6402182Y3867410D01*
X6389872Y3846090D01*
X6383500Y3822310D01*
Y3797690D01*
X6389872Y3773910D01*
X6402182Y3752590D01*
X6419590Y3735182D01*
X6420923Y3734412D01*
Y3633810D01*
X6346690D01*
Y3478190D01*
X6607310D01*
Y3633810D01*
X6533077D01*
Y3734412D01*
X6534410Y3735182D01*
X6551818Y3752590D01*
X6564128Y3773910D01*
X6570500Y3797690D01*
Y3822310D01*
X6564128Y3846090D01*
X6551818Y3867410D01*
X6534410Y3884818D01*
X6513090Y3897128D01*
X6489310Y3903500D01*
D02*
G37*
G36*
X3568310D02*
X3543690D01*
X3519910Y3897128D01*
X3498590Y3884818D01*
X3481182Y3867410D01*
X3468872Y3846090D01*
X3462500Y3822310D01*
Y3797690D01*
X3468872Y3773910D01*
X3481182Y3752590D01*
X3498590Y3735182D01*
X3499923Y3734412D01*
Y3633810D01*
X3425690D01*
Y3478190D01*
X3686310D01*
Y3633810D01*
X3612077D01*
Y3734412D01*
X3613410Y3735182D01*
X3630818Y3752590D01*
X3643128Y3773910D01*
X3649500Y3797690D01*
Y3822310D01*
X3643128Y3846090D01*
X3630818Y3867410D01*
X3613410Y3884818D01*
X3592090Y3897128D01*
X3568310Y3903500D01*
D02*
G37*
G36*
X18935310D02*
X18910690D01*
X18886909Y3897128D01*
X18865590Y3884818D01*
X18848183Y3867410D01*
X18835872Y3846090D01*
X18829500Y3822310D01*
Y3797690D01*
X18835872Y3773910D01*
X18848183Y3752590D01*
X18865590Y3735182D01*
X18866924Y3734412D01*
Y3646500D01*
X18863000D01*
Y3461500D01*
X18983000D01*
Y3646500D01*
X18979077D01*
Y3734412D01*
X18980409Y3735182D01*
X18997818Y3752590D01*
X19010127Y3773910D01*
X19016499Y3797690D01*
Y3822310D01*
X19010127Y3846090D01*
X18997818Y3867410D01*
X18980409Y3884818D01*
X18959090Y3897128D01*
X18935310Y3903500D01*
D02*
G37*
G36*
X16903310D02*
X16878690D01*
X16854910Y3897128D01*
X16833591Y3884818D01*
X16816182Y3867410D01*
X16803873Y3846090D01*
X16797501Y3822310D01*
Y3797690D01*
X16803873Y3773910D01*
X16816182Y3752590D01*
X16833591Y3735182D01*
X16834923Y3734412D01*
Y3646500D01*
X16831000D01*
Y3461500D01*
X16950999D01*
Y3646500D01*
X16947076D01*
Y3734412D01*
X16948410Y3735182D01*
X16965817Y3752590D01*
X16978128Y3773910D01*
X16984500Y3797690D01*
Y3822310D01*
X16978128Y3846090D01*
X16965817Y3867410D01*
X16948410Y3884818D01*
X16927090Y3897128D01*
X16903310Y3903500D01*
D02*
G37*
G36*
X13982310D02*
X13957690D01*
X13933910Y3897128D01*
X13912590Y3884818D01*
X13895181Y3867410D01*
X13882872Y3846090D01*
X13876500Y3822310D01*
Y3797690D01*
X13882872Y3773910D01*
X13895181Y3752590D01*
X13912590Y3735182D01*
X13913924Y3734412D01*
Y3646500D01*
X13910001D01*
Y3461500D01*
X14030000D01*
Y3646500D01*
X14026077D01*
Y3734412D01*
X14027409Y3735182D01*
X14044818Y3752590D01*
X14057127Y3773910D01*
X14063499Y3797690D01*
Y3822310D01*
X14057127Y3846090D01*
X14044818Y3867410D01*
X14027409Y3884818D01*
X14006090Y3897128D01*
X13982310Y3903500D01*
D02*
G37*
G36*
X11950310D02*
X11925690D01*
X11901910Y3897128D01*
X11880590Y3884818D01*
X11863182Y3867410D01*
X11850872Y3846090D01*
X11844500Y3822310D01*
Y3797690D01*
X11850872Y3773910D01*
X11863182Y3752590D01*
X11880590Y3735182D01*
X11881923Y3734412D01*
Y3646500D01*
X11878000D01*
Y3461500D01*
X11998000D01*
Y3646500D01*
X11994077D01*
Y3734412D01*
X11995410Y3735182D01*
X12012818Y3752590D01*
X12025128Y3773910D01*
X12031500Y3797690D01*
Y3822310D01*
X12025128Y3846090D01*
X12012818Y3867410D01*
X11995410Y3884818D01*
X11974090Y3897128D01*
X11950310Y3903500D01*
D02*
G37*
G36*
X9029310D02*
X9004690D01*
X8980910Y3897128D01*
X8959590Y3884818D01*
X8942182Y3867410D01*
X8929872Y3846090D01*
X8923500Y3822310D01*
Y3797690D01*
X8929872Y3773910D01*
X8942182Y3752590D01*
X8959590Y3735182D01*
X8960923Y3734412D01*
Y3646500D01*
X8957000D01*
Y3461500D01*
X9077000D01*
Y3646500D01*
X9073077D01*
Y3734412D01*
X9074410Y3735182D01*
X9091818Y3752590D01*
X9104128Y3773910D01*
X9110500Y3797690D01*
Y3822310D01*
X9104128Y3846090D01*
X9091818Y3867410D01*
X9074410Y3884818D01*
X9053090Y3897128D01*
X9029310Y3903500D01*
D02*
G37*
G36*
X6997310D02*
X6972690D01*
X6948910Y3897128D01*
X6927590Y3884818D01*
X6910182Y3867410D01*
X6897872Y3846090D01*
X6891500Y3822310D01*
Y3797690D01*
X6897872Y3773910D01*
X6910182Y3752590D01*
X6927590Y3735182D01*
X6928923Y3734412D01*
Y3646500D01*
X6925000D01*
Y3461500D01*
X7045000D01*
Y3646500D01*
X7041077D01*
Y3734412D01*
X7042410Y3735182D01*
X7059818Y3752590D01*
X7072128Y3773910D01*
X7078500Y3797690D01*
Y3822310D01*
X7072128Y3846090D01*
X7059818Y3867410D01*
X7042410Y3884818D01*
X7021090Y3897128D01*
X6997310Y3903500D01*
D02*
G37*
G36*
X4076310D02*
X4051690D01*
X4027910Y3897128D01*
X4006590Y3884818D01*
X3989182Y3867410D01*
X3976872Y3846090D01*
X3970500Y3822310D01*
Y3797690D01*
X3976872Y3773910D01*
X3989182Y3752590D01*
X4006590Y3735182D01*
X4007923Y3734412D01*
Y3646500D01*
X4004000D01*
Y3461500D01*
X4124000D01*
Y3646500D01*
X4120077D01*
Y3734412D01*
X4121410Y3735182D01*
X4138818Y3752590D01*
X4151128Y3773910D01*
X4157500Y3797690D01*
Y3822310D01*
X4151128Y3846090D01*
X4138818Y3867410D01*
X4121410Y3884818D01*
X4100090Y3897128D01*
X4076310Y3903500D01*
D02*
G37*
G36*
X2044310D02*
X2019690D01*
X1995910Y3897128D01*
X1974590Y3884818D01*
X1957182Y3867410D01*
X1944872Y3846090D01*
X1938500Y3822310D01*
Y3797690D01*
X1944872Y3773910D01*
X1957182Y3752590D01*
X1974590Y3735182D01*
X1975923Y3734412D01*
Y3646500D01*
X1972000D01*
Y3461500D01*
X2092000D01*
Y3646500D01*
X2088077D01*
Y3734412D01*
X2089410Y3735182D01*
X2106818Y3752590D01*
X2119128Y3773910D01*
X2125500Y3797690D01*
Y3822310D01*
X2119128Y3846090D01*
X2106818Y3867410D01*
X2089410Y3884818D01*
X2068090Y3897128D01*
X2044310Y3903500D01*
D02*
G37*
%LPD*%
D10*
X8509000Y3191000D02*
D03*
Y3556000D02*
D03*
X6477000Y3191000D02*
D03*
Y3556000D02*
D03*
X8509000Y7366000D02*
D03*
X18414999D02*
D03*
X6477000D02*
D03*
X16383000D02*
D03*
X18414999Y3556000D02*
D03*
X3556000Y7366000D02*
D03*
X1524000D02*
D03*
X13462000Y3556000D02*
D03*
X11430000D02*
D03*
X16383000D02*
D03*
X13462000Y7366000D02*
D03*
X11430000D02*
D03*
X3556000Y3556000D02*
D03*
X1524000D02*
D03*
X13462000Y7001000D02*
D03*
X11430000D02*
D03*
X13462000Y3191000D02*
D03*
X11430000D02*
D03*
X18414999D02*
D03*
X16383000D02*
D03*
X3556000Y7001000D02*
D03*
X1524000D02*
D03*
X8509000D02*
D03*
X6477000D02*
D03*
X18414999D02*
D03*
X16383000D02*
D03*
X3556000Y3191000D02*
D03*
X1524000D02*
D03*
D11*
X7493000Y2852500D02*
D03*
Y2537500D02*
D03*
X9525000Y2852500D02*
D03*
Y2537500D02*
D03*
X6985000Y2537500D02*
D03*
Y2852500D02*
D03*
X6477000Y2537500D02*
D03*
Y2852500D02*
D03*
X9017000Y2537500D02*
D03*
Y2852500D02*
D03*
X8509000Y2537500D02*
D03*
Y2852500D02*
D03*
X4572000Y6662500D02*
D03*
X9525000D02*
D03*
X19431000D02*
D03*
X17399001D02*
D03*
X7493000D02*
D03*
X14478000D02*
D03*
X19431000Y2852500D02*
D03*
X2540000Y6662500D02*
D03*
X14478000Y2852500D02*
D03*
X12446000D02*
D03*
X17399001D02*
D03*
X12446000Y6662500D02*
D03*
X4572000Y2852500D02*
D03*
X2540000D02*
D03*
X12446000Y6347500D02*
D03*
X14478000D02*
D03*
X11938000Y6662500D02*
D03*
Y6347500D02*
D03*
X11430000Y6662500D02*
D03*
Y6347500D02*
D03*
X13970000Y6662500D02*
D03*
Y6347500D02*
D03*
X13462000Y6662500D02*
D03*
Y6347500D02*
D03*
X12446000Y2537500D02*
D03*
X14478000D02*
D03*
X11938000Y2852500D02*
D03*
Y2537500D02*
D03*
X11430000Y2852500D02*
D03*
Y2537500D02*
D03*
X13970000Y2852500D02*
D03*
Y2537500D02*
D03*
X13462000Y2852500D02*
D03*
Y2537500D02*
D03*
X17399001Y2537500D02*
D03*
X19431000D02*
D03*
X16891000Y2852500D02*
D03*
Y2537500D02*
D03*
X16383000Y2852500D02*
D03*
Y2537500D02*
D03*
X18923000Y2852500D02*
D03*
Y2537500D02*
D03*
X18414999Y2852500D02*
D03*
Y2537500D02*
D03*
X2540000Y6347500D02*
D03*
X4572000D02*
D03*
X2032000Y6662500D02*
D03*
Y6347500D02*
D03*
X1524000Y6662500D02*
D03*
Y6347500D02*
D03*
X4064000Y6662500D02*
D03*
Y6347500D02*
D03*
X3556000Y6662500D02*
D03*
Y6347500D02*
D03*
X7493000Y6347500D02*
D03*
X9525000D02*
D03*
X6985000Y6662500D02*
D03*
Y6347500D02*
D03*
X6477000Y6662500D02*
D03*
Y6347500D02*
D03*
X9017000Y6662500D02*
D03*
Y6347500D02*
D03*
X8509000Y6662500D02*
D03*
Y6347500D02*
D03*
X17399001Y6347500D02*
D03*
X19431000D02*
D03*
X16891000Y6662500D02*
D03*
Y6347500D02*
D03*
X16383000Y6662500D02*
D03*
Y6347500D02*
D03*
X18923000Y6662500D02*
D03*
Y6347500D02*
D03*
X18414999Y6662500D02*
D03*
Y6347500D02*
D03*
X2540000Y2537500D02*
D03*
X4572000D02*
D03*
X2032000Y2852500D02*
D03*
Y2537500D02*
D03*
X1524000Y2852500D02*
D03*
Y2537500D02*
D03*
X4064000Y2852500D02*
D03*
Y2537500D02*
D03*
X3556000Y2852500D02*
D03*
Y2537500D02*
D03*
D12*
X7080000Y3554000D02*
D03*
X6890000D02*
D03*
X6985000D02*
D03*
X6890000Y3304000D02*
D03*
X7080000D02*
D03*
X9112000Y3554000D02*
D03*
X8922000D02*
D03*
X9017000D02*
D03*
X8922000Y3304000D02*
D03*
X9112000D02*
D03*
X4064000Y7364000D02*
D03*
X9017000D02*
D03*
X18923000D02*
D03*
X6985000D02*
D03*
X16891000D02*
D03*
X13970000D02*
D03*
X18923000Y3554000D02*
D03*
X2032000Y7364000D02*
D03*
X13970000Y3554000D02*
D03*
X11938000D02*
D03*
X16891000D02*
D03*
X11938000Y7364000D02*
D03*
X4064000Y3554000D02*
D03*
X2032000D02*
D03*
X4159000Y7364000D02*
D03*
X3969000D02*
D03*
X6890000D02*
D03*
X9112000D02*
D03*
X18828000D02*
D03*
X8922000D02*
D03*
X16986000D02*
D03*
X19017999D02*
D03*
X16796001D02*
D03*
X7080000D02*
D03*
X14064999D02*
D03*
X13875000D02*
D03*
X18828000Y3554000D02*
D03*
X19017999D02*
D03*
X16796001D02*
D03*
X16986000D02*
D03*
X13875000D02*
D03*
X14064999D02*
D03*
X11843000D02*
D03*
X12033000D02*
D03*
X2127000Y7364000D02*
D03*
X1937000D02*
D03*
X12033000D02*
D03*
X11843000D02*
D03*
X1937000Y3554000D02*
D03*
X3969000D02*
D03*
X4159000D02*
D03*
X2127000D02*
D03*
X12033000Y7114000D02*
D03*
X11843000D02*
D03*
X14064999D02*
D03*
X13875000D02*
D03*
X12033000Y3304000D02*
D03*
X11843000D02*
D03*
X14064999D02*
D03*
X13875000D02*
D03*
X16986000D02*
D03*
X16796001D02*
D03*
X19017999D02*
D03*
X18828000D02*
D03*
X2127000Y7114000D02*
D03*
X1937000D02*
D03*
X4159000D02*
D03*
X3969000D02*
D03*
X7080000D02*
D03*
X6890000D02*
D03*
X9112000D02*
D03*
X8922000D02*
D03*
X16986000D02*
D03*
X16796001D02*
D03*
X19017999D02*
D03*
X18828000D02*
D03*
X2127000Y3304000D02*
D03*
X1937000D02*
D03*
X4159000D02*
D03*
X3969000D02*
D03*
D13*
X19685001Y9652000D02*
D03*
X19050000D02*
D03*
X18414999D02*
D03*
D14*
X17576801Y8636000D02*
D03*
Y8926087D02*
D03*
D15*
X18414999Y8795706D02*
Y9652000D01*
X19050000Y8775700D02*
Y9652000D01*
X18402299Y8775700D02*
Y8783006D01*
X19685001Y8763000D02*
Y9652000D01*
X18402299Y8783006D02*
X18414999Y8795706D01*
X13462000Y5334000D02*
Y6350000D01*
X14064999Y6727500D02*
Y7114000D01*
X13956281Y6660000D02*
X13961920Y6665639D01*
X13997501Y6660000D02*
X14064999Y6727500D01*
X13462000Y6660000D02*
X13956281D01*
X11430000Y5334000D02*
Y6350000D01*
X12033000Y6727500D02*
Y7114000D01*
X11965500Y6660000D02*
X12033000Y6727500D01*
X11430000Y6660000D02*
X11938000D01*
X13970000Y6350000D02*
X14478000D01*
X11938000D02*
X12446000D01*
X11430000Y6660000D02*
Y7001000D01*
X13462000Y6660000D02*
Y7001000D01*
X3556000Y5334000D02*
Y6350000D01*
X4159000Y6727500D02*
Y7114000D01*
X4050281Y6660000D02*
X4055920Y6665639D01*
X4091500Y6660000D02*
X4159000Y6727500D01*
X3556000Y6660000D02*
X4050281D01*
X1524000Y5334000D02*
Y6350000D01*
X2127000Y6727500D02*
Y7114000D01*
X2059500Y6660000D02*
X2127000Y6727500D01*
X1524000Y6660000D02*
X2032000D01*
X4064000Y6350000D02*
X4572000D01*
X1524000Y6660000D02*
Y7001000D01*
X3556000Y6660000D02*
Y7001000D01*
X2032000Y6350000D02*
X2540000D01*
X8509000Y5334000D02*
Y6350000D01*
X9112000Y6727500D02*
Y7114000D01*
X9003281Y6660000D02*
X9008920Y6665639D01*
X9044500Y6660000D02*
X9112000Y6727500D01*
X8509000Y6660000D02*
X9003281D01*
X6477000Y5334000D02*
Y6350000D01*
X7080000Y6727500D02*
Y7114000D01*
X7012500Y6660000D02*
X7080000Y6727500D01*
X6477000Y6660000D02*
X6985000D01*
X9017000Y6350000D02*
X9525000D01*
X6477000Y6660000D02*
Y7001000D01*
X8509000Y6660000D02*
Y7001000D01*
X6985000Y6350000D02*
X7493000D01*
X18414999Y5334000D02*
Y6350000D01*
X19017999Y6727500D02*
Y7114000D01*
X18909280Y6660000D02*
X18914920Y6665639D01*
X18950500Y6660000D02*
X19017999Y6727500D01*
X18414999Y6660000D02*
X18909280D01*
X16383000Y5334000D02*
Y6350000D01*
X16986000Y6727500D02*
Y7114000D01*
X16918500Y6660000D02*
X16986000Y6727500D01*
X16383000Y6660000D02*
X16891000D01*
X18923000Y6350000D02*
X19431000D01*
X16383000Y6660000D02*
Y7001000D01*
X18414999Y6660000D02*
Y7001000D01*
X16891000Y6350000D02*
X17399001D01*
X18414999Y1524000D02*
Y2540000D01*
X19017999Y2917500D02*
Y3304000D01*
X18909280Y2850000D02*
X18914920Y2855639D01*
X18950500Y2850000D02*
X19017999Y2917500D01*
X18414999Y2850000D02*
X18909280D01*
X16383000Y1524000D02*
Y2540000D01*
X16986000Y2917500D02*
Y3304000D01*
X16918500Y2850000D02*
X16986000Y2917500D01*
X16383000Y2850000D02*
X16891000D01*
X18923000Y2540000D02*
X19431000D01*
X16383000Y2850000D02*
Y3191000D01*
X18414999Y2850000D02*
Y3191000D01*
X16891000Y2540000D02*
X17399001D01*
X13462000Y1524000D02*
Y2540000D01*
X14064999Y2917500D02*
Y3304000D01*
X13956281Y2850000D02*
X13961920Y2855639D01*
X13997501Y2850000D02*
X14064999Y2917500D01*
X13462000Y2850000D02*
X13956281D01*
X11430000Y1524000D02*
Y2540000D01*
X12033000Y2917500D02*
Y3304000D01*
X11965500Y2850000D02*
X12033000Y2917500D01*
X11430000Y2850000D02*
X11938000D01*
X13970000Y2540000D02*
X14478000D01*
X11430000Y2850000D02*
Y3191000D01*
X13462000Y2850000D02*
Y3191000D01*
X11938000Y2540000D02*
X12446000D01*
X8509000Y1524000D02*
Y2540000D01*
X9112000Y2917500D02*
Y3304000D01*
X9003281Y2850000D02*
X9008920Y2855639D01*
X9044500Y2850000D02*
X9112000Y2917500D01*
X8509000Y2850000D02*
X9003281D01*
X6477000Y1524000D02*
Y2540000D01*
X7080000Y2917500D02*
Y3304000D01*
X7012500Y2850000D02*
X7080000Y2917500D01*
X6477000Y2850000D02*
X6985000D01*
X9017000Y2540000D02*
X9525000D01*
X6477000Y2850000D02*
Y3191000D01*
X8509000Y2850000D02*
Y3191000D01*
X6985000Y2540000D02*
X7493000D01*
X17576801Y8382000D02*
Y8636000D01*
X4064000Y2540000D02*
X4572000D01*
X3556000Y2850000D02*
Y3191000D01*
Y2850000D02*
X4050281D01*
X4091500D02*
X4159000Y2917500D01*
X4050281Y2850000D02*
X4055920Y2855639D01*
X4159000Y2917500D02*
Y3304000D01*
X1524000Y2850000D02*
Y3191000D01*
Y2850000D02*
X2032000D01*
X2059500D02*
X2127000Y2917500D01*
Y3304000D01*
X2032000Y2540000D02*
X2540000D01*
X3556000Y1524000D02*
Y2540000D01*
X1524000Y1524000D02*
Y2540000D01*
D16*
X13970000Y7364000D02*
Y7620000D01*
X11938000Y7364000D02*
Y7620000D01*
X14478000Y6660000D02*
Y6908800D01*
X12446000Y6660000D02*
Y6908800D01*
X11430000Y7366000D02*
Y7620000D01*
X13462000Y7366000D02*
Y7620000D01*
X4064000Y7364000D02*
Y7620000D01*
X2032000Y7364000D02*
Y7620000D01*
X4572000Y6660000D02*
Y6908800D01*
X1524000Y7366000D02*
Y7620000D01*
X3556000Y7366000D02*
Y7620000D01*
X2540000Y6660000D02*
Y6908800D01*
X9017000Y7364000D02*
Y7620000D01*
X6985000Y7364000D02*
Y7620000D01*
X9525000Y6660000D02*
Y6908800D01*
X6477000Y7366000D02*
Y7620000D01*
X8509000Y7366000D02*
Y7620000D01*
X7493000Y6660000D02*
Y6908800D01*
X18923000Y7364000D02*
Y7620000D01*
X16891000Y7364000D02*
Y7620000D01*
X19431000Y6660000D02*
Y6908800D01*
X16383000Y7366000D02*
Y7620000D01*
X18414999Y7366000D02*
Y7620000D01*
X17399001Y6660000D02*
Y6908800D01*
X18923000Y3554000D02*
Y3810000D01*
X16891000Y3554000D02*
Y3810000D01*
X19431000Y2850000D02*
Y3098800D01*
X16383000Y3556000D02*
Y3810000D01*
X18414999Y3556000D02*
Y3810000D01*
X17399001Y2850000D02*
Y3098800D01*
X13970000Y3554000D02*
Y3810000D01*
X11938000Y3554000D02*
Y3810000D01*
X14478000Y2850000D02*
Y3098800D01*
X11430000Y3556000D02*
Y3810000D01*
X13462000Y3556000D02*
Y3810000D01*
X12446000Y2850000D02*
Y3098800D01*
X9017000Y3554000D02*
Y3810000D01*
X6985000Y3554000D02*
Y3810000D01*
X9525000Y2850000D02*
Y3098800D01*
X6477000Y3556000D02*
Y3810000D01*
X8509000Y3556000D02*
Y3810000D01*
X7493000Y2850000D02*
Y3098800D01*
X4064000Y3554000D02*
Y3810000D01*
X3556000Y3556000D02*
Y3810000D01*
X4572000Y2850000D02*
Y3098800D01*
X2032000Y3554000D02*
Y3810000D01*
X1524000Y3556000D02*
Y3810000D01*
X2540000Y2850000D02*
Y3098800D01*
D17*
X13462000Y5334000D02*
X13665199Y5130800D01*
X14274800D02*
X14478000Y5334000D01*
X13665199Y5130800D02*
X14274800D01*
X11430000Y5334000D02*
X11684000Y5080000D01*
X12192000D02*
X12446000Y5334000D01*
X11684000Y5080000D02*
X12192000D01*
X14478000Y6096000D02*
X14986000Y5588000D01*
X14478000Y6096000D02*
Y6350000D01*
X14986000Y5334000D02*
Y5588000D01*
X12446000Y6096000D02*
X12953999Y5588000D01*
X12446000Y6096000D02*
Y6350000D01*
X12953999Y5334000D02*
Y5588000D01*
X3556000Y5334000D02*
X3759200Y5130800D01*
X4368800D02*
X4572000Y5334000D01*
X3759200Y5130800D02*
X4368800D01*
X1524000Y5334000D02*
X1778000Y5080000D01*
X2286000D02*
X2540000Y5334000D01*
X1778000Y5080000D02*
X2286000D01*
X4572000Y6096000D02*
X5080000Y5588000D01*
X4572000Y6096000D02*
Y6350000D01*
X5080000Y5334000D02*
Y5588000D01*
X2540000Y6096000D02*
X3048000Y5588000D01*
X2540000Y6096000D02*
Y6350000D01*
X3048000Y5334000D02*
Y5588000D01*
X8509000Y5334000D02*
X8712200Y5130800D01*
X9321800D02*
X9525000Y5334000D01*
X8712200Y5130800D02*
X9321800D01*
X6477000Y5334000D02*
X6731000Y5080000D01*
X7239000D02*
X7493000Y5334000D01*
X6731000Y5080000D02*
X7239000D01*
X9525000Y6096000D02*
X10033000Y5588000D01*
X9525000Y6096000D02*
Y6350000D01*
X10033000Y5334000D02*
Y5588000D01*
X7493000Y6096000D02*
X8001000Y5588000D01*
X7493000Y6096000D02*
Y6350000D01*
X8001000Y5334000D02*
Y5588000D01*
X18414999Y5334000D02*
X18618201Y5130800D01*
X19227800D02*
X19431000Y5334000D01*
X18618201Y5130800D02*
X19227800D01*
X16383000Y5334000D02*
X16637000Y5080000D01*
X17145000D02*
X17399001Y5334000D01*
X16637000Y5080000D02*
X17145000D01*
X19431000Y6096000D02*
X19939000Y5588000D01*
X19431000Y6096000D02*
Y6350000D01*
X19939000Y5334000D02*
Y5588000D01*
X17399001Y6096000D02*
X17907001Y5588000D01*
X17399001Y6096000D02*
Y6350000D01*
X17907001Y5334000D02*
Y5588000D01*
X18414999Y1524000D02*
X18618201Y1320800D01*
X19227800D02*
X19431000Y1524000D01*
X18618201Y1320800D02*
X19227800D01*
X16383000Y1524000D02*
X16637000Y1270000D01*
X17145000D02*
X17399001Y1524000D01*
X16637000Y1270000D02*
X17145000D01*
X19431000Y2286000D02*
X19939000Y1778000D01*
X19431000Y2286000D02*
Y2540000D01*
X19939000Y1524000D02*
Y1778000D01*
X17399001Y2286000D02*
X17907001Y1778000D01*
X17399001Y2286000D02*
Y2540000D01*
X17907001Y1524000D02*
Y1778000D01*
X13462000Y1524000D02*
X13665199Y1320800D01*
X14274800D02*
X14478000Y1524000D01*
X13665199Y1320800D02*
X14274800D01*
X11430000Y1524000D02*
X11684000Y1270000D01*
X12192000D02*
X12446000Y1524000D01*
X11684000Y1270000D02*
X12192000D01*
X14478000Y2286000D02*
X14986000Y1778000D01*
X14478000Y2286000D02*
Y2540000D01*
X14986000Y1524000D02*
Y1778000D01*
X12446000Y2286000D02*
X12953999Y1778000D01*
X12446000Y2286000D02*
Y2540000D01*
X12953999Y1524000D02*
Y1778000D01*
X8509000Y1524000D02*
X8712200Y1320800D01*
X9321800D02*
X9525000Y1524000D01*
X8712200Y1320800D02*
X9321800D01*
X6477000Y1524000D02*
X6731000Y1270000D01*
X7239000D02*
X7493000Y1524000D01*
X6731000Y1270000D02*
X7239000D01*
X9525000Y2286000D02*
X10033000Y1778000D01*
X9525000Y2286000D02*
Y2540000D01*
X10033000Y1524000D02*
Y1778000D01*
X7493000Y2286000D02*
X8001000Y1778000D01*
X7493000Y2286000D02*
Y2540000D01*
X8001000Y1524000D02*
Y1778000D01*
X5080000Y1524000D02*
Y1778000D01*
X4572000Y2286000D02*
Y2540000D01*
X3048000Y1524000D02*
Y1778000D01*
X2540000Y2286000D02*
Y2540000D01*
Y2286000D02*
X3048000Y1778000D01*
X4572000Y2286000D02*
X5080000Y1778000D01*
X3759200Y1320800D02*
X4368800D01*
X3556000Y1524000D02*
X3759200Y1320800D01*
X4368800D02*
X4572000Y1524000D01*
X1778000Y1270000D02*
X2286000D01*
X2540000Y1524000D01*
X1524000D02*
X1778000Y1270000D01*
D18*
X8382000Y9398000D02*
X15237199D01*
X2032000Y9017000D02*
X2057400D01*
X2443292Y9402892D01*
X8382000D01*
Y9398000D02*
Y9402892D01*
X8001000Y9017000D02*
X8382000Y9398000D01*
D19*
X10033000Y1524000D02*
D03*
X14986000Y5334000D02*
D03*
Y1524000D02*
D03*
X19939000D02*
D03*
X5080000Y5334000D02*
D03*
X10033000D02*
D03*
X19939000D02*
D03*
X5080000Y1524000D02*
D03*
D20*
X9525000D02*
D03*
X9017000D02*
D03*
X8509000D02*
D03*
X8001000D02*
D03*
X7493000D02*
D03*
X6985000D02*
D03*
X6477000D02*
D03*
X4064000Y5334000D02*
D03*
X9017000D02*
D03*
X18923000D02*
D03*
X16891000D02*
D03*
X6985000D02*
D03*
X13970000D02*
D03*
X18923000Y1524000D02*
D03*
X2032000Y5334000D02*
D03*
X16891000Y1524000D02*
D03*
X11938000D02*
D03*
X13970000D02*
D03*
X11938000Y5334000D02*
D03*
X4064000Y1524000D02*
D03*
X2032000D02*
D03*
X11430000Y5334000D02*
D03*
X12446000D02*
D03*
X12953999D02*
D03*
X13462000D02*
D03*
X14478000D02*
D03*
X11430000Y1524000D02*
D03*
X12446000D02*
D03*
X12953999D02*
D03*
X13462000D02*
D03*
X14478000D02*
D03*
X16383000D02*
D03*
X17399001D02*
D03*
X17907001D02*
D03*
X18414999D02*
D03*
X19431000D02*
D03*
X1524000Y5334000D02*
D03*
X2540000D02*
D03*
X3048000D02*
D03*
X3556000D02*
D03*
X4572000D02*
D03*
X6477000D02*
D03*
X7493000D02*
D03*
X8001000D02*
D03*
X8509000D02*
D03*
X9525000D02*
D03*
X16383000D02*
D03*
X17399001D02*
D03*
X17907001D02*
D03*
X18414999D02*
D03*
X19431000D02*
D03*
X1524000Y1524000D02*
D03*
X2540000D02*
D03*
X3048000D02*
D03*
X3556000D02*
D03*
X4572000D02*
D03*
D21*
X7212000Y9017000D02*
D03*
X13181000D02*
D03*
X8001000D02*
D03*
X2032000D02*
D03*
D22*
X15697200Y9398000D02*
D03*
D23*
X21336000Y508000D02*
D03*
Y9779000D02*
D03*
X508000D02*
D03*
Y508000D02*
D03*
D24*
X15237199Y9398000D02*
D03*
D25*
X19050000Y8775700D02*
D03*
X18402299D02*
D03*
X19685001Y8763000D02*
D03*
X13970000Y7620000D02*
D03*
X11938000D02*
D03*
X14478000Y6908800D02*
D03*
X12446000D02*
D03*
X11430000Y7620000D02*
D03*
X13462000D02*
D03*
X4064000D02*
D03*
X2032000D02*
D03*
X4572000Y6908800D02*
D03*
X1524000Y7620000D02*
D03*
X3556000D02*
D03*
X2540000Y6908800D02*
D03*
X9017000Y7620000D02*
D03*
X6985000D02*
D03*
X9525000Y6908800D02*
D03*
X6477000Y7620000D02*
D03*
X8509000D02*
D03*
X7493000Y6908800D02*
D03*
X18923000Y7620000D02*
D03*
X16891000D02*
D03*
X19431000Y6908800D02*
D03*
X16383000Y7620000D02*
D03*
X18414999D02*
D03*
X17399001Y6908800D02*
D03*
X18923000Y3810000D02*
D03*
X16891000D02*
D03*
X19431000Y3098800D02*
D03*
X16383000Y3810000D02*
D03*
X18414999D02*
D03*
X17399001Y3098800D02*
D03*
X13970000Y3810000D02*
D03*
X11938000D02*
D03*
X14478000Y3098800D02*
D03*
X11430000Y3810000D02*
D03*
X13462000D02*
D03*
X12446000Y3098800D02*
D03*
X9017000Y3810000D02*
D03*
X6985000D02*
D03*
X9525000Y3098800D02*
D03*
X6477000Y3810000D02*
D03*
X8509000D02*
D03*
X7493000Y3098800D02*
D03*
X17576801Y8382000D02*
D03*
X4064000Y3810000D02*
D03*
X1524000D02*
D03*
X2032000D02*
D03*
X3556000D02*
D03*
X4572000Y3098800D02*
D03*
X2540000D02*
D03*
%TF.MD5,38410c41471b47cb6f03ff085987275d*%
M02*
