%TF.GenerationSoftware,Altium Limited,Altium Designer,25.7.1 (20)*%
G04 Layer_Color=32896*
%FSLAX45Y45*%
%MOMM*%
%TF.SameCoordinates,C85018D4-D0C4-44B4-89D4-C4E6911D6D7A*%
%TF.FilePolarity,Positive*%
%TF.FileFunction,Legend,Bot*%
%TF.Part,Single*%
G01*
G75*
%TA.AperFunction,NonConductor*%
%ADD28C,0.25400*%
D28*
X21022270Y8119237D02*
X20937630D01*
X20895311Y8182716D02*
Y8055758D01*
Y8119237D01*
X20810670D01*
Y8182716D01*
Y8055758D01*
X20747192Y8140397D02*
X20704872D01*
X20683713Y8119237D01*
Y8055758D01*
X20747192D01*
X20768352Y8076917D01*
X20747192Y8098077D01*
X20683713D01*
X20641393Y8055758D02*
X20599072D01*
X20620233D01*
Y8182716D01*
X20641393D01*
X20535594Y8055758D02*
X20493274D01*
X20514433D01*
Y8140397D01*
X20535594D01*
X20429794Y8055758D02*
Y8140397D01*
X20366315D01*
X20345155Y8119237D01*
Y8055758D01*
X20302837D02*
Y8182716D01*
Y8098077D02*
X20239357Y8140397D01*
X20302837Y8098077D02*
X20239357Y8055758D01*
X20154716Y8140397D02*
X20112398D01*
X20091238Y8119237D01*
Y8055758D01*
X20154716D01*
X20175877Y8076917D01*
X20154716Y8098077D01*
X20091238D01*
X19921959Y8055758D02*
X19858479D01*
X19837320Y8076917D01*
X19858479Y8098077D01*
X19900800D01*
X19921959Y8119237D01*
X19900800Y8140397D01*
X19837320D01*
X19795001Y8013438D02*
Y8140397D01*
X19731522D01*
X19710361Y8119237D01*
Y8076917D01*
X19731522Y8055758D01*
X19795001D01*
X19668042D02*
X19625722D01*
X19646883D01*
Y8140397D01*
X19668042D01*
X19562244Y8055758D02*
X19498763D01*
X19477603Y8076917D01*
X19498763Y8098077D01*
X19541083D01*
X19562244Y8119237D01*
X19541083Y8140397D01*
X19477603D01*
X19435284D02*
X19350644D01*
X19435284Y8055758D01*
X19350644D01*
X19308325Y8161557D02*
X19287164Y8182716D01*
X19244846D01*
X19223685Y8161557D01*
Y8140397D01*
X19266005Y8098077D01*
Y8076917D02*
Y8055758D01*
X21022270Y7863607D02*
X20937630D01*
X20810670Y7905926D02*
X20831831Y7927086D01*
X20874152D01*
X20895311Y7905926D01*
Y7884767D01*
X20874152Y7863607D01*
X20831831D01*
X20810670Y7842447D01*
Y7821287D01*
X20831831Y7800127D01*
X20874152D01*
X20895311Y7821287D01*
X20768352Y7757807D02*
Y7884767D01*
X20704872D01*
X20683713Y7863607D01*
Y7821287D01*
X20704872Y7800127D01*
X20768352D01*
X20641393D02*
X20599072D01*
X20620233D01*
Y7884767D01*
X20641393D01*
X20472115Y7800127D02*
X20514433D01*
X20535594Y7821287D01*
Y7863607D01*
X20514433Y7884767D01*
X20472115D01*
X20450955Y7863607D01*
Y7842447D01*
X20535594D01*
X20387476Y7778967D02*
X20366315Y7800127D01*
Y7821287D01*
X20387476D01*
Y7800127D01*
X20366315D01*
X20387476Y7778967D01*
X20408635Y7757807D01*
X20154716Y7927086D02*
Y7800127D01*
X20091238D01*
X20070078Y7821287D01*
Y7842447D01*
Y7863607D01*
X20091238Y7884767D01*
X20154716D01*
X20006599Y7800127D02*
X19964279D01*
X19943118Y7821287D01*
Y7863607D01*
X19964279Y7884767D01*
X20006599D01*
X20027759Y7863607D01*
Y7821287D01*
X20006599Y7800127D01*
X19689201Y7884767D02*
X19752681D01*
X19773840Y7863607D01*
Y7821287D01*
X19752681Y7800127D01*
X19689201D01*
X19625722D02*
X19583403D01*
X19562244Y7821287D01*
Y7863607D01*
X19583403Y7884767D01*
X19625722D01*
X19646883Y7863607D01*
Y7821287D01*
X19625722Y7800127D01*
X19519923Y7905926D02*
X19498763Y7927086D01*
X19456444D01*
X19435284Y7905926D01*
Y7884767D01*
X19477603Y7842447D01*
Y7821287D02*
Y7800127D01*
X21022270Y7607976D02*
X20937630D01*
X20895311Y7671456D02*
Y7544497D01*
X20831831D01*
X20810670Y7565656D01*
Y7586816D01*
X20831831Y7607976D01*
X20895311D01*
X20831831D01*
X20810670Y7629136D01*
Y7650296D01*
X20831831Y7671456D01*
X20895311D01*
X20747192Y7544497D02*
X20704872D01*
X20683713Y7565656D01*
Y7607976D01*
X20704872Y7629136D01*
X20747192D01*
X20768352Y7607976D01*
Y7565656D01*
X20747192Y7544497D01*
X20514433Y7502177D02*
X20493274D01*
X20472115Y7523337D01*
Y7629136D01*
X20366316D02*
X20323996D01*
X20302837Y7607976D01*
Y7544497D01*
X20366316D01*
X20387476Y7565656D01*
X20366316Y7586816D01*
X20302837D01*
X20133559Y7544497D02*
Y7629136D01*
X20070078D01*
X20048918Y7607976D01*
Y7544497D01*
X20006599D02*
X19964279D01*
X19985439D01*
Y7629136D01*
X20006599D01*
X19837320Y7544497D02*
X19879640D01*
X19900800Y7565656D01*
Y7607976D01*
X19879640Y7629136D01*
X19837320D01*
X19816161Y7607976D01*
Y7586816D01*
X19900800D01*
X19646883Y7544497D02*
Y7629136D01*
X19625722D01*
X19604562Y7607976D01*
Y7544497D01*
Y7607976D01*
X19583403Y7629136D01*
X19562244Y7607976D01*
Y7544497D01*
X19498763D02*
X19456444D01*
X19435284Y7565656D01*
Y7607976D01*
X19456444Y7629136D01*
X19498763D01*
X19519923Y7607976D01*
Y7565656D01*
X19498763Y7544497D01*
X19350645Y7502177D02*
X19329485D01*
X19308325Y7523337D01*
Y7629136D01*
X19371805D01*
X19392964Y7607976D01*
Y7565656D01*
X19371805Y7544497D01*
X19308325D01*
X19202525D02*
X19244846D01*
X19266005Y7565656D01*
Y7607976D01*
X19244846Y7629136D01*
X19202525D01*
X19181366Y7607976D01*
Y7586816D01*
X19266005D01*
X19139047Y7544497D02*
Y7565656D01*
X19117886D01*
Y7544497D01*
X19139047D01*
X21022270Y7352346D02*
X20937630D01*
X20810670Y7394665D02*
X20831831Y7415825D01*
X20874152D01*
X20895311Y7394665D01*
Y7310026D01*
X20874152Y7288866D01*
X20831831D01*
X20810670Y7310026D01*
X20747192Y7288866D02*
X20704872D01*
X20683713Y7310026D01*
Y7352346D01*
X20704872Y7373506D01*
X20747192D01*
X20768352Y7352346D01*
Y7310026D01*
X20747192Y7288866D01*
X20514433Y7373506D02*
X20429794D01*
X20514433Y7288866D01*
X20429794D01*
X20387476D02*
Y7373506D01*
X20323996D01*
X20302837Y7352346D01*
Y7288866D01*
X20239357D02*
X20197037D01*
X20175877Y7310026D01*
Y7352346D01*
X20197037Y7373506D01*
X20239357D01*
X20260516Y7352346D01*
Y7310026D01*
X20239357Y7288866D01*
X20133559Y7373506D02*
Y7310026D01*
X20112398Y7288866D01*
X20091238Y7310026D01*
X20070078Y7288866D01*
X20048918Y7310026D01*
Y7373506D01*
X20006599D02*
Y7310026D01*
X19985439Y7288866D01*
X19921959D01*
Y7373506D01*
X19879640Y7394665D02*
X19858479Y7415825D01*
X19816161D01*
X19795001Y7394665D01*
Y7373506D01*
X19837320Y7331186D01*
Y7310026D02*
Y7288866D01*
X21022270Y7139035D02*
X20937630D01*
X20895311Y7202514D02*
Y7075556D01*
Y7139035D01*
X20810670D01*
Y7202514D01*
Y7075556D01*
X20747192Y7160195D02*
X20704872D01*
X20683713Y7139035D01*
Y7075556D01*
X20747192D01*
X20768352Y7096715D01*
X20747192Y7117875D01*
X20683713D01*
X20641393Y7075556D02*
X20599072D01*
X20620233D01*
Y7202514D01*
X20641393D01*
X20535594Y7075556D02*
X20493274D01*
X20514433D01*
Y7160195D01*
X20535594D01*
X20429794Y7075556D02*
Y7160195D01*
X20366315D01*
X20345155Y7139035D01*
Y7075556D01*
X20302837D02*
Y7202514D01*
Y7117875D02*
X20239357Y7160195D01*
X20302837Y7117875D02*
X20239357Y7075556D01*
X20154716Y7160195D02*
X20112398D01*
X20091238Y7139035D01*
Y7075556D01*
X20154716D01*
X20175877Y7096715D01*
X20154716Y7117875D01*
X20091238D01*
X20027759Y7054396D02*
X20006599Y7075556D01*
Y7096715D01*
X20027759D01*
Y7075556D01*
X20006599D01*
X20027759Y7054396D01*
X20048918Y7033236D01*
X19795001Y7202514D02*
Y7075556D01*
X19731522D01*
X19710361Y7096715D01*
Y7117875D01*
Y7139035D01*
X19731522Y7160195D01*
X19795001D01*
X19646883Y7075556D02*
X19604562D01*
X19583401Y7096715D01*
Y7139035D01*
X19604562Y7160195D01*
X19646883D01*
X19668042Y7139035D01*
Y7096715D01*
X19646883Y7075556D01*
X19414124Y7033236D02*
X19392964D01*
X19371803Y7054396D01*
Y7160195D01*
X19266005D02*
X19223686D01*
X19202525Y7139035D01*
Y7075556D01*
X19266005D01*
X19287164Y7096715D01*
X19266005Y7117875D01*
X19202525D01*
X19033247Y7075556D02*
Y7160195D01*
X18969768D01*
X18948608Y7139035D01*
Y7075556D01*
X18906290D02*
X18863969D01*
X18885129D01*
Y7160195D01*
X18906290D01*
X18737010Y7075556D02*
X18779330D01*
X18800488Y7096715D01*
Y7139035D01*
X18779330Y7160195D01*
X18737010D01*
X18715849Y7139035D01*
Y7117875D01*
X18800488D01*
X18546571Y7075556D02*
Y7160195D01*
X18525412D01*
X18504253Y7139035D01*
Y7075556D01*
Y7139035D01*
X18483092Y7160195D01*
X18461932Y7139035D01*
Y7075556D01*
X18398453D02*
X18356133D01*
X18334973Y7096715D01*
Y7139035D01*
X18356133Y7160195D01*
X18398453D01*
X18419614Y7139035D01*
Y7096715D01*
X18398453Y7075556D01*
X18250334Y7033236D02*
X18229175D01*
X18208015Y7054396D01*
Y7160195D01*
X18271494D01*
X18292654Y7139035D01*
Y7096715D01*
X18271494Y7075556D01*
X18208015D01*
X18102216D02*
X18144534D01*
X18165695Y7096715D01*
Y7139035D01*
X18144534Y7160195D01*
X18102216D01*
X18081056Y7139035D01*
Y7117875D01*
X18165695D01*
X17911777Y7160195D02*
X17827138D01*
X17911777Y7075556D01*
X17827138D01*
X17784819Y7160195D02*
Y7075556D01*
Y7117875D01*
X17763660Y7139035D01*
X17742499Y7160195D01*
X17721339D01*
X17636700Y7075556D02*
X17594380D01*
X17573219Y7096715D01*
Y7139035D01*
X17594380Y7160195D01*
X17636700D01*
X17657860Y7139035D01*
Y7096715D01*
X17636700Y7075556D01*
X17530901Y7160195D02*
X17446262D01*
X17530901Y7075556D01*
X17446262D01*
X17403941Y7160195D02*
Y7096715D01*
X17382782Y7075556D01*
X17319302D01*
Y7160195D01*
X17276984Y7075556D02*
Y7160195D01*
X17255824D01*
X17234663Y7139035D01*
Y7075556D01*
Y7139035D01*
X17213504Y7160195D01*
X17192345Y7139035D01*
Y7075556D01*
X17150024D02*
X17107706D01*
X17128865D01*
Y7160195D01*
X17150024D01*
X16980746Y7075556D02*
X17023067D01*
X17044225Y7096715D01*
Y7139035D01*
X17023067Y7160195D01*
X16980746D01*
X16959586Y7139035D01*
Y7117875D01*
X17044225D01*
X16832626Y7160195D02*
X16896107D01*
X16917265Y7139035D01*
Y7096715D01*
X16896107Y7075556D01*
X16832626D01*
X16663348Y7033236D02*
X16642189D01*
X16621030Y7054396D01*
Y7160195D01*
X16472910Y7075556D02*
X16515230D01*
X16536391Y7096715D01*
Y7139035D01*
X16515230Y7160195D01*
X16472910D01*
X16451750Y7139035D01*
Y7117875D01*
X16536391D01*
X16324792Y7202514D02*
Y7075556D01*
X16388271D01*
X16409431Y7096715D01*
Y7139035D01*
X16388271Y7160195D01*
X16324792D01*
X16282472Y7075556D02*
Y7160195D01*
X16218993D01*
X16197833Y7139035D01*
Y7075556D01*
X16092033D02*
X16134354D01*
X16155513Y7096715D01*
Y7139035D01*
X16134354Y7160195D01*
X16092033D01*
X16070874Y7139035D01*
Y7117875D01*
X16155513D01*
X16028554Y7033236D02*
X16007394D01*
X15986235Y7054396D01*
Y7160195D01*
X15774637D02*
Y7075556D01*
Y7117875D01*
X15753477Y7139035D01*
X15732317Y7160195D01*
X15711157D01*
X15647678D02*
X15563039D01*
X15647678Y7075556D01*
X15563039D01*
X15457240D02*
X15499559D01*
X15520718Y7096715D01*
Y7139035D01*
X15499559Y7160195D01*
X15457240D01*
X15436079Y7139035D01*
Y7117875D01*
X15520718D01*
X15309122Y7160195D02*
X15372600D01*
X15393761Y7139035D01*
Y7096715D01*
X15372600Y7075556D01*
X15309122D01*
X15266801Y7160195D02*
X15182162D01*
X15266801Y7075556D01*
X15182162D01*
X15139842Y7160195D02*
Y7096715D01*
X15118683Y7075556D01*
X15055203D01*
Y7054396D01*
X15076363Y7033236D01*
X15097523D01*
X15055203Y7075556D02*
Y7160195D01*
X14991724Y7054396D02*
X14970564Y7075556D01*
Y7096715D01*
X14991724D01*
Y7075556D01*
X14970564D01*
X14991724Y7054396D01*
X15012885Y7033236D01*
X14674327Y7160195D02*
X14737807D01*
X14758966Y7139035D01*
Y7096715D01*
X14737807Y7075556D01*
X14674327D01*
X14610847D02*
X14568529D01*
X14547368Y7096715D01*
Y7139035D01*
X14568529Y7160195D01*
X14610847D01*
X14632007Y7139035D01*
Y7096715D01*
X14610847Y7075556D01*
X14378088D02*
Y7160195D01*
X14356931D01*
X14335770Y7139035D01*
Y7075556D01*
Y7139035D01*
X14314610Y7160195D01*
X14293449Y7139035D01*
Y7075556D01*
X14251131D02*
Y7160195D01*
X14187651D01*
X14166492Y7139035D01*
Y7075556D01*
X14124171D02*
X14081853D01*
X14103012D01*
Y7160195D01*
X14124171D01*
X13954893Y7075556D02*
X13997214D01*
X14018373Y7096715D01*
Y7139035D01*
X13997214Y7160195D01*
X13954893D01*
X13933733Y7139035D01*
Y7117875D01*
X14018373D01*
X13764455Y7033236D02*
Y7160195D01*
X13700975D01*
X13679816Y7139035D01*
Y7096715D01*
X13700975Y7075556D01*
X13764455D01*
X13637495Y7160195D02*
Y7075556D01*
Y7117875D01*
X13616336Y7139035D01*
X13595177Y7160195D01*
X13574017D01*
X13510538D02*
X13425899D01*
X13510538Y7075556D01*
X13425899D01*
X13320099D02*
X13362419D01*
X13383578Y7096715D01*
Y7139035D01*
X13362419Y7160195D01*
X13320099D01*
X13298940Y7139035D01*
Y7117875D01*
X13383578D01*
X13256619Y7075556D02*
X13193140D01*
X13171980Y7096715D01*
X13193140Y7117875D01*
X13235460D01*
X13256619Y7139035D01*
X13235460Y7160195D01*
X13171980D01*
X13129662Y7075556D02*
X13087341D01*
X13108501D01*
Y7202514D01*
X13129662D01*
X13002702Y7160195D02*
X12960382D01*
X12939223Y7139035D01*
Y7075556D01*
X13002702D01*
X13023862Y7096715D01*
X13002702Y7117875D01*
X12939223D01*
X12812263Y7202514D02*
Y7075556D01*
X12875743D01*
X12896902Y7096715D01*
Y7139035D01*
X12875743Y7160195D01*
X12812263D01*
X12769944D02*
Y7096715D01*
X12748784Y7075556D01*
X12685304D01*
Y7160195D01*
X12642985Y7033236D02*
X12621825D01*
X12600665Y7054396D01*
Y7160195D01*
X12452547Y7075556D02*
X12494866D01*
X12516026Y7096715D01*
Y7139035D01*
X12494866Y7160195D01*
X12452547D01*
X12431387Y7139035D01*
Y7117875D01*
X12516026D01*
X12389067Y7075556D02*
Y7096715D01*
X12367907D01*
Y7075556D01*
X12389067D01*
X21022270Y6456783D02*
X20937630D01*
X20895311Y6393304D02*
Y6520263D01*
X20810670Y6393304D01*
Y6520263D01*
X20768352Y6393304D02*
X20726031D01*
X20747192D01*
Y6477943D01*
X20768352D01*
X20662553Y6520263D02*
Y6393304D01*
X20599072D01*
X20577913Y6414463D01*
Y6435623D01*
Y6456783D01*
X20599072Y6477943D01*
X20662553D01*
X20535594D02*
Y6414463D01*
X20514433Y6393304D01*
X20450955D01*
Y6372144D01*
X20472115Y6350984D01*
X20493274D01*
X20450955Y6393304D02*
Y6477943D01*
X20197037D02*
X20260516D01*
X20281676Y6456783D01*
Y6414463D01*
X20260516Y6393304D01*
X20197037D01*
X20154716Y6477943D02*
X20070078D01*
X20154716Y6393304D01*
X20070078D01*
X19964279D02*
X20006599D01*
X20027759Y6414463D01*
Y6456783D01*
X20006599Y6477943D01*
X19964279D01*
X19943118Y6456783D01*
Y6435623D01*
X20027759D01*
X19858479Y6350984D02*
X19837320D01*
X19816161Y6372144D01*
Y6477943D01*
X19879640D01*
X19900800Y6456783D01*
Y6414463D01*
X19879640Y6393304D01*
X19816161D01*
X19752681D02*
X19710361D01*
X19689201Y6414463D01*
Y6456783D01*
X19710361Y6477943D01*
X19752681D01*
X19773840Y6456783D01*
Y6414463D01*
X19752681Y6393304D01*
X19646883Y6499103D02*
X19625722Y6520263D01*
X19583403D01*
X19562244Y6499103D01*
Y6477943D01*
X19604562Y6435623D01*
Y6414463D02*
Y6393304D01*
X21022270Y6201153D02*
X20937630D01*
X20895311Y6264632D02*
Y6137673D01*
X20831831D01*
X20810670Y6158833D01*
Y6243472D01*
X20831831Y6264632D01*
X20895311D01*
X20768352Y6137673D02*
X20726031D01*
X20747192D01*
Y6264632D01*
X20768352D01*
X20641393Y6222313D02*
X20599072D01*
X20577913Y6201153D01*
Y6137673D01*
X20641393D01*
X20662553Y6158833D01*
X20641393Y6179993D01*
X20577913D01*
X20450955Y6222313D02*
X20514433D01*
X20535594Y6201153D01*
Y6158833D01*
X20514433Y6137673D01*
X20450955D01*
X20408635Y6222313D02*
X20323996D01*
X20408635Y6137673D01*
X20323996D01*
X20218198D02*
X20260516D01*
X20281676Y6158833D01*
Y6201153D01*
X20260516Y6222313D01*
X20218198D01*
X20197037Y6201153D01*
Y6179993D01*
X20281676D01*
X20112398Y6095354D02*
X20091238D01*
X20070078Y6116514D01*
Y6222313D01*
X20133559D01*
X20154716Y6201153D01*
Y6158833D01*
X20133559Y6137673D01*
X20070078D01*
X20006599D02*
X19964279D01*
X19943118Y6158833D01*
Y6201153D01*
X19964279Y6222313D01*
X20006599D01*
X20027759Y6201153D01*
Y6158833D01*
X20006599Y6137673D01*
X19752681Y6243472D02*
Y6222313D01*
X19773840D01*
X19731522D01*
X19752681D01*
Y6158833D01*
X19731522Y6137673D01*
X19604562D02*
X19646883D01*
X19668042Y6158833D01*
Y6201153D01*
X19646883Y6222313D01*
X19604562D01*
X19583401Y6201153D01*
Y6179993D01*
X19668042D01*
X19541083Y6137673D02*
Y6222313D01*
X19477603D01*
X19456442Y6201153D01*
Y6137673D01*
X19287164D02*
Y6264632D01*
X19223686D01*
X19202525Y6243472D01*
Y6201153D01*
X19223686Y6179993D01*
X19287164D01*
X19244846D02*
X19202525Y6137673D01*
X19139047Y6222313D02*
X19096727D01*
X19075568Y6201153D01*
Y6137673D01*
X19139047D01*
X19160207Y6158833D01*
X19139047Y6179993D01*
X19075568D01*
X19033247Y6222313D02*
Y6137673D01*
Y6179993D01*
X19012088Y6201153D01*
X18990929Y6222313D01*
X18969768D01*
X18885129D02*
X18842809D01*
X18821649Y6201153D01*
Y6137673D01*
X18885129D01*
X18906290Y6158833D01*
X18885129Y6179993D01*
X18821649D01*
X18758170Y6243472D02*
Y6222313D01*
X18779330D01*
X18737010D01*
X18758170D01*
Y6158833D01*
X18737010Y6137673D01*
X18652371Y6222313D02*
X18610051D01*
X18588892Y6201153D01*
Y6137673D01*
X18652371D01*
X18673531Y6158833D01*
X18652371Y6179993D01*
X18588892D01*
X18525412Y6116514D02*
X18504253Y6137673D01*
Y6158833D01*
X18525412D01*
Y6137673D01*
X18504253D01*
X18525412Y6116514D01*
X18546571Y6095354D01*
X18271494Y6243472D02*
Y6222313D01*
X18292654D01*
X18250334D01*
X18271494D01*
Y6158833D01*
X18250334Y6137673D01*
X18165695D02*
X18123375D01*
X18102216Y6158833D01*
Y6201153D01*
X18123375Y6222313D01*
X18165695D01*
X18186855Y6201153D01*
Y6158833D01*
X18165695Y6137673D01*
X17911777Y6243472D02*
Y6222313D01*
X17932938D01*
X17890617D01*
X17911777D01*
Y6158833D01*
X17890617Y6137673D01*
X17805978Y6222313D02*
X17763660D01*
X17742499Y6201153D01*
Y6137673D01*
X17805978D01*
X17827138Y6158833D01*
X17805978Y6179993D01*
X17742499D01*
X17700179Y6137673D02*
Y6264632D01*
Y6179993D02*
X17636700Y6222313D01*
X17700179Y6179993D02*
X17636700Y6137673D01*
X17552061Y6222313D02*
X17509741D01*
X17488580Y6201153D01*
Y6137673D01*
X17552061D01*
X17573219Y6158833D01*
X17552061Y6179993D01*
X17488580D01*
X17319302Y6137673D02*
Y6222313D01*
X17298143D01*
X17276984Y6201153D01*
Y6137673D01*
Y6201153D01*
X17255823Y6222313D01*
X17234663Y6201153D01*
Y6137673D01*
X17128864D02*
X17171184D01*
X17192345Y6158833D01*
Y6201153D01*
X17171184Y6222313D01*
X17128864D01*
X17107704Y6201153D01*
Y6179993D01*
X17192345D01*
X17065385Y6137673D02*
Y6222313D01*
X17001906D01*
X16980746Y6201153D01*
Y6137673D01*
X16853787Y6264632D02*
Y6137673D01*
X16917265D01*
X16938426Y6158833D01*
Y6201153D01*
X16917265Y6222313D01*
X16853787D01*
X16790308D02*
X16747987D01*
X16726828Y6201153D01*
Y6137673D01*
X16790308D01*
X16811467Y6158833D01*
X16790308Y6179993D01*
X16726828D01*
X16557550Y6137673D02*
X16515230D01*
X16536391D01*
Y6222313D01*
X16557550D01*
X16324792Y6137673D02*
X16261311D01*
X16240152Y6158833D01*
X16261311Y6179993D01*
X16303632D01*
X16324792Y6201153D01*
X16303632Y6222313D01*
X16240152D01*
X16197833D02*
Y6158833D01*
X16176672Y6137673D01*
X16155513Y6158833D01*
X16134354Y6137673D01*
X16113193Y6158833D01*
Y6222313D01*
X16070874Y6137673D02*
X16028554D01*
X16049715D01*
Y6222313D01*
X16070874D01*
X15965076Y6137673D02*
Y6222313D01*
X15901595D01*
X15880435Y6201153D01*
Y6137673D01*
X15838116D02*
X15795796D01*
X15816956D01*
Y6222313D01*
X15838116D01*
X15711157D02*
X15668837D01*
X15647678Y6201153D01*
Y6137673D01*
X15711157D01*
X15732317Y6158833D01*
X15711157Y6179993D01*
X15647678D01*
X15478400Y6095354D02*
X15457239D01*
X15436079Y6116514D01*
Y6222313D01*
X15287961Y6137673D02*
X15330280D01*
X15351440Y6158833D01*
Y6201153D01*
X15330280Y6222313D01*
X15287961D01*
X15266801Y6201153D01*
Y6179993D01*
X15351440D01*
X15224481Y6137673D02*
X15161002D01*
X15139842Y6158833D01*
X15161002Y6179993D01*
X15203322D01*
X15224481Y6201153D01*
X15203322Y6222313D01*
X15139842D01*
X15076363Y6243472D02*
Y6222313D01*
X15097523D01*
X15055203D01*
X15076363D01*
Y6158833D01*
X15055203Y6137673D01*
X14991724D02*
Y6158833D01*
X14970564D01*
Y6137673D01*
X14991724D01*
X21022270Y5945522D02*
X20937630D01*
X20895311Y6009002D02*
Y5882043D01*
X20852991Y5924363D01*
X20810670Y5882043D01*
Y6009002D01*
X20768352Y5882043D02*
X20726031D01*
X20747192D01*
Y5966682D01*
X20768352D01*
X20599072Y5882043D02*
X20641393D01*
X20662553Y5903203D01*
Y5945522D01*
X20641393Y5966682D01*
X20599072D01*
X20577913Y5945522D01*
Y5924363D01*
X20662553D01*
X20535594Y5882043D02*
X20472115D01*
X20450955Y5903203D01*
X20472115Y5924363D01*
X20514433D01*
X20535594Y5945522D01*
X20514433Y5966682D01*
X20450955D01*
X20408635D02*
X20323996D01*
X20408635Y5882043D01*
X20323996D01*
X20070078Y5966682D02*
X20133559D01*
X20154716Y5945522D01*
Y5903203D01*
X20133559Y5882043D01*
X20070078D01*
X20006599D02*
X19964279D01*
X19943118Y5903203D01*
Y5945522D01*
X19964279Y5966682D01*
X20006599D01*
X20027759Y5945522D01*
Y5903203D01*
X20006599Y5882043D01*
X19900800Y5987842D02*
X19879640Y6009002D01*
X19837320D01*
X19816161Y5987842D01*
Y5966682D01*
X19858479Y5924363D01*
Y5903203D02*
Y5882043D01*
X19646883Y6009002D02*
X19562244D01*
X19604562D01*
Y5882043D01*
X19519923Y5966682D02*
Y5903203D01*
X19498763Y5882043D01*
X19435284D01*
Y5860883D01*
X19456444Y5839723D01*
X19477603D01*
X19435284Y5882043D02*
Y5966682D01*
X19266005Y5882043D02*
Y5966682D01*
X19202525D01*
X19181366Y5945522D01*
Y5882043D01*
X19139047Y5966682D02*
Y5903203D01*
X19117886Y5882043D01*
X19054407D01*
Y5966682D01*
X18927448Y6009002D02*
Y5882043D01*
X18990929D01*
X19012088Y5903203D01*
Y5945522D01*
X18990929Y5966682D01*
X18927448D01*
X18885129Y5882043D02*
Y5966682D01*
X18821649D01*
X18800488Y5945522D01*
Y5882043D01*
X18758170Y5966682D02*
Y5903203D01*
X18737010Y5882043D01*
X18673531D01*
Y5860883D01*
X18694691Y5839723D01*
X18715849D01*
X18673531Y5882043D02*
Y5966682D01*
X18504253Y5839723D02*
X18483093D01*
X18461932Y5860883D01*
Y5966682D01*
X18313814Y5882043D02*
X18356134D01*
X18377293Y5903203D01*
Y5945522D01*
X18356134Y5966682D01*
X18313814D01*
X18292654Y5945522D01*
Y5924363D01*
X18377293D01*
X18250336Y5882043D02*
X18186855D01*
X18165695Y5903203D01*
X18186855Y5924363D01*
X18229175D01*
X18250336Y5945522D01*
X18229175Y5966682D01*
X18165695D01*
X18102216Y5987842D02*
Y5966682D01*
X18123376D01*
X18081056D01*
X18102216D01*
Y5903203D01*
X18081056Y5882043D01*
X17954097D02*
X17996417D01*
X18017577Y5903203D01*
Y5945522D01*
X17996417Y5966682D01*
X17954097D01*
X17932938Y5945522D01*
Y5924363D01*
X18017577D01*
X17890617Y5882043D02*
X17827138D01*
X17805978Y5903203D01*
X17827138Y5924363D01*
X17869458D01*
X17890617Y5945522D01*
X17869458Y5966682D01*
X17805978D01*
X17763660Y5882043D02*
Y5903203D01*
X17742499D01*
Y5882043D01*
X17763660D01*
X17530901Y6009002D02*
X17446262D01*
X17488580D01*
Y5882043D01*
X17403941Y5966682D02*
Y5903203D01*
X17382782Y5882043D01*
X17319302D01*
Y5860883D01*
X17340463Y5839723D01*
X17361623D01*
X17319302Y5882043D02*
Y5966682D01*
X17150024Y5882043D02*
Y5966682D01*
X17128865D01*
X17107706Y5945522D01*
Y5882043D01*
Y5945522D01*
X17086545Y5966682D01*
X17065385Y5945522D01*
Y5882043D01*
X17023067D02*
Y5966682D01*
X16959586D01*
X16938426Y5945522D01*
Y5882043D01*
X16896107D02*
X16853787D01*
X16874947D01*
Y5966682D01*
X16896107D01*
X16726828Y5882043D02*
X16769148D01*
X16790308Y5903203D01*
Y5945522D01*
X16769148Y5966682D01*
X16726828D01*
X16705669Y5945522D01*
Y5924363D01*
X16790308D01*
X16536391Y5839723D02*
Y5966682D01*
X16472910D01*
X16451750Y5945522D01*
Y5903203D01*
X16472910Y5882043D01*
X16536391D01*
X16409431Y5966682D02*
Y5903203D01*
X16388271Y5882043D01*
X16324792D01*
Y5860883D01*
X16345952Y5839723D01*
X16367111D01*
X16324792Y5882043D02*
Y5966682D01*
X16261311Y5987842D02*
Y5966682D01*
X16282472D01*
X16240152D01*
X16261311D01*
Y5903203D01*
X16240152Y5882043D01*
X16155513Y5966682D02*
X16113194D01*
X16092033Y5945522D01*
Y5882043D01*
X16155513D01*
X16176672Y5903203D01*
X16155513Y5924363D01*
X16092033D01*
X16049715Y5882043D02*
X15986235D01*
X15965076Y5903203D01*
X15986235Y5924363D01*
X16028554D01*
X16049715Y5945522D01*
X16028554Y5966682D01*
X15965076D01*
X15922755D02*
X15838116D01*
X15922755Y5882043D01*
X15838116D01*
X15647678D02*
X15605357D01*
X15584198Y5903203D01*
Y5945522D01*
X15605357Y5966682D01*
X15647678D01*
X15668839Y5945522D01*
Y5903203D01*
X15647678Y5882043D01*
X15393761Y5987842D02*
Y5966682D01*
X15414920D01*
X15372600D01*
X15393761D01*
Y5903203D01*
X15372600Y5882043D01*
X15287961D02*
X15245641D01*
X15224481Y5903203D01*
Y5945522D01*
X15245641Y5966682D01*
X15287961D01*
X15309122Y5945522D01*
Y5903203D01*
X15287961Y5882043D01*
X15161002Y5860883D02*
X15139842Y5882043D01*
Y5903203D01*
X15161002D01*
Y5882043D01*
X15139842D01*
X15161002Y5860883D01*
X15182162Y5839723D01*
X14843605Y5966682D02*
X14907085D01*
X14928244Y5945522D01*
Y5903203D01*
X14907085Y5882043D01*
X14843605D01*
X14780125D02*
X14737807D01*
X14716646Y5903203D01*
Y5945522D01*
X14737807Y5966682D01*
X14780125D01*
X14801285Y5945522D01*
Y5903203D01*
X14780125Y5882043D01*
X14526208Y5987842D02*
Y5966682D01*
X14547368D01*
X14505048D01*
X14526208D01*
Y5903203D01*
X14505048Y5882043D01*
X14441570Y5966682D02*
Y5903203D01*
X14420409Y5882043D01*
X14356929D01*
Y5860883D01*
X14378088Y5839723D01*
X14399249D01*
X14356929Y5882043D02*
Y5966682D01*
X14229970Y6009002D02*
Y5882043D01*
X14293449D01*
X14314610Y5903203D01*
Y5945522D01*
X14293449Y5966682D01*
X14229970D01*
X14187651D02*
X14103011D01*
X14187651Y5882043D01*
X14103011D01*
X14060692D02*
X14018372D01*
X14039532D01*
Y5966682D01*
X14060692D01*
X13891412Y5882043D02*
X13933733D01*
X13954893Y5903203D01*
Y5945522D01*
X13933733Y5966682D01*
X13891412D01*
X13870253Y5945522D01*
Y5924363D01*
X13954893D01*
X13827934Y5882043D02*
Y5966682D01*
X13764455D01*
X13743295Y5945522D01*
Y5882043D01*
X13552856D02*
X13510538D01*
X13489377Y5903203D01*
Y5945522D01*
X13510538Y5966682D01*
X13552856D01*
X13574016Y5945522D01*
Y5903203D01*
X13552856Y5882043D01*
X13362418Y6009002D02*
Y5882043D01*
X13425899D01*
X13447057Y5903203D01*
Y5945522D01*
X13425899Y5966682D01*
X13362418D01*
X13193140Y5987842D02*
X13171980Y6009002D01*
X13129660D01*
X13108501Y5987842D01*
Y5966682D01*
X13129660Y5945522D01*
X13150819D01*
X13129660D01*
X13108501Y5924363D01*
Y5903203D01*
X13129660Y5882043D01*
X13171980D01*
X13193140Y5903203D01*
X13066180Y5987842D02*
X13045021Y6009002D01*
X13002701D01*
X12981541Y5987842D01*
Y5903203D01*
X13002701Y5882043D01*
X13045021D01*
X13066180Y5903203D01*
Y5987842D01*
X12812263Y5882043D02*
X12769943D01*
X12791103D01*
Y6009002D01*
X12812263D01*
X12685304Y5966682D02*
X12642985D01*
X12621825Y5945522D01*
Y5882043D01*
X12685304D01*
X12706464Y5903203D01*
X12685304Y5924363D01*
X12621825D01*
X12558345Y5987842D02*
Y5966682D01*
X12579505D01*
X12537185D01*
X12558345D01*
Y5903203D01*
X12537185Y5882043D01*
X12473706D02*
Y5903203D01*
X12452546D01*
Y5882043D01*
X12473706D01*
X21022270Y5689892D02*
X20937630D01*
X20895311Y5753371D02*
Y5626412D01*
Y5689892D01*
X20810670D01*
Y5753371D01*
Y5626412D01*
X20747192Y5711052D02*
X20704872D01*
X20683713Y5689892D01*
Y5626412D01*
X20747192D01*
X20768352Y5647572D01*
X20747192Y5668732D01*
X20683713D01*
X20641393Y5626412D02*
X20599072D01*
X20620233D01*
Y5753371D01*
X20641393D01*
X20535594Y5626412D02*
X20493274D01*
X20514433D01*
Y5711052D01*
X20535594D01*
X20429794Y5626412D02*
Y5711052D01*
X20366315D01*
X20345155Y5689892D01*
Y5626412D01*
X20302837D02*
Y5753371D01*
Y5668732D02*
X20239357Y5711052D01*
X20302837Y5668732D02*
X20239357Y5626412D01*
X20154716Y5711052D02*
X20112398D01*
X20091238Y5689892D01*
Y5626412D01*
X20154716D01*
X20175877Y5647572D01*
X20154716Y5668732D01*
X20091238D01*
X20027759Y5605253D02*
X20006599Y5626412D01*
Y5647572D01*
X20027759D01*
Y5626412D01*
X20006599D01*
X20027759Y5605253D01*
X20048918Y5584093D01*
X19795001Y5753371D02*
Y5626412D01*
X19731522D01*
X19710361Y5647572D01*
Y5668732D01*
Y5689892D01*
X19731522Y5711052D01*
X19795001D01*
X19646883Y5626412D02*
X19604562D01*
X19583401Y5647572D01*
Y5689892D01*
X19604562Y5711052D01*
X19646883D01*
X19668042Y5689892D01*
Y5647572D01*
X19646883Y5626412D01*
X19414124Y5584093D02*
X19392964D01*
X19371803Y5605253D01*
Y5711052D01*
X19266005D02*
X19223686D01*
X19202525Y5689892D01*
Y5626412D01*
X19266005D01*
X19287164Y5647572D01*
X19266005Y5668732D01*
X19202525D01*
X19012088Y5626412D02*
X18969768D01*
X18948608Y5647572D01*
Y5689892D01*
X18969768Y5711052D01*
X19012088D01*
X19033247Y5689892D01*
Y5647572D01*
X19012088Y5626412D01*
X18821649Y5753371D02*
Y5626412D01*
X18885129D01*
X18906290Y5647572D01*
Y5689892D01*
X18885129Y5711052D01*
X18821649D01*
X18631210Y5732212D02*
Y5711052D01*
X18652371D01*
X18610051D01*
X18631210D01*
Y5647572D01*
X18610051Y5626412D01*
X18546571Y5711052D02*
Y5626412D01*
Y5668732D01*
X18525412Y5689892D01*
X18504253Y5711052D01*
X18483092D01*
X18419614D02*
X18334973D01*
X18419614Y5626412D01*
X18334973D01*
X18292654Y5711052D02*
Y5647572D01*
X18271494Y5626412D01*
X18208015D01*
Y5605253D01*
X18229175Y5584093D01*
X18250334D01*
X18208015Y5626412D02*
Y5711052D01*
X18081056Y5753371D02*
Y5626412D01*
X18144534D01*
X18165695Y5647572D01*
Y5689892D01*
X18144534Y5711052D01*
X18081056D01*
X18038736D02*
X17954097D01*
X18038736Y5626412D01*
X17954097D01*
X17911777D02*
X17869458D01*
X17890617D01*
Y5711052D01*
X17911777D01*
X17742499Y5626412D02*
X17784819D01*
X17805978Y5647572D01*
Y5689892D01*
X17784819Y5711052D01*
X17742499D01*
X17721339Y5689892D01*
Y5668732D01*
X17805978D01*
X17679021Y5626412D02*
X17615540D01*
X17594380Y5647572D01*
X17615540Y5668732D01*
X17657860D01*
X17679021Y5689892D01*
X17657860Y5711052D01*
X17594380D01*
X17530901Y5732212D02*
Y5711052D01*
X17552061D01*
X17509741D01*
X17530901D01*
Y5647572D01*
X17509741Y5626412D01*
X17446262Y5711052D02*
Y5647572D01*
X17425102Y5626412D01*
X17361623D01*
Y5711052D01*
X17192345Y5626412D02*
X17150024D01*
X17171184D01*
Y5753371D01*
X17192345D01*
X17065385Y5711052D02*
X17023065D01*
X17001904Y5689892D01*
Y5626412D01*
X17065385D01*
X17086545Y5647572D01*
X17065385Y5668732D01*
X17001904D01*
X16938426Y5732212D02*
Y5711052D01*
X16959586D01*
X16917265D01*
X16938426D01*
Y5647572D01*
X16917265Y5626412D01*
X16726828Y5584093D02*
Y5711052D01*
X16663348D01*
X16642188Y5689892D01*
Y5647572D01*
X16663348Y5626412D01*
X16726828D01*
X16578709D02*
X16536391D01*
X16515230Y5647572D01*
Y5689892D01*
X16536391Y5711052D01*
X16578709D01*
X16599869Y5689892D01*
Y5647572D01*
X16578709Y5626412D01*
X16472910Y5584093D02*
X16451750D01*
X16430589Y5605253D01*
Y5711052D01*
X16324792D02*
X16282472D01*
X16261311Y5689892D01*
Y5626412D01*
X16324792D01*
X16345950Y5647572D01*
X16324792Y5668732D01*
X16261311D01*
X16134354Y5711052D02*
X16197833D01*
X16218993Y5689892D01*
Y5647572D01*
X16197833Y5626412D01*
X16134354D01*
X15965076D02*
Y5711052D01*
X15901595D01*
X15880435Y5689892D01*
Y5626412D01*
X15838116D02*
X15795796D01*
X15816956D01*
Y5711052D01*
X15838116D01*
X15668837Y5626412D02*
X15711157D01*
X15732317Y5647572D01*
Y5689892D01*
X15711157Y5711052D01*
X15668837D01*
X15647678Y5689892D01*
Y5668732D01*
X15732317D01*
X15478400Y5626412D02*
Y5711052D01*
X15457239D01*
X15436079Y5689892D01*
Y5626412D01*
Y5689892D01*
X15414920Y5711052D01*
X15393761Y5689892D01*
Y5626412D01*
X15330280D02*
X15287961D01*
X15266801Y5647572D01*
Y5689892D01*
X15287961Y5711052D01*
X15330280D01*
X15351440Y5689892D01*
Y5647572D01*
X15330280Y5626412D01*
X15182162Y5584093D02*
X15161002D01*
X15139842Y5605253D01*
Y5711052D01*
X15203322D01*
X15224481Y5689892D01*
Y5647572D01*
X15203322Y5626412D01*
X15139842D01*
X15034042D02*
X15076363D01*
X15097523Y5647572D01*
Y5689892D01*
X15076363Y5711052D01*
X15034042D01*
X15012883Y5689892D01*
Y5668732D01*
X15097523D01*
X14949403Y5605253D02*
X14928244Y5626412D01*
Y5647572D01*
X14949403D01*
Y5626412D01*
X14928244D01*
X14949403Y5605253D01*
X14970564Y5584093D01*
X14716646D02*
Y5711052D01*
X14653168D01*
X14632007Y5689892D01*
Y5647572D01*
X14653168Y5626412D01*
X14716646D01*
X14568527D02*
X14526208D01*
X14505048Y5647572D01*
Y5689892D01*
X14526208Y5711052D01*
X14568527D01*
X14589687Y5689892D01*
Y5647572D01*
X14568527Y5626412D01*
X14251131Y5711052D02*
X14314610D01*
X14335770Y5689892D01*
Y5647572D01*
X14314610Y5626412D01*
X14251131D01*
X14187651D02*
X14145331D01*
X14124171Y5647572D01*
Y5689892D01*
X14145331Y5711052D01*
X14187651D01*
X14208810Y5689892D01*
Y5647572D01*
X14187651Y5626412D01*
X13954893Y5711052D02*
Y5647572D01*
X13933733Y5626412D01*
X13912573Y5647572D01*
X13891412Y5626412D01*
X13870253Y5647572D01*
Y5711052D01*
X13679816Y5626412D02*
X13637495D01*
X13616336Y5647572D01*
Y5689892D01*
X13637495Y5711052D01*
X13679816D01*
X13700975Y5689892D01*
Y5647572D01*
X13679816Y5626412D01*
X13531697Y5584093D02*
X13510538D01*
X13489377Y5605253D01*
Y5711052D01*
X13552856D01*
X13574016Y5689892D01*
Y5647572D01*
X13552856Y5626412D01*
X13489377D01*
X13425899D02*
X13383578D01*
X13362418Y5647572D01*
Y5689892D01*
X13383578Y5711052D01*
X13425899D01*
X13447057Y5689892D01*
Y5647572D01*
X13425899Y5626412D01*
X13320099D02*
X13277779D01*
X13298940D01*
Y5753371D01*
X13320099D01*
X13150819Y5626412D02*
X13193140D01*
X13214299Y5647572D01*
Y5689892D01*
X13193140Y5711052D01*
X13150819D01*
X13129660Y5689892D01*
Y5668732D01*
X13214299D01*
X12939223Y5732212D02*
Y5711052D01*
X12960382D01*
X12918062D01*
X12939223D01*
Y5647572D01*
X12918062Y5626412D01*
X12833423Y5711052D02*
X12791103D01*
X12769943Y5689892D01*
Y5626412D01*
X12833423D01*
X12854584Y5647572D01*
X12833423Y5668732D01*
X12769943D01*
X12727624Y5626412D02*
Y5753371D01*
Y5668732D02*
X12664144Y5711052D01*
X12727624Y5668732D02*
X12664144Y5626412D01*
X12600665D02*
X12558345D01*
X12579505D01*
Y5711052D01*
X12600665D01*
X12431386Y5626412D02*
X12473706D01*
X12494866Y5647572D01*
Y5689892D01*
X12473706Y5711052D01*
X12431386D01*
X12410226Y5689892D01*
Y5668732D01*
X12494866D01*
X12156309Y5711052D02*
X12219788D01*
X12240948Y5689892D01*
Y5647572D01*
X12219788Y5626412D01*
X12156309D01*
X12092830D02*
X12050510D01*
X12029350Y5647572D01*
Y5689892D01*
X12050510Y5711052D01*
X12092830D01*
X12113989Y5689892D01*
Y5647572D01*
X12092830Y5626412D01*
X11987030D02*
X11923551D01*
X11902391Y5647572D01*
X11923551Y5668732D01*
X11965871D01*
X11987030Y5689892D01*
X11965871Y5711052D01*
X11902391D01*
X11733113Y5626412D02*
Y5753371D01*
X11669633D01*
X11648473Y5732212D01*
Y5689892D01*
X11669633Y5668732D01*
X11733113D01*
X11584994Y5711052D02*
X11542674D01*
X11521514Y5689892D01*
Y5626412D01*
X11584994D01*
X11606154Y5647572D01*
X11584994Y5668732D01*
X11521514D01*
X11479195Y5626412D02*
Y5711052D01*
X11415716D01*
X11394556Y5689892D01*
Y5626412D01*
X11225277Y5753371D02*
Y5626412D01*
X11161798D01*
X11140638Y5647572D01*
Y5668732D01*
X11161798Y5689892D01*
X11225277D01*
X11161798D01*
X11140638Y5711052D01*
Y5732212D01*
X11161798Y5753371D01*
X11225277D01*
X11077159Y5626412D02*
X11034839D01*
X11013679Y5647572D01*
Y5689892D01*
X11034839Y5711052D01*
X11077159D01*
X11098318Y5689892D01*
Y5647572D01*
X11077159Y5626412D01*
X10929040Y5584093D02*
X10907880D01*
X10886720Y5605253D01*
Y5711052D01*
X10950200D01*
X10971360Y5689892D01*
Y5647572D01*
X10950200Y5626412D01*
X10886720D01*
X10717442D02*
X10653962D01*
X10632802Y5647572D01*
X10653962Y5668732D01*
X10696282D01*
X10717442Y5689892D01*
X10696282Y5711052D01*
X10632802D01*
X10569323Y5732212D02*
Y5711052D01*
X10590483D01*
X10548163D01*
X10569323D01*
Y5647572D01*
X10548163Y5626412D01*
X10484684Y5711052D02*
Y5647572D01*
X10463524Y5626412D01*
X10442364Y5647572D01*
X10421204Y5626412D01*
X10400044Y5647572D01*
Y5711052D01*
X10336565Y5626412D02*
X10294246D01*
X10273086Y5647572D01*
Y5689892D01*
X10294246Y5711052D01*
X10336565D01*
X10357725Y5689892D01*
Y5647572D01*
X10336565Y5626412D01*
X10230766Y5711052D02*
Y5626412D01*
Y5668732D01*
X10209606Y5689892D01*
X10188446Y5711052D01*
X10167287D01*
X10103807D02*
X10019168D01*
X10103807Y5626412D01*
X10019168D01*
X9976848Y5711052D02*
Y5647572D01*
X9955689Y5626412D01*
X9892209D01*
Y5605253D01*
X9913369Y5584093D01*
X9934529D01*
X9892209Y5626412D02*
Y5711052D01*
X9849890Y5626412D02*
X9807570D01*
X9828730D01*
Y5753371D01*
X9849890D01*
X9744090Y5626412D02*
Y5647572D01*
X9722931D01*
Y5626412D01*
X9744090D01*
X21022270Y4794329D02*
X20937630D01*
X20810670Y4857809D02*
X20895311D01*
Y4794329D01*
X20852991D01*
X20895311D01*
Y4730850D01*
X20704872D02*
X20747192D01*
X20768352Y4752010D01*
Y4794329D01*
X20747192Y4815489D01*
X20704872D01*
X20683713Y4794329D01*
Y4773170D01*
X20768352D01*
X20641393Y4815489D02*
Y4730850D01*
Y4773170D01*
X20620233Y4794329D01*
X20599072Y4815489D01*
X20577914D01*
X20429794Y4857809D02*
Y4730850D01*
X20493274D01*
X20514433Y4752010D01*
Y4794329D01*
X20493274Y4815489D01*
X20429794D01*
X20323996Y4730850D02*
X20366316D01*
X20387476Y4752010D01*
Y4794329D01*
X20366316Y4815489D01*
X20323996D01*
X20302837Y4794329D01*
Y4773170D01*
X20387476D01*
X20260516Y4730850D02*
Y4857809D01*
Y4773170D02*
X20197037Y4815489D01*
X20260516Y4773170D02*
X20197037Y4730850D01*
X20112398Y4709690D02*
X20091238Y4730850D01*
Y4752010D01*
X20112398D01*
Y4730850D01*
X20091238D01*
X20112398Y4709690D01*
X20133559Y4688530D01*
X19858479Y4815489D02*
X19816161D01*
X19795001Y4794329D01*
Y4730850D01*
X19858479D01*
X19879640Y4752010D01*
X19858479Y4773170D01*
X19795001D01*
X19625722Y4688530D02*
Y4815489D01*
X19562244D01*
X19541083Y4794329D01*
Y4752010D01*
X19562244Y4730850D01*
X19625722D01*
X19477605D02*
X19435284D01*
X19414124Y4752010D01*
Y4794329D01*
X19435284Y4815489D01*
X19477605D01*
X19498763Y4794329D01*
Y4752010D01*
X19477605Y4730850D01*
X19160207Y4815489D02*
X19223686D01*
X19244846Y4794329D01*
Y4752010D01*
X19223686Y4730850D01*
X19160207D01*
X19096727D02*
X19054407D01*
X19033247Y4752010D01*
Y4794329D01*
X19054407Y4815489D01*
X19096727D01*
X19117886Y4794329D01*
Y4752010D01*
X19096727Y4730850D01*
X18863969D02*
Y4857809D01*
X18800490D01*
X18779330Y4836649D01*
Y4794329D01*
X18800490Y4773170D01*
X18863969D01*
X18715851Y4815489D02*
X18673531D01*
X18652371Y4794329D01*
Y4730850D01*
X18715851D01*
X18737010Y4752010D01*
X18715851Y4773170D01*
X18652371D01*
X18610051Y4730850D02*
Y4815489D01*
X18546571D01*
X18525412Y4794329D01*
Y4730850D01*
X18356134Y4857809D02*
Y4730850D01*
X18292654D01*
X18271494Y4752010D01*
Y4773170D01*
X18292654Y4794329D01*
X18356134D01*
X18292654D01*
X18271494Y4815489D01*
Y4836649D01*
X18292654Y4857809D01*
X18356134D01*
X18208015Y4730850D02*
X18165695D01*
X18144534Y4752010D01*
Y4794329D01*
X18165695Y4815489D01*
X18208015D01*
X18229175Y4794329D01*
Y4752010D01*
X18208015Y4730850D01*
X18059895Y4688530D02*
X18038737D01*
X18017577Y4709690D01*
Y4815489D01*
X18081056D01*
X18102216Y4794329D01*
Y4752010D01*
X18081056Y4730850D01*
X18017577D01*
X17848299D02*
X17784819D01*
X17763660Y4752010D01*
X17784819Y4773170D01*
X17827139D01*
X17848299Y4794329D01*
X17827139Y4815489D01*
X17763660D01*
X17700180Y4836649D02*
Y4815489D01*
X17721339D01*
X17679021D01*
X17700180D01*
Y4752010D01*
X17679021Y4730850D01*
X17615540Y4815489D02*
Y4752010D01*
X17594382Y4730850D01*
X17573221Y4752010D01*
X17552061Y4730850D01*
X17530901Y4752010D01*
Y4815489D01*
X17467422Y4730850D02*
X17425102D01*
X17403941Y4752010D01*
Y4794329D01*
X17425102Y4815489D01*
X17467422D01*
X17488580Y4794329D01*
Y4752010D01*
X17467422Y4730850D01*
X17361623Y4815489D02*
Y4730850D01*
Y4773170D01*
X17340463Y4794329D01*
X17319302Y4815489D01*
X17298143D01*
X17234663D02*
X17150024D01*
X17234663Y4730850D01*
X17150024D01*
X17107706Y4815489D02*
Y4752010D01*
X17086545Y4730850D01*
X17023067D01*
Y4709690D01*
X17044226Y4688530D01*
X17065385D01*
X17023067Y4730850D02*
Y4815489D01*
X16980746Y4730850D02*
X16938426D01*
X16959586D01*
Y4857809D01*
X16980746D01*
X16747987Y4730850D02*
Y4815489D01*
X16726828D01*
X16705669Y4794329D01*
Y4730850D01*
Y4794329D01*
X16684509Y4815489D01*
X16663348Y4794329D01*
Y4730850D01*
X16621030Y4815489D02*
Y4752010D01*
X16599870Y4730850D01*
X16536391D01*
Y4815489D01*
X16409431D02*
X16472911D01*
X16494070Y4794329D01*
Y4752010D01*
X16472911Y4730850D01*
X16409431D01*
X16367113Y4857809D02*
Y4730850D01*
Y4794329D01*
X16345952Y4815489D01*
X16303632D01*
X16282472Y4794329D01*
Y4730850D01*
X16176672D02*
X16218993D01*
X16240154Y4752010D01*
Y4794329D01*
X16218993Y4815489D01*
X16176672D01*
X16155513Y4794329D01*
Y4773170D01*
X16240154D01*
X16113194Y4836649D02*
X16092033Y4857809D01*
X16049715D01*
X16028554Y4836649D01*
Y4815489D01*
X16070874Y4773170D01*
Y4752010D02*
Y4730850D01*
X21022270Y4538699D02*
X20937630D01*
X20895311Y4475219D02*
Y4602178D01*
X20810670Y4475219D01*
Y4602178D01*
X20747192Y4475219D02*
X20704872D01*
X20683713Y4496379D01*
Y4538699D01*
X20704872Y4559859D01*
X20747192D01*
X20768352Y4538699D01*
Y4496379D01*
X20747192Y4475219D01*
X20514433Y4559859D02*
Y4496379D01*
X20493274Y4475219D01*
X20472115Y4496379D01*
X20450955Y4475219D01*
X20429794Y4496379D01*
Y4559859D01*
X20387476Y4475219D02*
X20345155D01*
X20366316D01*
Y4602178D01*
X20387476D01*
X20260516Y4559859D02*
X20218198D01*
X20197037Y4538699D01*
Y4475219D01*
X20260516D01*
X20281676Y4496379D01*
X20260516Y4517539D01*
X20197037D01*
X20154716Y4475219D02*
X20091238D01*
X20070078Y4496379D01*
X20091238Y4517539D01*
X20133559D01*
X20154716Y4538699D01*
X20133559Y4559859D01*
X20070078D01*
X20027759Y4475219D02*
Y4559859D01*
X19964279D01*
X19943118Y4538699D01*
Y4475219D01*
X19900800D02*
X19858479D01*
X19879640D01*
Y4559859D01*
X19900800D01*
X19731522Y4475219D02*
X19773840D01*
X19795001Y4496379D01*
Y4538699D01*
X19773840Y4559859D01*
X19731522D01*
X19710361Y4538699D01*
Y4517539D01*
X19795001D01*
X19541083Y4432900D02*
Y4559859D01*
X19477603D01*
X19456442Y4538699D01*
Y4496379D01*
X19477603Y4475219D01*
X19541083D01*
X19392964D02*
X19350645D01*
X19329485Y4496379D01*
Y4538699D01*
X19350645Y4559859D01*
X19392964D01*
X19414124Y4538699D01*
Y4496379D01*
X19392964Y4475219D01*
X19075568Y4559859D02*
X19139047D01*
X19160207Y4538699D01*
Y4496379D01*
X19139047Y4475219D01*
X19075568D01*
X19012088D02*
X18969768D01*
X18948608Y4496379D01*
Y4538699D01*
X18969768Y4559859D01*
X19012088D01*
X19033247Y4538699D01*
Y4496379D01*
X19012088Y4475219D01*
X18906290Y4581019D02*
X18885129Y4602178D01*
X18842809D01*
X18821649Y4581019D01*
Y4559859D01*
X18863969Y4517539D01*
Y4496379D02*
Y4475219D01*
X18652371D02*
Y4559859D01*
X18610051Y4602178D01*
X18567731Y4559859D01*
Y4475219D01*
Y4538699D01*
X18652371D01*
X18525412Y4475219D02*
X18483092D01*
X18504253D01*
Y4602178D01*
X18525412D01*
X18419614D02*
Y4475219D01*
X18356133D01*
X18334973Y4496379D01*
Y4517539D01*
Y4538699D01*
X18356133Y4559859D01*
X18419614D01*
X18271494Y4475219D02*
X18229175D01*
X18208015Y4496379D01*
Y4538699D01*
X18229175Y4559859D01*
X18271494D01*
X18292654Y4538699D01*
Y4496379D01*
X18271494Y4475219D01*
X18017577Y4581019D02*
Y4559859D01*
X18038736D01*
X17996417D01*
X18017577D01*
Y4496379D01*
X17996417Y4475219D01*
X17911777Y4559859D02*
X17869458D01*
X17848299Y4538699D01*
Y4475219D01*
X17911777D01*
X17932938Y4496379D01*
X17911777Y4517539D01*
X17848299D01*
X17805978Y4475219D02*
Y4602178D01*
Y4517539D02*
X17742499Y4559859D01*
X17805978Y4517539D02*
X17742499Y4475219D01*
X17679021D02*
X17636700D01*
X17657860D01*
Y4559859D01*
X17679021D01*
X17509741Y4475219D02*
X17552061D01*
X17573219Y4496379D01*
Y4538699D01*
X17552061Y4559859D01*
X17509741D01*
X17488580Y4538699D01*
Y4517539D01*
X17573219D01*
X17319302Y4475219D02*
X17255823D01*
X17234663Y4496379D01*
X17255823Y4517539D01*
X17298143D01*
X17319302Y4538699D01*
X17298143Y4559859D01*
X17234663D01*
X17171184Y4581019D02*
Y4559859D01*
X17192345D01*
X17150024D01*
X17171184D01*
Y4496379D01*
X17150024Y4475219D01*
X17065385D02*
X17023065D01*
X17001904Y4496379D01*
Y4538699D01*
X17023065Y4559859D01*
X17065385D01*
X17086545Y4538699D01*
Y4496379D01*
X17065385Y4475219D01*
X16959586D02*
Y4559859D01*
X16896106D01*
X16874947Y4538699D01*
Y4475219D01*
X16832626D02*
Y4602178D01*
Y4517539D02*
X16769148Y4559859D01*
X16832626Y4517539D02*
X16769148Y4475219D01*
X16642189D02*
X16684508D01*
X16705669Y4496379D01*
Y4538699D01*
X16684508Y4559859D01*
X16642189D01*
X16621030Y4538699D01*
Y4517539D01*
X16705669D01*
X16451750Y4559859D02*
X16367111D01*
X16451750Y4475219D01*
X16367111D01*
X16324792D02*
X16282472D01*
X16303632D01*
Y4559859D01*
X16324792D01*
X16155513Y4475219D02*
X16197833D01*
X16218993Y4496379D01*
Y4538699D01*
X16197833Y4559859D01*
X16155513D01*
X16134354Y4538699D01*
Y4517539D01*
X16218993D01*
X16092033Y4475219D02*
Y4559859D01*
X16070874D01*
X16049715Y4538699D01*
Y4475219D01*
Y4538699D01*
X16028554Y4559859D01*
X16007394Y4538699D01*
Y4475219D01*
X15965076D02*
Y4559859D01*
X15901595D01*
X15880435Y4538699D01*
Y4475219D01*
X15838116D02*
X15795796D01*
X15816956D01*
Y4559859D01*
X15838116D01*
X15711157D02*
X15668837D01*
X15647678Y4538699D01*
Y4475219D01*
X15711157D01*
X15732317Y4496379D01*
X15711157Y4517539D01*
X15647678D01*
X15520718Y4559859D02*
X15584198D01*
X15605357Y4538699D01*
Y4496379D01*
X15584198Y4475219D01*
X15520718D01*
X15478400Y4559859D02*
X15393761D01*
X15478400Y4475219D01*
X15393761D01*
X15330280Y4559859D02*
X15287961D01*
X15266801Y4538699D01*
Y4475219D01*
X15330280D01*
X15351440Y4496379D01*
X15330280Y4517539D01*
X15266801D01*
X15224481Y4475219D02*
Y4559859D01*
X15161002D01*
X15139842Y4538699D01*
Y4475219D01*
X15076363Y4559859D02*
X15034042D01*
X15012883Y4538699D01*
Y4475219D01*
X15076363D01*
X15097523Y4496379D01*
X15076363Y4517539D01*
X15012883D01*
X14949403Y4454060D02*
X14928244Y4475219D01*
Y4496379D01*
X14949403D01*
Y4475219D01*
X14928244D01*
X14949403Y4454060D01*
X14970564Y4432900D01*
X14716646D02*
Y4559859D01*
X14653168D01*
X14632007Y4538699D01*
Y4496379D01*
X14653168Y4475219D01*
X14716646D01*
X14568527D02*
X14526208D01*
X14505048Y4496379D01*
Y4538699D01*
X14526208Y4559859D01*
X14568527D01*
X14589687Y4538699D01*
Y4496379D01*
X14568527Y4475219D01*
X14251131Y4559859D02*
X14314610D01*
X14335770Y4538699D01*
Y4496379D01*
X14314610Y4475219D01*
X14251131D01*
X14187651D02*
X14145331D01*
X14124171Y4496379D01*
Y4538699D01*
X14145331Y4559859D01*
X14187651D01*
X14208810Y4538699D01*
Y4496379D01*
X14187651Y4475219D01*
X14081853Y4581019D02*
X14060692Y4602178D01*
X14018372D01*
X13997212Y4581019D01*
Y4559859D01*
X14039532Y4517539D01*
Y4496379D02*
Y4475219D01*
X21022270Y4283068D02*
X20937630D01*
X20895311Y4219589D02*
Y4346548D01*
X20831831D01*
X20810670Y4325388D01*
Y4283068D01*
X20831831Y4261909D01*
X20895311D01*
X20747192Y4219589D02*
X20704872D01*
X20683713Y4240749D01*
Y4283068D01*
X20704872Y4304228D01*
X20747192D01*
X20768352Y4283068D01*
Y4240749D01*
X20747192Y4219589D01*
X20514433Y4177269D02*
X20493274D01*
X20472115Y4198429D01*
Y4304228D01*
X20366316D02*
X20323996D01*
X20302837Y4283068D01*
Y4219589D01*
X20366316D01*
X20387476Y4240749D01*
X20366316Y4261909D01*
X20302837D01*
X20260516Y4177269D02*
X20239357D01*
X20218198Y4198429D01*
Y4304228D01*
X20048918D02*
X20112398D01*
X20133559Y4283068D01*
Y4240749D01*
X20112398Y4219589D01*
X20048918D01*
X19985439D02*
X19943118D01*
X19921959Y4240749D01*
Y4283068D01*
X19943118Y4304228D01*
X19985439D01*
X20006599Y4283068D01*
Y4240749D01*
X19985439Y4219589D01*
X19752681Y4177269D02*
X19731522D01*
X19710361Y4198429D01*
Y4304228D01*
X19562244Y4219589D02*
X19604562D01*
X19625722Y4240749D01*
Y4283068D01*
X19604562Y4304228D01*
X19562244D01*
X19541083Y4283068D01*
Y4261909D01*
X19625722D01*
X19498763Y4219589D02*
X19456444D01*
X19477605D01*
Y4346548D01*
X19498763D01*
X19371805Y4219589D02*
X19329485D01*
X19308325Y4240749D01*
Y4283068D01*
X19329485Y4304228D01*
X19371805D01*
X19392964Y4283068D01*
Y4240749D01*
X19371805Y4219589D01*
X19266005Y4177269D02*
Y4304228D01*
X19202525D01*
X19181366Y4283068D01*
Y4240749D01*
X19202525Y4219589D01*
X19266005D01*
X19139047D02*
X19096727D01*
X19117886D01*
Y4304228D01*
X19139047D01*
X18969768Y4219589D02*
X19012088D01*
X19033247Y4240749D01*
Y4283068D01*
X19012088Y4304228D01*
X18969768D01*
X18948608Y4283068D01*
Y4261909D01*
X19033247D01*
X18906290Y4219589D02*
Y4240749D01*
X18885129D01*
Y4219589D01*
X18906290D01*
X18673531Y4346548D02*
Y4219589D01*
X18610051D01*
X18588892Y4240749D01*
Y4325388D01*
X18610051Y4346548D01*
X18673531D01*
X18525412Y4219589D02*
X18483092D01*
X18461932Y4240749D01*
Y4283068D01*
X18483092Y4304228D01*
X18525412D01*
X18546571Y4283068D01*
Y4240749D01*
X18525412Y4219589D01*
X18419614Y4346548D02*
Y4219589D01*
X18356133D01*
X18334973Y4240749D01*
Y4261909D01*
Y4283068D01*
X18356133Y4304228D01*
X18419614D01*
X18292654D02*
Y4219589D01*
Y4261909D01*
X18271494Y4283068D01*
X18250334Y4304228D01*
X18229175D01*
X18144534D02*
X18102216D01*
X18081056Y4283068D01*
Y4219589D01*
X18144534D01*
X18165695Y4240749D01*
X18144534Y4261909D01*
X18081056D01*
X18038736Y4219589D02*
Y4304228D01*
X17975256D01*
X17954097Y4283068D01*
Y4219589D01*
X17890617D02*
X17848299D01*
X17827138Y4240749D01*
Y4283068D01*
X17848299Y4304228D01*
X17890617D01*
X17911777Y4283068D01*
Y4240749D01*
X17890617Y4219589D01*
X17700179Y4304228D02*
X17763660D01*
X17784819Y4283068D01*
Y4240749D01*
X17763660Y4219589D01*
X17700179D01*
X17657860D02*
Y4240749D01*
X17636700D01*
Y4219589D01*
X17657860D01*
X21022270Y3600817D02*
X20937630D01*
X20852991Y3537337D02*
X20895311Y3579657D01*
Y3621976D01*
X20852991Y3664296D01*
X20704872Y3643136D02*
X20726031Y3664296D01*
X20768352D01*
X20789513Y3643136D01*
Y3558497D01*
X20768352Y3537337D01*
X20726031D01*
X20704872Y3558497D01*
Y3600817D01*
X20747192D01*
X20662553Y3537337D02*
X20620233D01*
X20641393D01*
Y3664296D01*
X20662553D01*
X20493274Y3537337D02*
X20535594D01*
X20556754Y3558497D01*
Y3600817D01*
X20535594Y3621976D01*
X20493274D01*
X20472115Y3600817D01*
Y3579657D01*
X20556754D01*
X20429794Y3664296D02*
Y3537337D01*
X20366315D01*
X20345155Y3558497D01*
Y3579657D01*
Y3600817D01*
X20366315Y3621976D01*
X20429794D01*
X20281676Y3537337D02*
X20239357D01*
X20218198Y3558497D01*
Y3600817D01*
X20239357Y3621976D01*
X20281676D01*
X20302837Y3600817D01*
Y3558497D01*
X20281676Y3537337D01*
X20175877D02*
Y3664296D01*
Y3579657D02*
X20112398Y3621976D01*
X20175877Y3579657D02*
X20112398Y3537337D01*
X20048918D02*
X20006599D01*
X20027759D01*
Y3621976D01*
X20048918D01*
X19816161D02*
Y3558497D01*
X19795001Y3537337D01*
X19773840Y3558497D01*
X19752681Y3537337D01*
X19731522Y3558497D01*
Y3621976D01*
X19689201D02*
Y3558497D01*
X19668042Y3537337D01*
X19604562D01*
Y3516177D01*
X19625722Y3495017D01*
X19646883D01*
X19604562Y3537337D02*
Y3621976D01*
X19477603Y3664296D02*
Y3537337D01*
X19541083D01*
X19562244Y3558497D01*
Y3600817D01*
X19541083Y3621976D01*
X19477603D01*
X19371803Y3537337D02*
X19414124D01*
X19435284Y3558497D01*
Y3600817D01*
X19414124Y3621976D01*
X19371803D01*
X19350644Y3600817D01*
Y3579657D01*
X19435284D01*
X19223685Y3621976D02*
X19287164D01*
X19308325Y3600817D01*
Y3558497D01*
X19287164Y3537337D01*
X19223685D01*
X19181366Y3664296D02*
Y3537337D01*
Y3600817D01*
X19160207Y3621976D01*
X19117886D01*
X19096727Y3600817D01*
Y3537337D01*
X19054407D02*
X19012086Y3579657D01*
Y3621976D01*
X19054407Y3664296D01*
X18821649D02*
Y3537337D01*
Y3600817D01*
X18737010D01*
Y3664296D01*
Y3537337D01*
X18673531Y3621976D02*
X18631210D01*
X18610051Y3600817D01*
Y3537337D01*
X18673531D01*
X18694690Y3558497D01*
X18673531Y3579657D01*
X18610051D01*
X18567731Y3537337D02*
X18525412D01*
X18546571D01*
Y3664296D01*
X18567731D01*
X18461932Y3537337D02*
X18419614D01*
X18440773D01*
Y3621976D01*
X18461932D01*
X18356133Y3537337D02*
Y3621976D01*
X18292654D01*
X18271494Y3600817D01*
Y3537337D01*
X18229173D02*
Y3664296D01*
Y3579657D02*
X18165695Y3621976D01*
X18229173Y3579657D02*
X18165695Y3537337D01*
X18081056Y3621976D02*
X18038736D01*
X18017577Y3600817D01*
Y3537337D01*
X18081056D01*
X18102216Y3558497D01*
X18081056Y3579657D01*
X18017577D01*
X17848299Y3495017D02*
X17827138D01*
X17805978Y3516177D01*
Y3621976D01*
X17700179D02*
X17657860D01*
X17636700Y3600817D01*
Y3537337D01*
X17700179D01*
X17721339Y3558497D01*
X17700179Y3579657D01*
X17636700D01*
X17467421Y3621976D02*
Y3537337D01*
Y3579657D01*
X17446262Y3600817D01*
X17425102Y3621976D01*
X17403941D01*
X17319302Y3537337D02*
X17276984D01*
X17255823Y3558497D01*
Y3600817D01*
X17276984Y3621976D01*
X17319302D01*
X17340462Y3600817D01*
Y3558497D01*
X17319302Y3537337D01*
X17213504Y3621976D02*
X17128864D01*
X17213504Y3537337D01*
X17128864D01*
X17086545Y3621976D02*
Y3558497D01*
X17065385Y3537337D01*
X17001904D01*
Y3621976D01*
X16959586Y3537337D02*
Y3621976D01*
X16938426D01*
X16917265Y3600817D01*
Y3537337D01*
Y3600817D01*
X16896106Y3621976D01*
X16874947Y3600817D01*
Y3537337D01*
X16832626D02*
X16790308D01*
X16811467D01*
Y3621976D01*
X16832626D01*
X16663348Y3537337D02*
X16705669D01*
X16726828Y3558497D01*
Y3600817D01*
X16705669Y3621976D01*
X16663348D01*
X16642188Y3600817D01*
Y3579657D01*
X16726828D01*
X16599869Y3537337D02*
Y3621976D01*
X16578709D01*
X16557549Y3600817D01*
Y3537337D01*
Y3600817D01*
X16536391Y3621976D01*
X16515230Y3600817D01*
Y3537337D01*
X16451750Y3516177D02*
X16430589Y3537337D01*
Y3558497D01*
X16451750D01*
Y3537337D01*
X16430589D01*
X16451750Y3516177D01*
X16472910Y3495017D01*
X16218993D02*
X16197833D01*
X16176672Y3516177D01*
Y3621976D01*
X16070874D02*
X16028554D01*
X16007394Y3600817D01*
Y3537337D01*
X16070874D01*
X16092033Y3558497D01*
X16070874Y3579657D01*
X16007394D01*
X15838116Y3621976D02*
X15753476D01*
X15838116Y3537337D01*
X15753476D01*
X15647678D02*
X15689996D01*
X15711157Y3558497D01*
Y3600817D01*
X15689996Y3621976D01*
X15647678D01*
X15626518Y3600817D01*
Y3579657D01*
X15711157D01*
X15584198Y3537337D02*
Y3621976D01*
X15563039D01*
X15541878Y3600817D01*
Y3537337D01*
Y3600817D01*
X15520718Y3621976D01*
X15499559Y3600817D01*
Y3537337D01*
X15330280D02*
X15266801D01*
X15245641Y3558497D01*
X15266801Y3579657D01*
X15309122D01*
X15330280Y3600817D01*
X15309122Y3621976D01*
X15245641D01*
X15182162D02*
X15139842D01*
X15118681Y3600817D01*
Y3537337D01*
X15182162D01*
X15203322Y3558497D01*
X15182162Y3579657D01*
X15118681D01*
X15076363Y3537337D02*
Y3621976D01*
X15055203D01*
X15034042Y3600817D01*
Y3537337D01*
Y3600817D01*
X15012883Y3621976D01*
X14991724Y3600817D01*
Y3537337D01*
X14822446D02*
X14758966D01*
X14737807Y3558497D01*
X14758966Y3579657D01*
X14801285D01*
X14822446Y3600817D01*
X14801285Y3621976D01*
X14737807D01*
X14695486D02*
Y3558497D01*
X14674327Y3537337D01*
X14653168Y3558497D01*
X14632007Y3537337D01*
X14610847Y3558497D01*
Y3621976D01*
X14568527Y3537337D02*
X14526208D01*
X14547368D01*
Y3621976D01*
X14568527D01*
X14399249Y3537337D02*
X14441570D01*
X14462727Y3558497D01*
Y3600817D01*
X14441570Y3621976D01*
X14399249D01*
X14378088Y3600817D01*
Y3579657D01*
X14462727D01*
X14314610Y3643136D02*
Y3621976D01*
X14335770D01*
X14293449D01*
X14314610D01*
Y3558497D01*
X14293449Y3537337D01*
X14229970Y3621976D02*
Y3558497D01*
X14208810Y3537337D01*
X14145331D01*
Y3516177D01*
X14166492Y3495017D01*
X14187651D01*
X14145331Y3537337D02*
Y3621976D01*
X13976053Y3537337D02*
Y3621976D01*
X13912573D01*
X13891412Y3600817D01*
Y3537337D01*
X13849094D02*
X13806773D01*
X13827934D01*
Y3621976D01*
X13849094D01*
X13679816Y3537337D02*
X13722134D01*
X13743295Y3558497D01*
Y3600817D01*
X13722134Y3621976D01*
X13679816D01*
X13658655Y3600817D01*
Y3579657D01*
X13743295D01*
X13489377Y3495017D02*
X13468217D01*
X13447057Y3516177D01*
Y3621976D01*
X13298940Y3537337D02*
X13341258D01*
X13362418Y3558497D01*
Y3600817D01*
X13341258Y3621976D01*
X13298940D01*
X13277779Y3600817D01*
Y3579657D01*
X13362418D01*
X13235458Y3537337D02*
X13171980D01*
X13150819Y3558497D01*
X13171980Y3579657D01*
X13214299D01*
X13235458Y3600817D01*
X13214299Y3621976D01*
X13150819D01*
X13087341Y3643136D02*
Y3621976D01*
X13108501D01*
X13066180D01*
X13087341D01*
Y3558497D01*
X13066180Y3537337D01*
X12981541Y3516177D02*
X12960381Y3537337D01*
Y3558497D01*
X12981541D01*
Y3537337D01*
X12960381D01*
X12981541Y3516177D01*
X13002701Y3495017D01*
X12727624Y3621976D02*
X12685304D01*
X12664144Y3600817D01*
Y3537337D01*
X12727624D01*
X12748783Y3558497D01*
X12727624Y3579657D01*
X12664144D01*
X12621825Y3537337D02*
X12579505D01*
X12600665D01*
Y3664296D01*
X12621825D01*
X12452546Y3537337D02*
X12494866D01*
X12516026Y3558497D01*
Y3600817D01*
X12494866Y3621976D01*
X12452546D01*
X12431386Y3600817D01*
Y3579657D01*
X12516026D01*
X12262108Y3495017D02*
Y3621976D01*
X12198628D01*
X12177468Y3600817D01*
Y3558497D01*
X12198628Y3537337D01*
X12262108D01*
X12135149Y3621976D02*
Y3537337D01*
Y3579657D01*
X12113989Y3600817D01*
X12092829Y3621976D01*
X12071670D01*
X12008190D02*
X11923551D01*
X12008190Y3537337D01*
X11923551D01*
X11817752D02*
X11860072D01*
X11881231Y3558497D01*
Y3600817D01*
X11860072Y3621976D01*
X11817752D01*
X11796592Y3600817D01*
Y3579657D01*
X11881231D01*
X11669633Y3621976D02*
X11733113D01*
X11754272Y3600817D01*
Y3558497D01*
X11733113Y3537337D01*
X11669633D01*
X11627314D02*
X11584994D01*
X11606154D01*
Y3621976D01*
X11627314D01*
X11458035Y3537337D02*
X11500355D01*
X11521514Y3558497D01*
Y3600817D01*
X11500355Y3621976D01*
X11458035D01*
X11436875Y3600817D01*
Y3579657D01*
X11521514D01*
X11394556Y3621976D02*
X11309916D01*
X11394556Y3537337D01*
X11309916D01*
X11119478Y3643136D02*
Y3621976D01*
X11140638D01*
X11098318D01*
X11119478D01*
Y3558497D01*
X11098318Y3537337D01*
X11013679Y3621976D02*
X10971359D01*
X10950199Y3600817D01*
Y3537337D01*
X11013679D01*
X11034839Y3558497D01*
X11013679Y3579657D01*
X10950199D01*
X10907880Y3537337D02*
Y3664296D01*
Y3579657D02*
X10844400Y3621976D01*
X10907880Y3579657D02*
X10844400Y3537337D01*
X10780921D02*
X10738601D01*
X10759761D01*
Y3621976D01*
X10780921D01*
X10548163Y3537337D02*
Y3664296D01*
X10484684D01*
X10463524Y3643136D01*
Y3600817D01*
X10484684Y3579657D01*
X10548163D01*
X10505843D02*
X10463524Y3537337D01*
X10400044Y3621976D02*
X10357725D01*
X10336565Y3600817D01*
Y3537337D01*
X10400044D01*
X10421204Y3558497D01*
X10400044Y3579657D01*
X10336565D01*
X10294245Y3621976D02*
Y3537337D01*
Y3579657D01*
X10273086Y3600817D01*
X10251926Y3621976D01*
X10230766D01*
X10146127D02*
X10103807D01*
X10082647Y3600817D01*
Y3537337D01*
X10146127D01*
X10167286Y3558497D01*
X10146127Y3579657D01*
X10082647D01*
X10019168Y3643136D02*
Y3621976D01*
X10040328D01*
X9998008D01*
X10019168D01*
Y3558497D01*
X9998008Y3537337D01*
X9913369Y3621976D02*
X9871049D01*
X9849889Y3600817D01*
Y3537337D01*
X9913369D01*
X9934529Y3558497D01*
X9913369Y3579657D01*
X9849889D01*
X9659451Y3643136D02*
Y3621976D01*
X9680611D01*
X9638291D01*
X9659451D01*
Y3558497D01*
X9638291Y3537337D01*
X9553652D02*
X9511332D01*
X9490172Y3558497D01*
Y3600817D01*
X9511332Y3621976D01*
X9553652D01*
X9574812Y3600817D01*
Y3558497D01*
X9553652Y3537337D01*
X9320894Y3495017D02*
X9299734D01*
X9278574Y3516177D01*
Y3621976D01*
X9130456Y3537337D02*
X9172775D01*
X9193935Y3558497D01*
Y3600817D01*
X9172775Y3621976D01*
X9130456D01*
X9109296Y3600817D01*
Y3579657D01*
X9193935D01*
X9066976Y3537337D02*
X9003497D01*
X8982337Y3558497D01*
X9003497Y3579657D01*
X9045817D01*
X9066976Y3600817D01*
X9045817Y3621976D01*
X8982337D01*
X8918858Y3643136D02*
Y3621976D01*
X8940017D01*
X8897698D01*
X8918858D01*
Y3558497D01*
X8897698Y3537337D01*
X8707259Y3495017D02*
Y3621976D01*
X8643780D01*
X8622620Y3600817D01*
Y3558497D01*
X8643780Y3537337D01*
X8707259D01*
X8580301Y3621976D02*
Y3537337D01*
Y3579657D01*
X8559141Y3600817D01*
X8537981Y3621976D01*
X8516821D01*
X8453342D02*
X8368702D01*
X8453342Y3537337D01*
X8368702D01*
X8262903D02*
X8305223D01*
X8326383Y3558497D01*
Y3600817D01*
X8305223Y3621976D01*
X8262903D01*
X8241743Y3600817D01*
Y3579657D01*
X8326383D01*
X8114785Y3621976D02*
X8178264D01*
X8199424Y3600817D01*
Y3558497D01*
X8178264Y3537337D01*
X8114785D01*
X8072465D02*
X8030145D01*
X8051305D01*
Y3621976D01*
X8072465D01*
X7903187Y3537337D02*
X7945506D01*
X7966666Y3558497D01*
Y3600817D01*
X7945506Y3621976D01*
X7903187D01*
X7882027Y3600817D01*
Y3579657D01*
X7966666D01*
X7839707Y3621976D02*
X7755068D01*
X7839707Y3537337D01*
X7755068D01*
X7585790D02*
Y3621976D01*
X7522310D01*
X7501150Y3600817D01*
Y3537337D01*
X7437671D02*
X7395351D01*
X7374191Y3558497D01*
Y3600817D01*
X7395351Y3621976D01*
X7437671D01*
X7458831Y3600817D01*
Y3558497D01*
X7437671Y3537337D01*
X7331872Y3621976D02*
Y3537337D01*
Y3579657D01*
X7310712Y3600817D01*
X7289552Y3621976D01*
X7268392D01*
X7204913Y3537337D02*
Y3621976D01*
X7183753D01*
X7162593Y3600817D01*
Y3537337D01*
Y3600817D01*
X7141434Y3621976D01*
X7120274Y3600817D01*
Y3537337D01*
X7056794Y3621976D02*
X7014475D01*
X6993315Y3600817D01*
Y3537337D01*
X7056794D01*
X7077954Y3558497D01*
X7056794Y3579657D01*
X6993315D01*
X6950995Y3537337D02*
X6908676D01*
X6929836D01*
Y3664296D01*
X6950995D01*
X6845196Y3537337D02*
Y3621976D01*
X6781717D01*
X6760557Y3600817D01*
Y3537337D01*
X6654758D02*
X6697078D01*
X6718237Y3558497D01*
Y3600817D01*
X6697078Y3621976D01*
X6654758D01*
X6633598Y3600817D01*
Y3579657D01*
X6718237D01*
X6443160Y3537337D02*
X6400840D01*
X6379680Y3558497D01*
Y3600817D01*
X6400840Y3621976D01*
X6443160D01*
X6464320Y3600817D01*
Y3558497D01*
X6443160Y3537337D01*
X6337361Y3664296D02*
Y3537337D01*
X6273881D01*
X6252721Y3558497D01*
Y3579657D01*
Y3600817D01*
X6273881Y3621976D01*
X6337361D01*
X6210402D02*
Y3537337D01*
Y3579657D01*
X6189242Y3600817D01*
X6168082Y3621976D01*
X6146922D01*
X6083443D02*
X5998804D01*
X6083443Y3537337D01*
X5998804D01*
X5956484Y3621976D02*
Y3558497D01*
X5935324Y3537337D01*
X5871845D01*
Y3516177D01*
X5893005Y3495017D01*
X5914164D01*
X5871845Y3537337D02*
Y3621976D01*
X5744886Y3664296D02*
Y3537337D01*
X5808366D01*
X5829525Y3558497D01*
Y3600817D01*
X5808366Y3621976D01*
X5744886D01*
X5702566Y3537337D02*
X5660247D01*
X5681407D01*
Y3664296D01*
X5702566D01*
X5596767Y3537337D02*
X5554448D01*
X5575608D01*
Y3621976D01*
X5596767D01*
X5490968Y3537337D02*
X5427489D01*
X5406329Y3558497D01*
X5427489Y3579657D01*
X5469808D01*
X5490968Y3600817D01*
X5469808Y3621976D01*
X5406329D01*
X5342850Y3643136D02*
Y3621976D01*
X5364009D01*
X5321690D01*
X5342850D01*
Y3558497D01*
X5321690Y3537337D01*
X5258210Y3621976D02*
Y3558497D01*
X5237050Y3537337D01*
X5215891Y3558497D01*
X5194731Y3537337D01*
X5173571Y3558497D01*
Y3621976D01*
X5110092Y3537337D02*
X5067772D01*
X5046612Y3558497D01*
Y3600817D01*
X5067772Y3621976D01*
X5110092D01*
X5131251Y3600817D01*
Y3558497D01*
X5110092Y3537337D01*
X5004293D02*
Y3558497D01*
X4983133D01*
Y3537337D01*
X5004293D01*
X4771535D02*
Y3664296D01*
X4708055D01*
X4686895Y3643136D01*
Y3600817D01*
X4708055Y3579657D01*
X4771535D01*
X4623416Y3537337D02*
X4581096D01*
X4559936Y3558497D01*
Y3600817D01*
X4581096Y3621976D01*
X4623416D01*
X4644576Y3600817D01*
Y3558497D01*
X4623416Y3537337D01*
X4306019Y3621976D02*
X4369498D01*
X4390658Y3600817D01*
Y3558497D01*
X4369498Y3537337D01*
X4306019D01*
X4242539D02*
X4200220D01*
X4179060Y3558497D01*
Y3600817D01*
X4200220Y3621976D01*
X4242539D01*
X4263699Y3600817D01*
Y3558497D01*
X4242539Y3537337D01*
X4009781Y3621976D02*
Y3558497D01*
X3988622Y3537337D01*
X3967462Y3558497D01*
X3946302Y3537337D01*
X3925142Y3558497D01*
Y3621976D01*
X3734704Y3537337D02*
X3692384D01*
X3671224Y3558497D01*
Y3600817D01*
X3692384Y3621976D01*
X3734704D01*
X3755864Y3600817D01*
Y3558497D01*
X3734704Y3537337D01*
X3586585Y3495017D02*
X3565425D01*
X3544265Y3516177D01*
Y3621976D01*
X3607745D01*
X3628905Y3600817D01*
Y3558497D01*
X3607745Y3537337D01*
X3544265D01*
X3480786D02*
X3438467D01*
X3417307Y3558497D01*
Y3600817D01*
X3438467Y3621976D01*
X3480786D01*
X3501946Y3600817D01*
Y3558497D01*
X3480786Y3537337D01*
X3374987D02*
X3332667D01*
X3353827D01*
Y3664296D01*
X3374987D01*
X3205709Y3537337D02*
X3248028D01*
X3269188Y3558497D01*
Y3600817D01*
X3248028Y3621976D01*
X3205709D01*
X3184549Y3600817D01*
Y3579657D01*
X3269188D01*
X2994111Y3643136D02*
Y3621976D01*
X3015270D01*
X2972951D01*
X2994111D01*
Y3558497D01*
X2972951Y3537337D01*
X2888311Y3621976D02*
X2845992D01*
X2824832Y3600817D01*
Y3537337D01*
X2888311D01*
X2909471Y3558497D01*
X2888311Y3579657D01*
X2824832D01*
X2782512Y3537337D02*
Y3664296D01*
Y3579657D02*
X2719033Y3621976D01*
X2782512Y3579657D02*
X2719033Y3537337D01*
X2655553D02*
X2613234D01*
X2634394D01*
Y3621976D01*
X2655553D01*
X2486275Y3537337D02*
X2528595D01*
X2549754Y3558497D01*
Y3600817D01*
X2528595Y3621976D01*
X2486275D01*
X2465115Y3600817D01*
Y3579657D01*
X2549754D01*
X2211197Y3621976D02*
X2274677D01*
X2295837Y3600817D01*
Y3558497D01*
X2274677Y3537337D01*
X2211197D01*
X2147718D02*
X2105398D01*
X2084238Y3558497D01*
Y3600817D01*
X2105398Y3621976D01*
X2147718D01*
X2168878Y3600817D01*
Y3558497D01*
X2147718Y3537337D01*
X2041919D02*
X1978440D01*
X1957280Y3558497D01*
X1978440Y3579657D01*
X2020759D01*
X2041919Y3600817D01*
X2020759Y3621976D01*
X1957280D01*
X1788001Y3495017D02*
X1766842D01*
X1745682Y3516177D01*
Y3621976D01*
X1597563Y3537337D02*
X1639883D01*
X1661042Y3558497D01*
Y3600817D01*
X1639883Y3621976D01*
X1597563D01*
X1576403Y3600817D01*
Y3579657D01*
X1661042D01*
X1534084Y3537337D02*
X1470604D01*
X1449444Y3558497D01*
X1470604Y3579657D01*
X1512924D01*
X1534084Y3600817D01*
X1512924Y3621976D01*
X1449444D01*
X1385965Y3643136D02*
Y3621976D01*
X1407125D01*
X1364805D01*
X1385965D01*
Y3558497D01*
X1364805Y3537337D01*
X1301326Y3643136D02*
X1280166Y3664296D01*
X1237846D01*
X1216686Y3643136D01*
Y3621976D01*
X1259006Y3579657D01*
Y3558497D02*
Y3537337D01*
X962768Y3664296D02*
X1005088D01*
X983928D01*
Y3558497D01*
X1005088Y3537337D01*
X1026248D01*
X1047408Y3558497D01*
X899289Y3621976D02*
X856970D01*
X835810Y3600817D01*
Y3537337D01*
X899289D01*
X920449Y3558497D01*
X899289Y3579657D01*
X835810D01*
X21022270Y3366346D02*
Y3281707D01*
Y3324026D01*
X21001109Y3345186D01*
X20979950Y3366346D01*
X20958791D01*
X20874152Y3281707D02*
X20831831D01*
X20810670Y3302866D01*
Y3345186D01*
X20831831Y3366346D01*
X20874152D01*
X20895311Y3345186D01*
Y3302866D01*
X20874152Y3281707D01*
X20768352Y3366346D02*
X20683713D01*
X20768352Y3281707D01*
X20683713D01*
X20641393Y3366346D02*
Y3302866D01*
X20620233Y3281707D01*
X20556754D01*
Y3366346D01*
X20514433Y3281707D02*
Y3366346D01*
X20493274D01*
X20472115Y3345186D01*
Y3281707D01*
Y3345186D01*
X20450955Y3366346D01*
X20429794Y3345186D01*
Y3281707D01*
X20387476D02*
X20345155D01*
X20366316D01*
Y3366346D01*
X20387476D01*
X20218198Y3281707D02*
X20260516D01*
X20281676Y3302866D01*
Y3345186D01*
X20260516Y3366346D01*
X20218198D01*
X20197037Y3345186D01*
Y3324026D01*
X20281676D01*
X20154716Y3281707D02*
Y3366346D01*
X20133559D01*
X20112398Y3345186D01*
Y3281707D01*
Y3345186D01*
X20091238Y3366346D01*
X20070078Y3345186D01*
Y3281707D01*
X19900800Y3239387D02*
X19879640D01*
X19858479Y3260547D01*
Y3366346D01*
X19710361Y3281707D02*
X19752681D01*
X19773840Y3302866D01*
Y3345186D01*
X19752681Y3366346D01*
X19710361D01*
X19689201Y3345186D01*
Y3324026D01*
X19773840D01*
X19646883Y3281707D02*
X19583403D01*
X19562244Y3302866D01*
X19583403Y3324026D01*
X19625722D01*
X19646883Y3345186D01*
X19625722Y3366346D01*
X19562244D01*
X19519923D02*
X19435284D01*
X19519923Y3281707D01*
X19435284D01*
X19308325Y3366346D02*
X19371805D01*
X19392964Y3345186D01*
Y3302866D01*
X19371805Y3281707D01*
X19308325D01*
X19266005Y3366346D02*
X19181366D01*
X19266005Y3281707D01*
X19181366D01*
X19075568D02*
X19117886D01*
X19139047Y3302866D01*
Y3345186D01*
X19117886Y3366346D01*
X19075568D01*
X19054407Y3345186D01*
Y3324026D01*
X19139047D01*
X18990929Y3260547D02*
X18969768Y3281707D01*
Y3302866D01*
X18990929D01*
Y3281707D01*
X18969768D01*
X18990929Y3260547D01*
X19012088Y3239387D01*
X18758170D02*
X18737010D01*
X18715849Y3260547D01*
Y3366346D01*
X18610051D02*
X18567732D01*
X18546571Y3345186D01*
Y3281707D01*
X18610051D01*
X18631210Y3302866D01*
X18610051Y3324026D01*
X18546571D01*
X18504253Y3281707D02*
Y3408666D01*
Y3324026D02*
X18440773Y3366346D01*
X18504253Y3324026D02*
X18440773Y3281707D01*
X18377293Y3408666D02*
Y3281707D01*
X18313814D01*
X18292654Y3302866D01*
Y3324026D01*
Y3345186D01*
X18313814Y3366346D01*
X18377293D01*
X18250336D02*
Y3302866D01*
X18229175Y3281707D01*
X18165695D01*
Y3260547D01*
X18186855Y3239387D01*
X18208015D01*
X18165695Y3281707D02*
Y3366346D01*
X17975256Y3387506D02*
Y3366346D01*
X17996417D01*
X17954097D01*
X17975256D01*
Y3302866D01*
X17954097Y3281707D01*
X17869458D02*
X17827138D01*
X17805978Y3302866D01*
Y3345186D01*
X17827138Y3366346D01*
X17869458D01*
X17890617Y3345186D01*
Y3302866D01*
X17869458Y3281707D01*
X17615540D02*
X17573221D01*
X17552061Y3302866D01*
Y3345186D01*
X17573221Y3366346D01*
X17615540D01*
X17636700Y3345186D01*
Y3302866D01*
X17615540Y3281707D01*
X17509741D02*
Y3366346D01*
X17446262D01*
X17425102Y3345186D01*
Y3281707D01*
X17255824D02*
Y3366346D01*
X17234663D01*
X17213504Y3345186D01*
Y3281707D01*
Y3345186D01*
X17192345Y3366346D01*
X17171184Y3345186D01*
Y3281707D01*
X17128865D02*
X17086545D01*
X17107706D01*
Y3366346D01*
X17128865D01*
X17001906D02*
X16959586D01*
X16938426Y3345186D01*
Y3281707D01*
X17001906D01*
X17023067Y3302866D01*
X17001906Y3324026D01*
X16938426D01*
X16896107Y3281707D02*
X16853787D01*
X16874947D01*
Y3408666D01*
X16896107D01*
X16663348Y3366346D02*
X16578709D01*
X16663348Y3281707D01*
X16578709D01*
X16536391D02*
X16494070D01*
X16515230D01*
Y3408666D01*
X16536391D01*
X16367111Y3281707D02*
X16409431D01*
X16430591Y3302866D01*
Y3345186D01*
X16409431Y3366346D01*
X16367111D01*
X16345950Y3345186D01*
Y3324026D01*
X16430591D01*
X16303632Y3281707D02*
Y3302866D01*
X16282472D01*
Y3281707D01*
X16303632D01*
X16070874D02*
Y3366346D01*
X16028554Y3408666D01*
X15986234Y3366346D01*
Y3281707D01*
Y3345186D01*
X16070874D01*
X15943915Y3281707D02*
X15901595D01*
X15922755D01*
Y3408666D01*
X15943915D01*
X15774635Y3281707D02*
X15816956D01*
X15838116Y3302866D01*
Y3345186D01*
X15816956Y3366346D01*
X15774635D01*
X15753476Y3345186D01*
Y3324026D01*
X15838116D01*
X15499559Y3366346D02*
X15563039D01*
X15584198Y3345186D01*
Y3302866D01*
X15563039Y3281707D01*
X15499559D01*
X15436079D02*
X15393761D01*
X15372600Y3302866D01*
Y3345186D01*
X15393761Y3366346D01*
X15436079D01*
X15457239Y3345186D01*
Y3302866D01*
X15436079Y3281707D01*
X15309122Y3260547D02*
X15287961Y3281707D01*
Y3302866D01*
X15309122D01*
Y3281707D01*
X15287961D01*
X15309122Y3260547D01*
X15330280Y3239387D01*
X15076363Y3281707D02*
Y3366346D01*
X15055203D01*
X15034042Y3345186D01*
Y3281707D01*
Y3345186D01*
X15012883Y3366346D01*
X14991724Y3345186D01*
Y3281707D01*
X14949403D02*
X14907085D01*
X14928244D01*
Y3366346D01*
X14949403D01*
X14780125Y3281707D02*
X14822446D01*
X14843605Y3302866D01*
Y3345186D01*
X14822446Y3366346D01*
X14780125D01*
X14758965Y3345186D01*
Y3324026D01*
X14843605D01*
X14716646Y3281707D02*
X14653168D01*
X14632007Y3302866D01*
X14653168Y3324026D01*
X14695486D01*
X14716646Y3345186D01*
X14695486Y3366346D01*
X14632007D01*
X14589687D02*
X14505048D01*
X14589687Y3281707D01*
X14505048D01*
X14462727D02*
Y3408666D01*
Y3324026D02*
X14399249Y3366346D01*
X14462727Y3324026D02*
X14399249Y3281707D01*
X14314610Y3366346D02*
X14272290D01*
X14251131Y3345186D01*
Y3281707D01*
X14314610D01*
X14335770Y3302866D01*
X14314610Y3324026D01*
X14251131D01*
X14208810Y3281707D02*
Y3366346D01*
X14145331D01*
X14124171Y3345186D01*
Y3281707D01*
X14081853D02*
X14039532D01*
X14060692D01*
Y3366346D01*
X14081853D01*
X13912573Y3281707D02*
X13954893D01*
X13976053Y3302866D01*
Y3345186D01*
X13954893Y3366346D01*
X13912573D01*
X13891412Y3345186D01*
Y3324026D01*
X13976053D01*
X13722134Y3281707D02*
Y3366346D01*
X13700975D01*
X13679816Y3345186D01*
Y3281707D01*
Y3345186D01*
X13658655Y3366346D01*
X13637495Y3345186D01*
Y3281707D01*
X13574016Y3366346D02*
X13531697D01*
X13510538Y3345186D01*
Y3281707D01*
X13574016D01*
X13595177Y3302866D01*
X13574016Y3324026D01*
X13510538D01*
X13447057Y3260547D02*
X13425897Y3281707D01*
Y3302866D01*
X13447057D01*
Y3281707D01*
X13425897D01*
X13447057Y3260547D01*
X13468217Y3239387D01*
X13214299Y3281707D02*
X13150819D01*
X13129660Y3302866D01*
X13150819Y3324026D01*
X13193140D01*
X13214299Y3345186D01*
X13193140Y3366346D01*
X13129660D01*
X13066180D02*
X13023862D01*
X13002701Y3345186D01*
Y3281707D01*
X13066180D01*
X13087341Y3302866D01*
X13066180Y3324026D01*
X13002701D01*
X12960382Y3281707D02*
Y3366346D01*
X12939223D01*
X12918062Y3345186D01*
Y3281707D01*
Y3345186D01*
X12896902Y3366346D01*
X12875742Y3345186D01*
Y3281707D01*
X12812263D02*
X12769943D01*
X12748783Y3302866D01*
Y3345186D01*
X12769943Y3366346D01*
X12812263D01*
X12833423Y3345186D01*
Y3302866D01*
X12812263Y3281707D01*
X12621825Y3366346D02*
X12685304D01*
X12706464Y3345186D01*
Y3302866D01*
X12685304Y3281707D01*
X12621825D01*
X12579505Y3408666D02*
Y3281707D01*
Y3345186D01*
X12558345Y3366346D01*
X12516026D01*
X12494866Y3345186D01*
Y3281707D01*
X12431387D02*
X12389067D01*
X12367907Y3302866D01*
Y3345186D01*
X12389067Y3366346D01*
X12431387D01*
X12452546Y3345186D01*
Y3302866D01*
X12431387Y3281707D01*
X12240948Y3408666D02*
Y3281707D01*
X12304428D01*
X12325587Y3302866D01*
Y3345186D01*
X12304428Y3366346D01*
X12240948D01*
X12071670Y3281707D02*
Y3366346D01*
X12050510D01*
X12029350Y3345186D01*
Y3281707D01*
Y3345186D01*
X12008190Y3366346D01*
X11987030Y3345186D01*
Y3281707D01*
X11923551Y3366346D02*
X11881232D01*
X11860072Y3345186D01*
Y3281707D01*
X11923551D01*
X11944711Y3302866D01*
X11923551Y3324026D01*
X11860072D01*
X11796592Y3260547D02*
X11775432Y3281707D01*
Y3302866D01*
X11796592D01*
Y3281707D01*
X11775432D01*
X11796592Y3260547D01*
X11817752Y3239387D01*
X11542675Y3387506D02*
Y3366346D01*
X11563834D01*
X11521515D01*
X11542675D01*
Y3302866D01*
X11521515Y3281707D01*
X11394556D02*
X11436876D01*
X11458035Y3302866D01*
Y3345186D01*
X11436876Y3366346D01*
X11394556D01*
X11373396Y3345186D01*
Y3324026D01*
X11458035D01*
X11331076Y3281707D02*
X11288757D01*
X11309917D01*
Y3408666D01*
X11331076D01*
X11161798Y3281707D02*
X11204118D01*
X11225277Y3302866D01*
Y3345186D01*
X11204118Y3366346D01*
X11161798D01*
X11140638Y3345186D01*
Y3324026D01*
X11225277D01*
X11098318Y3366346D02*
Y3302866D01*
X11077159Y3281707D01*
X11055999Y3302866D01*
X11034839Y3281707D01*
X11013679Y3302866D01*
Y3366346D01*
X10971360Y3281707D02*
X10929040D01*
X10950200D01*
Y3366346D01*
X10971360D01*
X10865560D02*
X10780921D01*
X10865560Y3281707D01*
X10780921D01*
X10717442D02*
X10675122D01*
X10653962Y3302866D01*
Y3345186D01*
X10675122Y3366346D01*
X10717442D01*
X10738602Y3345186D01*
Y3302866D01*
X10717442Y3281707D01*
X10611643Y3366346D02*
Y3281707D01*
Y3324026D01*
X10590483Y3345186D01*
X10569323Y3366346D01*
X10548163D01*
X10357725Y3281707D02*
Y3366346D01*
X10336565D01*
X10315405Y3345186D01*
Y3281707D01*
Y3345186D01*
X10294246Y3366346D01*
X10273086Y3345186D01*
Y3281707D01*
X10209606Y3366346D02*
X10167287D01*
X10146127Y3345186D01*
Y3281707D01*
X10209606D01*
X10230766Y3302866D01*
X10209606Y3324026D01*
X10146127D01*
X10082648Y3260547D02*
X10061488Y3281707D01*
Y3302866D01*
X10082648D01*
Y3281707D01*
X10061488D01*
X10082648Y3260547D01*
X10103807Y3239387D01*
X9849890D02*
Y3366346D01*
X9786410D01*
X9765250Y3345186D01*
Y3302866D01*
X9786410Y3281707D01*
X9849890D01*
X9722931D02*
X9680611D01*
X9701771D01*
Y3366346D01*
X9722931D01*
X9553652Y3281707D02*
X9595972D01*
X9617132Y3302866D01*
Y3345186D01*
X9595972Y3366346D01*
X9553652D01*
X9532492Y3345186D01*
Y3324026D01*
X9617132D01*
X9490173Y3281707D02*
Y3366346D01*
X9426693D01*
X9405533Y3345186D01*
Y3281707D01*
X9363214D02*
X9320894D01*
X9342054D01*
Y3366346D01*
X9363214D01*
X9236255D02*
X9193935D01*
X9172775Y3345186D01*
Y3281707D01*
X9236255D01*
X9257415Y3302866D01*
X9236255Y3324026D01*
X9172775D01*
X9045817Y3408666D02*
Y3281707D01*
X9109296D01*
X9130456Y3302866D01*
Y3345186D01*
X9109296Y3366346D01*
X9045817D01*
X9003497D02*
X8918858D01*
X9003497Y3281707D01*
X8918858D01*
X8813059D02*
X8855379D01*
X8876538Y3302866D01*
Y3345186D01*
X8855379Y3366346D01*
X8813059D01*
X8791899Y3345186D01*
Y3324026D01*
X8876538D01*
X8622621Y3366346D02*
Y3302866D01*
X8601461Y3281707D01*
X8580301Y3302866D01*
X8559141Y3281707D01*
X8537981Y3302866D01*
Y3366346D01*
X8368703Y3408666D02*
Y3281707D01*
X8305223D01*
X8284063Y3302866D01*
Y3324026D01*
Y3345186D01*
X8305223Y3366346D01*
X8368703D01*
X8220584D02*
X8178265D01*
X8157105Y3345186D01*
Y3281707D01*
X8220584D01*
X8241744Y3302866D01*
X8220584Y3324026D01*
X8157105D01*
X8114785Y3281707D02*
Y3366346D01*
X8051306D01*
X8030146Y3345186D01*
Y3281707D01*
X7987826D02*
Y3408666D01*
Y3324026D02*
X7924347Y3366346D01*
X7987826Y3324026D02*
X7924347Y3281707D01*
X7839708D02*
X7797388D01*
X7776228Y3302866D01*
Y3345186D01*
X7797388Y3366346D01*
X7839708D01*
X7860867Y3345186D01*
Y3302866D01*
X7839708Y3281707D01*
X7733909D02*
Y3366346D01*
X7712749D01*
X7691589Y3345186D01*
Y3281707D01*
Y3345186D01*
X7670429Y3366346D01*
X7649269Y3345186D01*
Y3281707D01*
X7585790Y3366346D02*
X7543470D01*
X7522310Y3345186D01*
Y3281707D01*
X7585790D01*
X7606950Y3302866D01*
X7585790Y3324026D01*
X7522310D01*
X7395351Y3366346D02*
X7458831D01*
X7479991Y3345186D01*
Y3302866D01*
X7458831Y3281707D01*
X7395351D01*
X7353032D02*
X7310712D01*
X7331872D01*
Y3366346D01*
X7353032D01*
X7183753Y3281707D02*
X7226073D01*
X7247233Y3302866D01*
Y3345186D01*
X7226073Y3366346D01*
X7183753D01*
X7162593Y3345186D01*
Y3324026D01*
X7247233D01*
X6993315Y3281707D02*
Y3366346D01*
X6972155D01*
X6950995Y3345186D01*
Y3281707D01*
Y3345186D01*
X6929836Y3366346D01*
X6908676Y3345186D01*
Y3281707D01*
X6845197Y3366346D02*
X6802877D01*
X6781717Y3345186D01*
Y3281707D01*
X6845197D01*
X6866356Y3302866D01*
X6845197Y3324026D01*
X6781717D01*
X6739397Y3281707D02*
Y3302866D01*
X6718238D01*
Y3281707D01*
X6739397D01*
X6422000Y3387506D02*
X6443160Y3408666D01*
X6485480D01*
X6506640Y3387506D01*
Y3366346D01*
X6485480Y3345186D01*
X6443160D01*
X6422000Y3324026D01*
Y3302866D01*
X6443160Y3281707D01*
X6485480D01*
X6506640Y3302866D01*
X6358521Y3366346D02*
X6316201D01*
X6295041Y3345186D01*
Y3281707D01*
X6358521D01*
X6379681Y3302866D01*
X6358521Y3324026D01*
X6295041D01*
X6252722Y3281707D02*
Y3366346D01*
X6231562D01*
X6210402Y3345186D01*
Y3281707D01*
Y3345186D01*
X6189242Y3366346D01*
X6168082Y3345186D01*
Y3281707D01*
X6104603Y3260547D02*
X6083443Y3281707D01*
Y3302866D01*
X6104603D01*
Y3281707D01*
X6083443D01*
X6104603Y3260547D01*
X6125763Y3239387D01*
X5871845Y3366346D02*
X5787206D01*
X5871845Y3281707D01*
X5787206D01*
X5681407D02*
X5723727D01*
X5744886Y3302866D01*
Y3345186D01*
X5723727Y3366346D01*
X5681407D01*
X5660247Y3345186D01*
Y3324026D01*
X5744886D01*
X5617928Y3281707D02*
Y3366346D01*
X5596768D01*
X5575608Y3345186D01*
Y3281707D01*
Y3345186D01*
X5554448Y3366346D01*
X5533288Y3345186D01*
Y3281707D01*
X5364010Y3366346D02*
Y3302866D01*
X5342850Y3281707D01*
X5321690Y3302866D01*
X5300530Y3281707D01*
X5279370Y3302866D01*
Y3366346D01*
X5237051Y3281707D02*
X5194731D01*
X5215891D01*
Y3366346D01*
X5237051D01*
X5046612Y3408666D02*
Y3281707D01*
X5110092D01*
X5131252Y3302866D01*
Y3345186D01*
X5110092Y3366346D01*
X5046612D01*
X5004293D02*
X4919654D01*
X5004293Y3281707D01*
X4919654D01*
X4877334D02*
X4835014D01*
X4856174D01*
Y3366346D01*
X4877334D01*
X4750375D02*
X4708056D01*
X4686896Y3345186D01*
Y3281707D01*
X4750375D01*
X4771535Y3302866D01*
X4750375Y3324026D01*
X4686896D01*
X4644576Y3281707D02*
X4602256D01*
X4623416D01*
Y3408666D01*
X4644576D01*
X4411818Y3239387D02*
X4390658D01*
X4369498Y3260547D01*
Y3366346D01*
X4263700D02*
X4221380D01*
X4200220Y3345186D01*
Y3281707D01*
X4263700D01*
X4284859Y3302866D01*
X4263700Y3324026D01*
X4200220D01*
X4157900Y3281707D02*
Y3408666D01*
Y3324026D02*
X4094421Y3366346D01*
X4157900Y3324026D02*
X4094421Y3281707D01*
X3903983Y3366346D02*
Y3302866D01*
X3882823Y3281707D01*
X3861663Y3302866D01*
X3840503Y3281707D01*
X3819343Y3302866D01*
Y3366346D01*
X3777024D02*
Y3302866D01*
X3755864Y3281707D01*
X3692385D01*
Y3260547D01*
X3713545Y3239387D01*
X3734704D01*
X3692385Y3281707D02*
Y3366346D01*
X3650065Y3408666D02*
Y3281707D01*
X3586586D01*
X3565426Y3302866D01*
Y3324026D01*
Y3345186D01*
X3586586Y3366346D01*
X3650065D01*
X3523106Y3281707D02*
X3480787D01*
X3501947D01*
Y3366346D01*
X3523106D01*
X3353828Y3281707D02*
X3396147D01*
X3417307Y3302866D01*
Y3345186D01*
X3396147Y3366346D01*
X3353828D01*
X3332668Y3345186D01*
Y3324026D01*
X3417307D01*
X3290348Y3366346D02*
Y3281707D01*
Y3324026D01*
X3269189Y3345186D01*
X3248029Y3366346D01*
X3226869D01*
X3142230D02*
X3099910D01*
X3078750Y3345186D01*
Y3281707D01*
X3142230D01*
X3163389Y3302866D01*
X3142230Y3324026D01*
X3078750D01*
X3036431Y3281707D02*
X2994111D01*
X3015271D01*
Y3408666D01*
X3036431D01*
X2930631Y3281707D02*
Y3302866D01*
X2909472D01*
Y3281707D01*
X2930631D01*
X21022270Y2876245D02*
X20937630D01*
X20895311Y2812766D02*
Y2939724D01*
X20810670Y2812766D01*
Y2939724D01*
X20747192Y2812766D02*
X20704872D01*
X20683713Y2833925D01*
Y2876245D01*
X20704872Y2897405D01*
X20747192D01*
X20768352Y2876245D01*
Y2833925D01*
X20747192Y2812766D01*
X20514433D02*
X20450955D01*
X20429794Y2833925D01*
X20450955Y2855085D01*
X20493274D01*
X20514433Y2876245D01*
X20493274Y2897405D01*
X20429794D01*
X20387476D02*
X20302837D01*
X20387476Y2812766D01*
X20302837D01*
X20260516D02*
Y2939724D01*
Y2855085D02*
X20197037Y2897405D01*
X20260516Y2855085D02*
X20197037Y2812766D01*
X20112398D02*
X20070078D01*
X20048918Y2833925D01*
Y2876245D01*
X20070078Y2897405D01*
X20112398D01*
X20133559Y2876245D01*
Y2833925D01*
X20112398Y2812766D01*
X19921959Y2939724D02*
Y2812766D01*
X19985439D01*
X20006599Y2833925D01*
Y2876245D01*
X19985439Y2897405D01*
X19921959D01*
X19858479D02*
X19816161D01*
X19795001Y2876245D01*
Y2812766D01*
X19858479D01*
X19879640Y2833925D01*
X19858479Y2855085D01*
X19795001D01*
X19731522Y2791606D02*
X19710361Y2812766D01*
Y2833925D01*
X19731522D01*
Y2812766D01*
X19710361D01*
X19731522Y2791606D01*
X19752681Y2770446D01*
X19498763Y2897405D02*
X19414124D01*
X19498763Y2812766D01*
X19414124D01*
X19308325D02*
X19350645D01*
X19371805Y2833925D01*
Y2876245D01*
X19350645Y2897405D01*
X19308325D01*
X19287164Y2876245D01*
Y2855085D01*
X19371805D01*
X19096727Y2918565D02*
Y2897405D01*
X19117886D01*
X19075568D01*
X19096727D01*
Y2833925D01*
X19075568Y2812766D01*
X19012088Y2897405D02*
Y2833925D01*
X18990929Y2812766D01*
X18927448D01*
Y2791606D01*
X18948608Y2770446D01*
X18969768D01*
X18927448Y2812766D02*
Y2897405D01*
X18758170Y2812766D02*
Y2897405D01*
X18694691D01*
X18673531Y2876245D01*
Y2812766D01*
X18631210D02*
X18588892D01*
X18610051D01*
Y2897405D01*
X18631210D01*
X18461932Y2812766D02*
X18504253D01*
X18525412Y2833925D01*
Y2876245D01*
X18504253Y2897405D01*
X18461932D01*
X18440773Y2876245D01*
Y2855085D01*
X18525412D01*
X18271494Y2812766D02*
Y2897405D01*
X18250336D01*
X18229175Y2876245D01*
Y2812766D01*
Y2876245D01*
X18208015Y2897405D01*
X18186855Y2876245D01*
Y2812766D01*
X18123376Y2897405D02*
X18081056D01*
X18059895Y2876245D01*
Y2812766D01*
X18123376D01*
X18144534Y2833925D01*
X18123376Y2855085D01*
X18059895D01*
X18017577Y2812766D02*
X17954097D01*
X17932938Y2833925D01*
X17954097Y2855085D01*
X17996417D01*
X18017577Y2876245D01*
X17996417Y2897405D01*
X17932938D01*
X17890617D02*
X17805978D01*
X17890617Y2812766D01*
X17805978D01*
X17636700Y2897405D02*
X17552061D01*
X17636700Y2812766D01*
X17552061D01*
X17298143Y2897405D02*
X17361623D01*
X17382782Y2876245D01*
Y2833925D01*
X17361623Y2812766D01*
X17298143D01*
X17255824Y2897405D02*
X17171184D01*
X17255824Y2812766D01*
X17171184D01*
X17065385D02*
X17107706D01*
X17128865Y2833925D01*
Y2876245D01*
X17107706Y2897405D01*
X17065385D01*
X17044225Y2876245D01*
Y2855085D01*
X17128865D01*
X16959586Y2770446D02*
X16938426D01*
X16917265Y2791606D01*
Y2897405D01*
X16980746D01*
X17001906Y2876245D01*
Y2833925D01*
X16980746Y2812766D01*
X16917265D01*
X16853787D02*
X16811469D01*
X16790308Y2833925D01*
Y2876245D01*
X16811469Y2897405D01*
X16853787D01*
X16874947Y2876245D01*
Y2833925D01*
X16853787Y2812766D01*
X16621030Y2897405D02*
Y2833925D01*
X16599870Y2812766D01*
X16578709Y2833925D01*
X16557550Y2812766D01*
X16536391Y2833925D01*
Y2897405D01*
X16494070D02*
Y2833925D01*
X16472911Y2812766D01*
X16409431D01*
Y2791606D01*
X16430591Y2770446D01*
X16451752D01*
X16409431Y2812766D02*
Y2897405D01*
X16367113Y2939724D02*
Y2812766D01*
X16303632D01*
X16282472Y2833925D01*
Y2855085D01*
Y2876245D01*
X16303632Y2897405D01*
X16367113D01*
X16240154Y2812766D02*
X16197833D01*
X16218993D01*
Y2897405D01*
X16240154D01*
X16070874Y2812766D02*
X16113194D01*
X16134354Y2833925D01*
Y2876245D01*
X16113194Y2897405D01*
X16070874D01*
X16049715Y2876245D01*
Y2855085D01*
X16134354D01*
X16007394Y2897405D02*
Y2812766D01*
Y2855085D01*
X15986235Y2876245D01*
X15965076Y2897405D01*
X15943915D01*
X15859276D02*
X15816956D01*
X15795796Y2876245D01*
Y2812766D01*
X15859276D01*
X15880437Y2833925D01*
X15859276Y2855085D01*
X15795796D01*
X15668839Y2897405D02*
X15732317D01*
X15753477Y2876245D01*
Y2833925D01*
X15732317Y2812766D01*
X15668839D01*
X15626518D02*
Y2833925D01*
X15605357D01*
Y2812766D01*
X15626518D01*
X21022270Y2620615D02*
X20937630D01*
X20895311Y2684094D02*
Y2557135D01*
Y2599455D01*
X20810670Y2684094D01*
X20874152Y2620615D01*
X20810670Y2557135D01*
X20768352Y2641774D02*
Y2578295D01*
X20747192Y2557135D01*
X20683713D01*
Y2641774D01*
X20641393D02*
Y2557135D01*
Y2599455D01*
X20620233Y2620615D01*
X20599072Y2641774D01*
X20577914D01*
X20429794Y2684094D02*
Y2557135D01*
X20493274D01*
X20514433Y2578295D01*
Y2620615D01*
X20493274Y2641774D01*
X20429794D01*
X20323996Y2557135D02*
X20366316D01*
X20387476Y2578295D01*
Y2620615D01*
X20366316Y2641774D01*
X20323996D01*
X20302837Y2620615D01*
Y2599455D01*
X20387476D01*
X20239357Y2535975D02*
X20218198Y2557135D01*
Y2578295D01*
X20239357D01*
Y2557135D01*
X20218198D01*
X20239357Y2535975D01*
X20260516Y2514815D01*
X20006599D02*
X19985439D01*
X19964279Y2535975D01*
Y2641774D01*
X19858479D02*
X19816161D01*
X19795001Y2620615D01*
Y2557135D01*
X19858479D01*
X19879640Y2578295D01*
X19858479Y2599455D01*
X19795001D01*
X19752681Y2557135D02*
Y2684094D01*
Y2599455D02*
X19689201Y2641774D01*
X19752681Y2599455D02*
X19689201Y2557135D01*
X19498763Y2514815D02*
X19477605D01*
X19456444Y2535975D01*
Y2641774D01*
X19350645D02*
X19308325D01*
X19287164Y2620615D01*
Y2557135D01*
X19350645D01*
X19371805Y2578295D01*
X19350645Y2599455D01*
X19287164D01*
X19075568Y2514815D02*
X19054407D01*
X19033247Y2535975D01*
Y2641774D01*
X19096727D01*
X19117886Y2620615D01*
Y2578295D01*
X19096727Y2557135D01*
X19033247D01*
X18969768D02*
X18927449D01*
X18906290Y2578295D01*
Y2620615D01*
X18927449Y2641774D01*
X18969768D01*
X18990929Y2620615D01*
Y2578295D01*
X18969768Y2557135D01*
X18737010D02*
Y2641774D01*
X18673531D01*
X18652371Y2620615D01*
Y2557135D01*
X18610051D02*
X18567732D01*
X18588892D01*
Y2641774D01*
X18610051D01*
X18440773Y2557135D02*
X18483093D01*
X18504253Y2578295D01*
Y2620615D01*
X18483093Y2641774D01*
X18440773D01*
X18419614Y2620615D01*
Y2599455D01*
X18504253D01*
X18377293Y2557135D02*
Y2641774D01*
X18313814D01*
X18292654Y2620615D01*
Y2557135D01*
X18229175Y2641774D02*
X18186855D01*
X18165695Y2620615D01*
Y2557135D01*
X18229175D01*
X18250336Y2578295D01*
X18229175Y2599455D01*
X18165695D01*
X18123376Y2641774D02*
Y2578295D01*
X18102216Y2557135D01*
X18081056Y2578295D01*
X18059895Y2557135D01*
X18038736Y2578295D01*
Y2641774D01*
X17996417Y2557135D02*
X17954097D01*
X17975256D01*
Y2641774D01*
X17996417D01*
X17805978Y2684094D02*
Y2557135D01*
X17869458D01*
X17890617Y2578295D01*
Y2620615D01*
X17869458Y2641774D01*
X17805978D01*
X17763660D02*
X17679021D01*
X17763660Y2557135D01*
X17679021D01*
X17573221D02*
X17615540D01*
X17636700Y2578295D01*
Y2620615D01*
X17615540Y2641774D01*
X17573221D01*
X17552061Y2620615D01*
Y2599455D01*
X17636700D01*
X17509741Y2557135D02*
Y2578295D01*
X17488580D01*
Y2557135D01*
X17509741D01*
X17403941D02*
Y2578295D01*
X17382782D01*
Y2557135D01*
X17403941D01*
X17298143D02*
Y2578295D01*
X17276984D01*
Y2557135D01*
X17298143D01*
X17065385D02*
X17023065D01*
X17044225D01*
Y2641774D01*
X17065385D01*
X16832626Y2514815D02*
Y2641774D01*
X16769148D01*
X16747987Y2620615D01*
Y2578295D01*
X16769148Y2557135D01*
X16832626D01*
X16684508D02*
X16642189D01*
X16621030Y2578295D01*
Y2620615D01*
X16642189Y2641774D01*
X16684508D01*
X16705669Y2620615D01*
Y2578295D01*
X16684508Y2557135D01*
X16367111Y2641774D02*
X16430591D01*
X16451750Y2620615D01*
Y2578295D01*
X16430591Y2557135D01*
X16367111D01*
X16303632D02*
X16261311D01*
X16240152Y2578295D01*
Y2620615D01*
X16261311Y2641774D01*
X16303632D01*
X16324792Y2620615D01*
Y2578295D01*
X16303632Y2557135D01*
X16070874Y2641774D02*
Y2578295D01*
X16049715Y2557135D01*
X16028554Y2578295D01*
X16007394Y2557135D01*
X15986234Y2578295D01*
Y2641774D01*
X15795796Y2557135D02*
X15753477D01*
X15732317Y2578295D01*
Y2620615D01*
X15753477Y2641774D01*
X15795796D01*
X15816956Y2620615D01*
Y2578295D01*
X15795796Y2557135D01*
X15647678Y2514815D02*
X15626518D01*
X15605357Y2535975D01*
Y2641774D01*
X15668839D01*
X15689996Y2620615D01*
Y2578295D01*
X15668839Y2557135D01*
X15605357D01*
X15541879D02*
X15499559D01*
X15478400Y2578295D01*
Y2620615D01*
X15499559Y2641774D01*
X15541879D01*
X15563039Y2620615D01*
Y2578295D01*
X15541879Y2557135D01*
X15436079D02*
X15393761D01*
X15414920D01*
Y2684094D01*
X15436079D01*
X15266801Y2557135D02*
X15309122D01*
X15330280Y2578295D01*
Y2620615D01*
X15309122Y2641774D01*
X15266801D01*
X15245641Y2620615D01*
Y2599455D01*
X15330280D01*
X15055203Y2662934D02*
Y2641774D01*
X15076363D01*
X15034042D01*
X15055203D01*
Y2578295D01*
X15034042Y2557135D01*
X14949403Y2641774D02*
X14907085D01*
X14885924Y2620615D01*
Y2557135D01*
X14949403D01*
X14970564Y2578295D01*
X14949403Y2599455D01*
X14885924D01*
X14843605Y2557135D02*
Y2684094D01*
Y2599455D02*
X14780125Y2641774D01*
X14843605Y2599455D02*
X14780125Y2557135D01*
X14716646D02*
X14674326D01*
X14695486D01*
Y2641774D01*
X14716646D01*
X14547366Y2557135D02*
X14589687D01*
X14610847Y2578295D01*
Y2620615D01*
X14589687Y2641774D01*
X14547366D01*
X14526207Y2620615D01*
Y2599455D01*
X14610847D01*
X14272290Y2641774D02*
X14335770D01*
X14356929Y2620615D01*
Y2578295D01*
X14335770Y2557135D01*
X14272290D01*
X14208810D02*
X14166492D01*
X14145331Y2578295D01*
Y2620615D01*
X14166492Y2641774D01*
X14208810D01*
X14229970Y2620615D01*
Y2578295D01*
X14208810Y2557135D01*
X14103011D02*
X14039532D01*
X14018372Y2578295D01*
X14039532Y2599455D01*
X14081853D01*
X14103011Y2620615D01*
X14081853Y2641774D01*
X14018372D01*
X13849094Y2514815D02*
X13827934D01*
X13806773Y2535975D01*
Y2641774D01*
X13658655Y2557135D02*
X13700975D01*
X13722134Y2578295D01*
Y2620615D01*
X13700975Y2641774D01*
X13658655D01*
X13637495Y2620615D01*
Y2599455D01*
X13722134D01*
X13595177Y2557135D02*
X13531697D01*
X13510538Y2578295D01*
X13531697Y2599455D01*
X13574016D01*
X13595177Y2620615D01*
X13574016Y2641774D01*
X13510538D01*
X13447057Y2662934D02*
Y2641774D01*
X13468217D01*
X13425897D01*
X13447057D01*
Y2578295D01*
X13425897Y2557135D01*
X13362418D02*
Y2578295D01*
X13341258D01*
Y2557135D01*
X13362418D01*
X13256619D02*
Y2578295D01*
X13235458D01*
Y2557135D01*
X13256619D01*
X13150819D02*
Y2578295D01*
X13129660D01*
Y2557135D01*
X13150819D01*
X12918062D02*
Y2684094D01*
X12854582D01*
X12833421Y2662934D01*
Y2620615D01*
X12854582Y2599455D01*
X12918062D01*
X12769943Y2557135D02*
X12727624D01*
X12706464Y2578295D01*
Y2620615D01*
X12727624Y2641774D01*
X12769943D01*
X12791103Y2620615D01*
Y2578295D01*
X12769943Y2557135D01*
X12452546Y2641774D02*
X12516026D01*
X12537185Y2620615D01*
Y2578295D01*
X12516026Y2557135D01*
X12452546D01*
X12389067D02*
X12346747D01*
X12325587Y2578295D01*
Y2620615D01*
X12346747Y2641774D01*
X12389067D01*
X12410226Y2620615D01*
Y2578295D01*
X12389067Y2557135D01*
X12283268Y2662934D02*
X12262108Y2684094D01*
X12219788D01*
X12198628Y2662934D01*
Y2641774D01*
X12240948Y2599455D01*
Y2578295D02*
Y2557135D01*
X12029350Y2684094D02*
Y2557135D01*
X11965870D01*
X11944710Y2578295D01*
Y2662934D01*
X11965870Y2684094D01*
X12029350D01*
X11902391Y2557135D02*
X11860071D01*
X11881231D01*
Y2684094D01*
X11902391D01*
X11775432Y2641774D02*
X11733112D01*
X11711952Y2620615D01*
Y2557135D01*
X11775432D01*
X11796592Y2578295D01*
X11775432Y2599455D01*
X11711952D01*
X11584994Y2641774D02*
X11648473D01*
X11669633Y2620615D01*
Y2578295D01*
X11648473Y2557135D01*
X11584994D01*
X11542674Y2641774D02*
X11458035D01*
X11542674Y2557135D01*
X11458035D01*
X11352236D02*
X11394556D01*
X11415715Y2578295D01*
Y2620615D01*
X11394556Y2641774D01*
X11352236D01*
X11331076Y2620615D01*
Y2599455D01*
X11415715D01*
X11246437Y2514815D02*
X11225277D01*
X11204117Y2535975D01*
Y2641774D01*
X11267597D01*
X11288756Y2620615D01*
Y2578295D01*
X11267597Y2557135D01*
X11204117D01*
X11140638D02*
X11098318D01*
X11077158Y2578295D01*
Y2620615D01*
X11098318Y2641774D01*
X11140638D01*
X11161798Y2620615D01*
Y2578295D01*
X11140638Y2557135D01*
X10886720D02*
X10844400D01*
X10823240Y2578295D01*
Y2620615D01*
X10844400Y2641774D01*
X10886720D01*
X10907880Y2620615D01*
Y2578295D01*
X10886720Y2557135D01*
X10780921D02*
Y2641774D01*
X10717442D01*
X10696282Y2620615D01*
Y2557135D01*
X10505844Y2662934D02*
Y2641774D01*
X10527003D01*
X10484684D01*
X10505844D01*
Y2578295D01*
X10484684Y2557135D01*
X10400044Y2641774D02*
X10357725D01*
X10336565Y2620615D01*
Y2557135D01*
X10400044D01*
X10421204Y2578295D01*
X10400044Y2599455D01*
X10336565D01*
X10294245Y2557135D02*
Y2684094D01*
Y2599455D02*
X10230766Y2641774D01*
X10294245Y2599455D02*
X10230766Y2557135D01*
X10167286D02*
X10124967D01*
X10146127D01*
Y2641774D01*
X10167286D01*
X9934529Y2514815D02*
X9913369D01*
X9892209Y2535975D01*
Y2641774D01*
X9744090Y2557135D02*
X9786410D01*
X9807570Y2578295D01*
Y2620615D01*
X9786410Y2641774D01*
X9744090D01*
X9722930Y2620615D01*
Y2599455D01*
X9807570D01*
X9680611Y2557135D02*
X9617131D01*
X9595971Y2578295D01*
X9617131Y2599455D01*
X9659451D01*
X9680611Y2620615D01*
X9659451Y2641774D01*
X9595971D01*
X9532492Y2662934D02*
Y2641774D01*
X9553652D01*
X9511332D01*
X9532492D01*
Y2578295D01*
X9511332Y2557135D01*
X9447853Y2662934D02*
X9426693Y2684094D01*
X9384373D01*
X9363213Y2662934D01*
Y2641774D01*
X9405533Y2599455D01*
Y2578295D02*
Y2557135D01*
X21022270Y2343824D02*
X20937630D01*
X20810670Y2407304D02*
X20895311D01*
Y2343824D01*
X20852991D01*
X20895311D01*
Y2280345D01*
X20704872D02*
X20747192D01*
X20768352Y2301504D01*
Y2343824D01*
X20747192Y2364984D01*
X20704872D01*
X20683713Y2343824D01*
Y2322664D01*
X20768352D01*
X20641393Y2364984D02*
Y2280345D01*
Y2322664D01*
X20620233Y2343824D01*
X20599072Y2364984D01*
X20577914D01*
X20429794Y2407304D02*
Y2280345D01*
X20493274D01*
X20514433Y2301504D01*
Y2343824D01*
X20493274Y2364984D01*
X20429794D01*
X20323996Y2280345D02*
X20366316D01*
X20387476Y2301504D01*
Y2343824D01*
X20366316Y2364984D01*
X20323996D01*
X20302837Y2343824D01*
Y2322664D01*
X20387476D01*
X20260516Y2280345D02*
Y2407304D01*
Y2322664D02*
X20197037Y2364984D01*
X20260516Y2322664D02*
X20197037Y2280345D01*
X20112398Y2259185D02*
X20091238Y2280345D01*
Y2301504D01*
X20112398D01*
Y2280345D01*
X20091238D01*
X20112398Y2259185D01*
X20133559Y2238025D01*
X19879640Y2280345D02*
Y2364984D01*
X19816161D01*
X19795001Y2343824D01*
Y2280345D01*
X19752681D02*
X19710361D01*
X19731522D01*
Y2364984D01*
X19752681D01*
X19583403Y2280345D02*
X19625722D01*
X19646883Y2301504D01*
Y2343824D01*
X19625722Y2364984D01*
X19583403D01*
X19562244Y2343824D01*
Y2322664D01*
X19646883D01*
X19392964Y2364984D02*
Y2301504D01*
X19371805Y2280345D01*
X19350645Y2301504D01*
X19329485Y2280345D01*
X19308325Y2301504D01*
Y2364984D01*
X19266005Y2280345D02*
X19223686D01*
X19244846D01*
Y2364984D01*
X19266005D01*
X19096727Y2280345D02*
X19139047D01*
X19160207Y2301504D01*
Y2343824D01*
X19139047Y2364984D01*
X19096727D01*
X19075568Y2343824D01*
Y2322664D01*
X19160207D01*
X19033247Y2280345D02*
Y2364984D01*
X19012088D01*
X18990929Y2343824D01*
Y2280345D01*
Y2343824D01*
X18969768Y2364984D01*
X18948608Y2343824D01*
Y2280345D01*
X18694690Y2407304D02*
Y2280345D01*
X18758170D01*
X18779330Y2301504D01*
Y2343824D01*
X18758170Y2364984D01*
X18694690D01*
X18652371Y2280345D02*
X18610051D01*
X18631210D01*
Y2407304D01*
X18652371D01*
X18525412Y2364984D02*
X18483092D01*
X18461932Y2343824D01*
Y2280345D01*
X18525412D01*
X18546571Y2301504D01*
X18525412Y2322664D01*
X18461932D01*
X18334973Y2364984D02*
X18398453D01*
X18419614Y2343824D01*
Y2301504D01*
X18398453Y2280345D01*
X18334973D01*
X18292654Y2364984D02*
X18208015D01*
X18292654Y2280345D01*
X18208015D01*
X18102216D02*
X18144534D01*
X18165695Y2301504D01*
Y2343824D01*
X18144534Y2364984D01*
X18102216D01*
X18081056Y2343824D01*
Y2322664D01*
X18165695D01*
X17996417Y2238025D02*
X17975256D01*
X17954097Y2259185D01*
Y2364984D01*
X18017577D01*
X18038736Y2343824D01*
Y2301504D01*
X18017577Y2280345D01*
X17954097D01*
X17890617D02*
X17848299D01*
X17827138Y2301504D01*
Y2343824D01*
X17848299Y2364984D01*
X17890617D01*
X17911777Y2343824D01*
Y2301504D01*
X17890617Y2280345D01*
X17636700D02*
X17594380D01*
X17573219Y2301504D01*
Y2343824D01*
X17594380Y2364984D01*
X17636700D01*
X17657860Y2343824D01*
Y2301504D01*
X17636700Y2280345D01*
X17530901D02*
Y2364984D01*
X17467422D01*
X17446262Y2343824D01*
Y2280345D01*
X17255824Y2386144D02*
Y2364984D01*
X17276984D01*
X17234663D01*
X17255824D01*
Y2301504D01*
X17234663Y2280345D01*
X17150024Y2364984D02*
X17107706D01*
X17086545Y2343824D01*
Y2280345D01*
X17150024D01*
X17171184Y2301504D01*
X17150024Y2322664D01*
X17086545D01*
X17044225Y2280345D02*
Y2407304D01*
Y2322664D02*
X16980746Y2364984D01*
X17044225Y2322664D02*
X16980746Y2280345D01*
X16917265D02*
X16874947D01*
X16896107D01*
Y2364984D01*
X16917265D01*
X16684508Y2238025D02*
X16663348D01*
X16642189Y2259185D01*
Y2364984D01*
X16494070Y2280345D02*
X16536391D01*
X16557550Y2301504D01*
Y2343824D01*
X16536391Y2364984D01*
X16494070D01*
X16472910Y2343824D01*
Y2322664D01*
X16557550D01*
X16430591Y2280345D02*
X16367111D01*
X16345950Y2301504D01*
X16367111Y2322664D01*
X16409431D01*
X16430591Y2343824D01*
X16409431Y2364984D01*
X16345950D01*
X16282472Y2386144D02*
Y2364984D01*
X16303632D01*
X16261311D01*
X16282472D01*
Y2301504D01*
X16261311Y2280345D01*
X16070874D02*
Y2364984D01*
X16007394D01*
X15986234Y2343824D01*
Y2280345D01*
X15922755D02*
X15880437D01*
X15859276Y2301504D01*
Y2343824D01*
X15880437Y2364984D01*
X15922755D01*
X15943915Y2343824D01*
Y2301504D01*
X15922755Y2280345D01*
X15816956Y2322664D02*
Y2428464D01*
Y2301504D02*
Y2280345D01*
X15647678D02*
Y2407304D01*
X15605357Y2364984D01*
X15563039Y2407304D01*
Y2280345D01*
X15499559D02*
X15457239D01*
X15436079Y2301504D01*
Y2343824D01*
X15457239Y2364984D01*
X15499559D01*
X15520718Y2343824D01*
Y2301504D01*
X15499559Y2280345D01*
X15393761Y2364984D02*
X15309122D01*
X15393761Y2280345D01*
X15309122D01*
X15203322D02*
X15245641D01*
X15266801Y2301504D01*
Y2343824D01*
X15245641Y2364984D01*
X15203322D01*
X15182162Y2343824D01*
Y2322664D01*
X15266801D01*
X15012883Y2280345D02*
Y2364984D01*
X14991724D01*
X14970564Y2343824D01*
Y2280345D01*
Y2343824D01*
X14949403Y2364984D01*
X14928244Y2343824D01*
Y2280345D01*
X14885925D02*
X14843605D01*
X14864764D01*
Y2364984D01*
X14885925D01*
X14758966D02*
X14716646D01*
X14695486Y2343824D01*
Y2280345D01*
X14758966D01*
X14780125Y2301504D01*
X14758966Y2322664D01*
X14695486D01*
X14653168Y2280345D02*
X14610847D01*
X14632007D01*
Y2407304D01*
X14653168D01*
X14399249Y2386144D02*
Y2364984D01*
X14420409D01*
X14378088D01*
X14399249D01*
Y2301504D01*
X14378088Y2280345D01*
X14314609Y2364984D02*
Y2280345D01*
Y2322664D01*
X14293449Y2343824D01*
X14272290Y2364984D01*
X14251131D01*
X14187651D02*
Y2301504D01*
X14166492Y2280345D01*
X14103011D01*
Y2364984D01*
X13976051Y2407304D02*
Y2280345D01*
X14039532D01*
X14060692Y2301504D01*
Y2343824D01*
X14039532Y2364984D01*
X13976051D01*
X13933733Y2280345D02*
Y2364984D01*
X13870253D01*
X13849094Y2343824D01*
Y2280345D01*
X13743295D02*
X13785614D01*
X13806773Y2301504D01*
Y2343824D01*
X13785614Y2364984D01*
X13743295D01*
X13722134Y2343824D01*
Y2322664D01*
X13806773D01*
X13468217Y2407304D02*
Y2280345D01*
X13531697D01*
X13552856Y2301504D01*
Y2343824D01*
X13531697Y2364984D01*
X13468217D01*
X13425897D02*
X13341258D01*
X13425897Y2280345D01*
X13341258D01*
X13298940D02*
X13256619D01*
X13277779D01*
Y2364984D01*
X13298940D01*
X13129660Y2280345D02*
X13171980D01*
X13193140Y2301504D01*
Y2343824D01*
X13171980Y2364984D01*
X13129660D01*
X13108501Y2343824D01*
Y2322664D01*
X13193140D01*
X12981541Y2364984D02*
X13045021D01*
X13066180Y2343824D01*
Y2301504D01*
X13045021Y2280345D01*
X12981541D01*
X12939223D02*
X12896902D01*
X12918062D01*
Y2364984D01*
X12939223D01*
X12833423Y2280345D02*
Y2364984D01*
X12769943D01*
X12748783Y2343824D01*
Y2280345D01*
X12706464D02*
X12642984D01*
X12621824Y2301504D01*
X12642984Y2322664D01*
X12685304D01*
X12706464Y2343824D01*
X12685304Y2364984D01*
X12621824D01*
X12558345Y2386144D02*
Y2364984D01*
X12579505D01*
X12537185D01*
X12558345D01*
Y2301504D01*
X12537185Y2280345D01*
X12473706Y2364984D02*
Y2301504D01*
X12452546Y2280345D01*
X12431386Y2301504D01*
X12410226Y2280345D01*
X12389066Y2301504D01*
Y2364984D01*
X12325587Y2280345D02*
X12283268D01*
X12262108Y2301504D01*
Y2343824D01*
X12283268Y2364984D01*
X12325587D01*
X12346747Y2343824D01*
Y2301504D01*
X12325587Y2280345D01*
X12219788D02*
Y2301504D01*
X12198628D01*
Y2280345D01*
X12219788D01*
X11987030Y2407304D02*
X11944710D01*
X11965870D01*
Y2280345D01*
X11987030D01*
X11944710D01*
X11754272Y2364984D02*
Y2301504D01*
X11733112Y2280345D01*
X11711952Y2301504D01*
X11690793Y2280345D01*
X11669633Y2301504D01*
Y2364984D01*
X11479195Y2280345D02*
X11436875D01*
X11415715Y2301504D01*
Y2343824D01*
X11436875Y2364984D01*
X11479195D01*
X11500354Y2343824D01*
Y2301504D01*
X11479195Y2280345D01*
X11331076Y2238025D02*
X11309916D01*
X11288756Y2259185D01*
Y2364984D01*
X11352236D01*
X11373396Y2343824D01*
Y2301504D01*
X11352236Y2280345D01*
X11288756D01*
X11225277D02*
X11182957D01*
X11161797Y2301504D01*
Y2343824D01*
X11182957Y2364984D01*
X11225277D01*
X11246437Y2343824D01*
Y2301504D01*
X11225277Y2280345D01*
X11119478D02*
X11077158D01*
X11098318D01*
Y2407304D01*
X11119478D01*
X10950199Y2280345D02*
X10992519D01*
X11013679Y2301504D01*
Y2343824D01*
X10992519Y2364984D01*
X10950199D01*
X10929039Y2343824D01*
Y2322664D01*
X11013679D01*
X10759761Y2238025D02*
X10738601D01*
X10717441Y2259185D01*
Y2364984D01*
X10611642D02*
X10569323D01*
X10548163Y2343824D01*
Y2280345D01*
X10611642D01*
X10632802Y2301504D01*
X10611642Y2322664D01*
X10548163D01*
X10294245Y2364984D02*
X10357725D01*
X10378884Y2343824D01*
Y2301504D01*
X10357725Y2280345D01*
X10294245D01*
X10251926D02*
X10209606D01*
X10230766D01*
Y2364984D01*
X10251926D01*
X10082647Y2280345D02*
X10124967D01*
X10146127Y2301504D01*
Y2343824D01*
X10124967Y2364984D01*
X10082647D01*
X10061487Y2343824D01*
Y2322664D01*
X10146127D01*
X10019168Y2407304D02*
Y2280345D01*
X9955688D01*
X9934528Y2301504D01*
Y2322664D01*
Y2343824D01*
X9955688Y2364984D01*
X10019168D01*
X9892209Y2280345D02*
X9849889D01*
X9871049D01*
Y2364984D01*
X9892209D01*
X9722930Y2280345D02*
X9765250D01*
X9786410Y2301504D01*
Y2343824D01*
X9765250Y2364984D01*
X9722930D01*
X9701770Y2343824D01*
Y2322664D01*
X9786410D01*
X9532492Y2238025D02*
Y2364984D01*
X9469013D01*
X9447853Y2343824D01*
Y2301504D01*
X9469013Y2280345D01*
X9532492D01*
X9405533Y2364984D02*
Y2280345D01*
Y2322664D01*
X9384373Y2343824D01*
X9363213Y2364984D01*
X9342054D01*
X9257415Y2280345D02*
X9215095D01*
X9193935Y2301504D01*
Y2343824D01*
X9215095Y2364984D01*
X9257415D01*
X9278574Y2343824D01*
Y2301504D01*
X9257415Y2280345D01*
X9151615D02*
X9088136D01*
X9066976Y2301504D01*
X9088136Y2322664D01*
X9130456D01*
X9151615Y2343824D01*
X9130456Y2364984D01*
X9066976D01*
X9024657D02*
X8940017D01*
X9024657Y2280345D01*
X8940017D01*
X8834218D02*
X8876538D01*
X8897698Y2301504D01*
Y2343824D01*
X8876538Y2364984D01*
X8834218D01*
X8813058Y2343824D01*
Y2322664D01*
X8897698D01*
X8749579Y2259185D02*
X8728419Y2280345D01*
Y2301504D01*
X8749579D01*
Y2280345D01*
X8728419D01*
X8749579Y2259185D01*
X8770739Y2238025D01*
X8516821Y2280345D02*
X8453342D01*
X8432182Y2301504D01*
X8453342Y2322664D01*
X8495661D01*
X8516821Y2343824D01*
X8495661Y2364984D01*
X8432182D01*
X8389862Y2280345D02*
Y2407304D01*
Y2322664D02*
X8326383Y2364984D01*
X8389862Y2322664D02*
X8326383Y2280345D01*
X8241744D02*
X8199424D01*
X8178264Y2301504D01*
Y2343824D01*
X8199424Y2364984D01*
X8241744D01*
X8262903Y2343824D01*
Y2301504D01*
X8241744Y2280345D01*
X8135945D02*
Y2364984D01*
X8072465D01*
X8051305Y2343824D01*
Y2280345D01*
X7924346Y2364984D02*
X7987826D01*
X8008986Y2343824D01*
Y2301504D01*
X7987826Y2280345D01*
X7924346D01*
X7882027Y2364984D02*
X7797388D01*
X7882027Y2280345D01*
X7797388D01*
X7755068D02*
Y2364984D01*
X7733908D01*
X7712748Y2343824D01*
Y2280345D01*
Y2343824D01*
X7691589Y2364984D01*
X7670429Y2343824D01*
Y2280345D01*
X7628109Y2364984D02*
Y2301504D01*
X7606949Y2280345D01*
X7543470D01*
Y2259185D01*
X7564630Y2238025D01*
X7585790D01*
X7543470Y2280345D02*
Y2364984D01*
X7353032Y2386144D02*
Y2364984D01*
X7374192D01*
X7331872D01*
X7353032D01*
Y2301504D01*
X7331872Y2280345D01*
X7204913D02*
X7247233D01*
X7268392Y2301504D01*
Y2343824D01*
X7247233Y2364984D01*
X7204913D01*
X7183753Y2343824D01*
Y2322664D01*
X7268392D01*
X7141434Y2280345D02*
Y2364984D01*
X7077954D01*
X7056794Y2343824D01*
Y2280345D01*
X6866356Y2386144D02*
Y2364984D01*
X6887516D01*
X6845196D01*
X6866356D01*
Y2301504D01*
X6845196Y2280345D01*
X6718237D02*
X6760557D01*
X6781717Y2301504D01*
Y2343824D01*
X6760557Y2364984D01*
X6718237D01*
X6697077Y2343824D01*
Y2322664D01*
X6781717D01*
X6654758Y2280345D02*
Y2364984D01*
X6633598D01*
X6612438Y2343824D01*
Y2280345D01*
Y2343824D01*
X6591278Y2364984D01*
X6570118Y2343824D01*
Y2280345D01*
X6506639Y2364984D02*
X6464320D01*
X6443160Y2343824D01*
Y2280345D01*
X6506639D01*
X6527799Y2301504D01*
X6506639Y2322664D01*
X6443160D01*
X6379680Y2386144D02*
Y2364984D01*
X6400840D01*
X6358520D01*
X6379680D01*
Y2301504D01*
X6358520Y2280345D01*
X6273881Y2259185D02*
X6252721Y2280345D01*
Y2301504D01*
X6273881D01*
Y2280345D01*
X6252721D01*
X6273881Y2259185D01*
X6295041Y2238025D01*
X6041123Y2407304D02*
Y2280345D01*
X5977644D01*
X5956484Y2301504D01*
Y2322664D01*
Y2343824D01*
X5977644Y2364984D01*
X6041123D01*
X5893005Y2280345D02*
X5850685D01*
X5829525Y2301504D01*
Y2343824D01*
X5850685Y2364984D01*
X5893005D01*
X5914164Y2343824D01*
Y2301504D01*
X5893005Y2280345D01*
X5660247Y2238025D02*
X5639087D01*
X5617927Y2259185D01*
Y2364984D01*
X5512128D02*
X5469808D01*
X5448648Y2343824D01*
Y2280345D01*
X5512128D01*
X5533288Y2301504D01*
X5512128Y2322664D01*
X5448648D01*
X5279370Y2364984D02*
X5194731D01*
X5279370Y2280345D01*
X5194731D01*
X5131252Y2364984D02*
X5088932D01*
X5067772Y2343824D01*
Y2280345D01*
X5131252D01*
X5152411Y2301504D01*
X5131252Y2322664D01*
X5067772D01*
X4898494Y2280345D02*
X4835014D01*
X4813854Y2301504D01*
X4835014Y2322664D01*
X4877334D01*
X4898494Y2343824D01*
X4877334Y2364984D01*
X4813854D01*
X4771535Y2280345D02*
X4729215D01*
X4750375D01*
Y2364984D01*
X4771535D01*
X4602256Y2280345D02*
X4644576D01*
X4665736Y2301504D01*
Y2343824D01*
X4644576Y2364984D01*
X4602256D01*
X4581096Y2343824D01*
Y2322664D01*
X4665736D01*
X4538777Y2407304D02*
Y2280345D01*
X4475297D01*
X4454137Y2301504D01*
Y2322664D01*
Y2343824D01*
X4475297Y2364984D01*
X4538777D01*
X4411818Y2280345D02*
X4369498D01*
X4390658D01*
Y2364984D01*
X4411818D01*
X4242539Y2280345D02*
X4284859D01*
X4306019Y2301504D01*
Y2343824D01*
X4284859Y2364984D01*
X4242539D01*
X4221379Y2343824D01*
Y2322664D01*
X4306019D01*
X4052101Y2280345D02*
Y2364984D01*
X3988622D01*
X3967462Y2343824D01*
Y2280345D01*
X3925142D02*
X3882823D01*
X3903983D01*
Y2364984D01*
X3925142D01*
X3755864Y2280345D02*
X3798183D01*
X3819343Y2301504D01*
Y2343824D01*
X3798183Y2364984D01*
X3755864D01*
X3734704Y2343824D01*
Y2322664D01*
X3819343D01*
X3565425Y2364984D02*
Y2280345D01*
Y2322664D01*
X3544266Y2343824D01*
X3523106Y2364984D01*
X3501946D01*
X3374987Y2280345D02*
X3417307D01*
X3438467Y2301504D01*
Y2343824D01*
X3417307Y2364984D01*
X3374987D01*
X3353827Y2343824D01*
Y2322664D01*
X3438467D01*
X3226868Y2364984D02*
X3290348D01*
X3311508Y2343824D01*
Y2301504D01*
X3290348Y2280345D01*
X3226868D01*
X3184549Y2364984D02*
X3099909D01*
X3184549Y2280345D01*
X3099909D01*
X2994111D02*
X3036430D01*
X3057590Y2301504D01*
Y2343824D01*
X3036430Y2364984D01*
X2994111D01*
X2972951Y2343824D01*
Y2322664D01*
X3057590D01*
X2930631Y2280345D02*
Y2301504D01*
X2909471D01*
Y2280345D01*
X2930631D01*
X21022270Y2088194D02*
X20937630D01*
X20895311Y2151673D02*
Y2024714D01*
X20852991Y2067034D01*
X20810670Y2024714D01*
Y2151673D01*
X20768352Y2024714D02*
X20726031D01*
X20747192D01*
Y2109354D01*
X20768352D01*
X20577913Y2151673D02*
Y2024714D01*
X20641393D01*
X20662553Y2045874D01*
Y2088194D01*
X20641393Y2109354D01*
X20577913D01*
X20535594D02*
X20450955D01*
X20535594Y2024714D01*
X20450955D01*
X20408635D02*
X20366315D01*
X20387476D01*
Y2109354D01*
X20408635D01*
X20302837Y2024714D02*
X20239357D01*
X20218198Y2045874D01*
X20239357Y2067034D01*
X20281676D01*
X20302837Y2088194D01*
X20281676Y2109354D01*
X20218198D01*
X20175877D02*
X20091238D01*
X20175877Y2024714D01*
X20091238D01*
X19921959Y2151673D02*
Y2024714D01*
Y2088194D01*
X19837320D01*
Y2151673D01*
Y2024714D01*
X19773840Y2109354D02*
X19731522D01*
X19710361Y2088194D01*
Y2024714D01*
X19773840D01*
X19795001Y2045874D01*
X19773840Y2067034D01*
X19710361D01*
X19668042Y2024714D02*
X19625722D01*
X19646883D01*
Y2151673D01*
X19668042D01*
X19562244Y2024714D02*
X19519923D01*
X19541083D01*
Y2109354D01*
X19562244D01*
X19456442Y2024714D02*
Y2109354D01*
X19392964D01*
X19371803Y2088194D01*
Y2024714D01*
X19329485D02*
Y2151673D01*
Y2067034D02*
X19266005Y2109354D01*
X19329485Y2067034D02*
X19266005Y2024714D01*
X19181366Y2109354D02*
X19139046D01*
X19117886Y2088194D01*
Y2024714D01*
X19181366D01*
X19202525Y2045874D01*
X19181366Y2067034D01*
X19117886D01*
X19075568Y2130513D02*
X19054407Y2151673D01*
X19012086D01*
X18990927Y2130513D01*
Y2109354D01*
X19033247Y2067034D01*
Y2045874D02*
Y2024714D01*
X18737010Y2151673D02*
X18779329D01*
X18758170D01*
Y2045874D01*
X18779329Y2024714D01*
X18800488D01*
X18821649Y2045874D01*
X18673531Y2109354D02*
X18631210D01*
X18610051Y2088194D01*
Y2024714D01*
X18673531D01*
X18694690Y2045874D01*
X18673531Y2067034D01*
X18610051D01*
X18567731Y2024714D02*
Y2151673D01*
Y2067034D02*
X18504253Y2109354D01*
X18567731Y2067034D02*
X18504253Y2024714D01*
X18292654Y2130513D02*
Y2109354D01*
X18313814D01*
X18271494D01*
X18292654D01*
Y2045874D01*
X18271494Y2024714D01*
X18208015Y2109354D02*
Y2045874D01*
X18186855Y2024714D01*
X18123375D01*
Y2003555D01*
X18144534Y1982395D01*
X18165695D01*
X18123375Y2024714D02*
Y2109354D01*
X18081056Y2024714D02*
X18038736D01*
X18059895D01*
Y2151673D01*
X18081056D01*
X17975256Y2024714D02*
Y2151673D01*
Y2067034D02*
X17911777Y2109354D01*
X17975256Y2067034D02*
X17911777Y2024714D01*
X17827138D02*
X17784818D01*
X17763658Y2045874D01*
Y2088194D01*
X17784818Y2109354D01*
X17827138D01*
X17848299Y2088194D01*
Y2045874D01*
X17827138Y2024714D01*
X17594380D02*
X17530901D01*
X17509741Y2045874D01*
X17530901Y2067034D01*
X17573219D01*
X17594380Y2088194D01*
X17573219Y2109354D01*
X17509741D01*
X17467421Y2024714D02*
X17425102D01*
X17446262D01*
Y2109354D01*
X17467421D01*
X17298143Y2024714D02*
X17340462D01*
X17361623Y2045874D01*
Y2088194D01*
X17340462Y2109354D01*
X17298143D01*
X17276984Y2088194D01*
Y2067034D01*
X17361623D01*
X17086545Y2024714D02*
X17044225D01*
X17023065Y2045874D01*
Y2088194D01*
X17044225Y2109354D01*
X17086545D01*
X17107704Y2088194D01*
Y2045874D01*
X17086545Y2024714D01*
X16832626Y2130513D02*
Y2109354D01*
X16853787D01*
X16811467D01*
X16832626D01*
Y2045874D01*
X16811467Y2024714D01*
X16684508D02*
X16726828D01*
X16747987Y2045874D01*
Y2088194D01*
X16726828Y2109354D01*
X16684508D01*
X16663348Y2088194D01*
Y2067034D01*
X16747987D01*
X16621030Y1982395D02*
X16599869D01*
X16578709Y2003555D01*
Y2109354D01*
X16367111Y2024714D02*
Y2109354D01*
X16345950D01*
X16324791Y2088194D01*
Y2024714D01*
Y2088194D01*
X16303632Y2109354D01*
X16282472Y2088194D01*
Y2024714D01*
X16176672D02*
X16218993D01*
X16240152Y2045874D01*
Y2088194D01*
X16218993Y2109354D01*
X16176672D01*
X16155513Y2088194D01*
Y2067034D01*
X16240152D01*
X16113193Y2024714D02*
Y2109354D01*
X16049715D01*
X16028554Y2088194D01*
Y2024714D01*
X15901595Y2151673D02*
Y2024714D01*
X15965076D01*
X15986234Y2045874D01*
Y2088194D01*
X15965076Y2109354D01*
X15901595D01*
X15859276D02*
X15774635D01*
X15859276Y2024714D01*
X15774635D01*
X15732317D02*
X15689996D01*
X15711157D01*
Y2109354D01*
X15732317D01*
X15563039Y2024714D02*
X15605357D01*
X15626518Y2045874D01*
Y2088194D01*
X15605357Y2109354D01*
X15563039D01*
X15541878Y2088194D01*
Y2067034D01*
X15626518D01*
X15372600Y2109354D02*
X15287961D01*
X15372600Y2024714D01*
X15287961D01*
X15224481Y2109354D02*
X15182162D01*
X15161002Y2088194D01*
Y2024714D01*
X15224481D01*
X15245641Y2045874D01*
X15224481Y2067034D01*
X15161002D01*
X15034042Y2109354D02*
X15097523D01*
X15118681Y2088194D01*
Y2045874D01*
X15097523Y2024714D01*
X15034042D01*
X14991724Y2109354D02*
X14907085D01*
X14991724Y2024714D01*
X14907085D01*
X14864764Y2109354D02*
Y2045874D01*
X14843605Y2024714D01*
X14780125D01*
Y2003555D01*
X14801285Y1982395D01*
X14822446D01*
X14780125Y2024714D02*
Y2109354D01*
X14737807Y2024714D02*
Y2109354D01*
X14674326D01*
X14653166Y2088194D01*
Y2024714D01*
X14589687Y2109354D02*
X14547366D01*
X14526207Y2088194D01*
Y2024714D01*
X14589687D01*
X14610847Y2045874D01*
X14589687Y2067034D01*
X14526207D01*
X14356929Y2109354D02*
Y2024714D01*
Y2067034D01*
X14335770Y2088194D01*
X14314609Y2109354D01*
X14293449D01*
X14208810Y2024714D02*
X14166492D01*
X14145331Y2045874D01*
Y2088194D01*
X14166492Y2109354D01*
X14208810D01*
X14229970Y2088194D01*
Y2045874D01*
X14208810Y2024714D01*
X14103011Y2109354D02*
X14018372D01*
X14103011Y2024714D01*
X14018372D01*
X13976053D02*
Y2109354D01*
X13954893D01*
X13933733Y2088194D01*
Y2024714D01*
Y2088194D01*
X13912573Y2109354D01*
X13891412Y2088194D01*
Y2024714D01*
X13827934D02*
X13785614D01*
X13764455Y2045874D01*
Y2088194D01*
X13785614Y2109354D01*
X13827934D01*
X13849094Y2088194D01*
Y2045874D01*
X13827934Y2024714D01*
X13722134Y2109354D02*
Y2045874D01*
X13700975Y2024714D01*
X13679816Y2045874D01*
X13658655Y2024714D01*
X13637495Y2045874D01*
Y2109354D01*
X13574016D02*
X13531697D01*
X13510538Y2088194D01*
Y2024714D01*
X13574016D01*
X13595177Y2045874D01*
X13574016Y2067034D01*
X13510538D01*
X13447057Y2003555D02*
X13425897Y2024714D01*
Y2045874D01*
X13447057D01*
Y2024714D01*
X13425897D01*
X13447057Y2003555D01*
X13468217Y1982395D01*
X13193140Y2024714D02*
X13150819D01*
X13129660Y2045874D01*
Y2088194D01*
X13150819Y2109354D01*
X13193140D01*
X13214299Y2088194D01*
Y2045874D01*
X13193140Y2024714D01*
X13002701Y2151673D02*
Y2024714D01*
X13066180D01*
X13087341Y2045874D01*
Y2088194D01*
X13066180Y2109354D01*
X13002701D01*
X12833423D02*
Y2024714D01*
Y2067034D01*
X12812263Y2088194D01*
X12791103Y2109354D01*
X12769943D01*
X12685304D02*
X12642985D01*
X12621825Y2088194D01*
Y2024714D01*
X12685304D01*
X12706464Y2045874D01*
X12685304Y2067034D01*
X12621825D01*
X12579505Y2109354D02*
X12494866D01*
X12579505Y2024714D01*
X12494866D01*
X12452546Y2109354D02*
Y2045874D01*
X12431387Y2024714D01*
X12367907D01*
Y2109354D01*
X12198629Y2024714D02*
Y2151673D01*
Y2067034D02*
X12135149Y2109354D01*
X12198629Y2067034D02*
X12135149Y2024714D01*
X12050510D02*
X12008190D01*
X11987030Y2045874D01*
Y2088194D01*
X12008190Y2109354D01*
X12050510D01*
X12071670Y2088194D01*
Y2045874D01*
X12050510Y2024714D01*
X11944711D02*
Y2109354D01*
X11881232D01*
X11860072Y2088194D01*
Y2024714D01*
X11796592D02*
Y2130513D01*
Y2088194D01*
X11817752D01*
X11775432D01*
X11796592D01*
Y2130513D01*
X11775432Y2151673D01*
X11711953Y2024714D02*
X11669633D01*
X11690793D01*
Y2151673D01*
X11711953D01*
X11606154Y2024714D02*
X11563834D01*
X11584994D01*
Y2109354D01*
X11606154D01*
X11500355Y2024714D02*
Y2151673D01*
Y2067034D02*
X11436875Y2109354D01*
X11500355Y2067034D02*
X11436875Y2024714D01*
X11352236Y2130513D02*
Y2109354D01*
X11373396D01*
X11331076D01*
X11352236D01*
Y2045874D01*
X11331076Y2024714D01*
X11267597Y2109354D02*
Y2045874D01*
X11246437Y2024714D01*
X11182957D01*
Y2003555D01*
X11204117Y1982395D01*
X11225277D01*
X11182957Y2024714D02*
Y2109354D01*
X11013679Y2024714D02*
X10950200D01*
X10929040Y2045874D01*
X10950200Y2067034D01*
X10992519D01*
X11013679Y2088194D01*
X10992519Y2109354D01*
X10929040D01*
X10886720Y2024714D02*
X10844400D01*
X10865560D01*
Y2109354D01*
X10886720D01*
X10717442Y2024714D02*
X10759761D01*
X10780921Y2045874D01*
Y2088194D01*
X10759761Y2109354D01*
X10717442D01*
X10696282Y2088194D01*
Y2067034D01*
X10780921D01*
X10527003Y2024714D02*
X10463524D01*
X10442364Y2045874D01*
X10463524Y2067034D01*
X10505844D01*
X10527003Y2088194D01*
X10505844Y2109354D01*
X10442364D01*
X10378885D02*
X10336565D01*
X10315405Y2088194D01*
Y2024714D01*
X10378885D01*
X10400044Y2045874D01*
X10378885Y2067034D01*
X10315405D01*
X10273086Y2024714D02*
Y2109354D01*
X10251926D01*
X10230766Y2088194D01*
Y2024714D01*
Y2088194D01*
X10209606Y2109354D01*
X10188446Y2088194D01*
Y2024714D01*
X10082647D02*
X10124967D01*
X10146127Y2045874D01*
Y2088194D01*
X10124967Y2109354D01*
X10082647D01*
X10061487Y2088194D01*
Y2067034D01*
X10146127D01*
X9892209Y2109354D02*
Y2024714D01*
Y2067034D01*
X9871049Y2088194D01*
X9849889Y2109354D01*
X9828730D01*
X9744090Y2024714D02*
X9701771D01*
X9680611Y2045874D01*
Y2088194D01*
X9701771Y2109354D01*
X9744090D01*
X9765250Y2088194D01*
Y2045874D01*
X9744090Y2024714D01*
X9553652Y2151673D02*
Y2024714D01*
X9617132D01*
X9638291Y2045874D01*
Y2088194D01*
X9617132Y2109354D01*
X9553652D01*
X9511333D02*
X9426693D01*
X9511333Y2024714D01*
X9426693D01*
X9363214Y2109354D02*
X9320894D01*
X9299734Y2088194D01*
Y2024714D01*
X9363214D01*
X9384374Y2045874D01*
X9363214Y2067034D01*
X9299734D01*
X9257415Y2024714D02*
Y2045874D01*
X9236255D01*
Y2024714D01*
X9257415D01*
X9024657Y2151673D02*
X8940017D01*
X8982337D01*
Y2024714D01*
X8876538D02*
X8834219D01*
X8813059Y2045874D01*
Y2088194D01*
X8834219Y2109354D01*
X8876538D01*
X8897698Y2088194D01*
Y2045874D01*
X8876538Y2024714D01*
X8643780Y1982395D02*
X8622621D01*
X8601461Y2003555D01*
Y2109354D01*
X8453342Y2024714D02*
X8495662D01*
X8516821Y2045874D01*
Y2088194D01*
X8495662Y2109354D01*
X8453342D01*
X8432182Y2088194D01*
Y2067034D01*
X8516821D01*
X8389863Y2024714D02*
X8326383D01*
X8305223Y2045874D01*
X8326383Y2067034D01*
X8368703D01*
X8389863Y2088194D01*
X8368703Y2109354D01*
X8305223D01*
X8241744Y2130513D02*
Y2109354D01*
X8262904D01*
X8220584D01*
X8241744D01*
Y2045874D01*
X8220584Y2024714D01*
X8030146Y2151673D02*
Y2024714D01*
Y2088194D01*
X7945506D01*
Y2151673D01*
Y2024714D01*
X7882027Y2109354D02*
X7839707D01*
X7818547Y2088194D01*
Y2024714D01*
X7882027D01*
X7903187Y2045874D01*
X7882027Y2067034D01*
X7818547D01*
X7776228Y2024714D02*
X7733908D01*
X7755068D01*
Y2151673D01*
X7776228D01*
X7670429Y2024714D02*
X7628109D01*
X7649269D01*
Y2109354D01*
X7670429D01*
X7564630Y2024714D02*
Y2109354D01*
X7501150D01*
X7479990Y2088194D01*
Y2024714D01*
X7437671D02*
Y2151673D01*
Y2067034D02*
X7374192Y2109354D01*
X7437671Y2067034D02*
X7374192Y2024714D01*
X7289552Y2109354D02*
X7247233D01*
X7226073Y2088194D01*
Y2024714D01*
X7289552D01*
X7310712Y2045874D01*
X7289552Y2067034D01*
X7226073D01*
X7056794Y2109354D02*
X6972155D01*
X7056794Y2024714D01*
X6972155D01*
X6929836D02*
X6887516D01*
X6908676D01*
Y2151673D01*
X6929836D01*
X6802877Y2024714D02*
X6760557D01*
X6739397Y2045874D01*
Y2088194D01*
X6760557Y2109354D01*
X6802877D01*
X6824036Y2088194D01*
Y2045874D01*
X6802877Y2024714D01*
X6485479Y2109354D02*
X6548959D01*
X6570119Y2088194D01*
Y2045874D01*
X6548959Y2024714D01*
X6485479D01*
X6443160Y2151673D02*
Y2024714D01*
Y2088194D01*
X6422000Y2109354D01*
X6379680D01*
X6358520Y2088194D01*
Y2024714D01*
X6295041D02*
X6252722D01*
X6231562Y2045874D01*
Y2088194D01*
X6252722Y2109354D01*
X6295041D01*
X6316201Y2088194D01*
Y2045874D01*
X6295041Y2024714D01*
X6104603Y2151673D02*
Y2024714D01*
X6168082D01*
X6189242Y2045874D01*
Y2088194D01*
X6168082Y2109354D01*
X6104603D01*
X6062283D02*
X5977644D01*
X6062283Y2024714D01*
X5977644D01*
X5914165Y2109354D02*
X5871845D01*
X5850685Y2088194D01*
Y2024714D01*
X5914165D01*
X5935324Y2045874D01*
X5914165Y2067034D01*
X5850685D01*
X5723726Y2109354D02*
X5787206D01*
X5808366Y2088194D01*
Y2045874D01*
X5787206Y2024714D01*
X5723726D01*
X5617927D02*
X5660247D01*
X5681407Y2045874D01*
Y2088194D01*
X5660247Y2109354D01*
X5617927D01*
X5596767Y2088194D01*
Y2067034D01*
X5681407D01*
X5533288Y2003555D02*
X5512128Y2024714D01*
Y2045874D01*
X5533288D01*
Y2024714D01*
X5512128D01*
X5533288Y2003555D01*
X5554448Y1982395D01*
X5279370Y2130513D02*
Y2109354D01*
X5300530D01*
X5258210D01*
X5279370D01*
Y2045874D01*
X5258210Y2024714D01*
X5194731Y2109354D02*
Y2024714D01*
Y2067034D01*
X5173571Y2088194D01*
X5152411Y2109354D01*
X5131252D01*
X5067772D02*
X4983133D01*
X5067772Y2024714D01*
X4983133D01*
X4877334D02*
X4919654D01*
X4940813Y2045874D01*
Y2088194D01*
X4919654Y2109354D01*
X4877334D01*
X4856174Y2088194D01*
Y2067034D01*
X4940813D01*
X4813854Y2151673D02*
Y2024714D01*
X4750375D01*
X4729215Y2045874D01*
Y2067034D01*
Y2088194D01*
X4750375Y2109354D01*
X4813854D01*
X4665736D02*
X4623416D01*
X4602256Y2088194D01*
Y2024714D01*
X4665736D01*
X4686896Y2045874D01*
X4665736Y2067034D01*
X4602256D01*
X4432978Y2151673D02*
Y2024714D01*
X4369498D01*
X4348339Y2045874D01*
Y2067034D01*
Y2088194D01*
X4369498Y2109354D01*
X4432978D01*
X4306019D02*
Y2045874D01*
X4284859Y2024714D01*
X4221380D01*
Y2003555D01*
X4242540Y1982395D01*
X4263699D01*
X4221380Y2024714D02*
Y2109354D01*
X4009782Y1982395D02*
X3988622D01*
X3967462Y2003555D01*
Y2109354D01*
X4030942D01*
X4052101Y2088194D01*
Y2045874D01*
X4030942Y2024714D01*
X3967462D01*
X3903983D02*
X3861663D01*
X3840503Y2045874D01*
Y2088194D01*
X3861663Y2109354D01*
X3903983D01*
X3925143Y2088194D01*
Y2045874D01*
X3903983Y2024714D01*
X3671225Y2109354D02*
Y2045874D01*
X3650065Y2024714D01*
X3628905Y2045874D01*
X3607745Y2024714D01*
X3586585Y2045874D01*
Y2109354D01*
X3544266D02*
Y2045874D01*
X3523106Y2024714D01*
X3459627D01*
Y2003555D01*
X3480787Y1982395D01*
X3501946D01*
X3459627Y2024714D02*
Y2109354D01*
X3353828Y2024714D02*
X3396147D01*
X3417307Y2045874D01*
Y2088194D01*
X3396147Y2109354D01*
X3353828D01*
X3332668Y2088194D01*
Y2067034D01*
X3417307D01*
X3290348Y2024714D02*
X3248029D01*
X3269189D01*
Y2151673D01*
X3290348D01*
X3184549Y2024714D02*
X3142229D01*
X3163389D01*
Y2109354D01*
X3184549D01*
X3078750Y2024714D02*
Y2109354D01*
X3057590D01*
X3036430Y2088194D01*
Y2024714D01*
Y2088194D01*
X3015271Y2109354D01*
X2994111Y2088194D01*
Y2024714D01*
X2951791D02*
X2909471D01*
X2930631D01*
Y2109354D01*
X2951791D01*
X2845992Y2024714D02*
Y2109354D01*
X2782513D01*
X2761353Y2088194D01*
Y2024714D01*
X2697873D02*
X2655554D01*
X2634394Y2045874D01*
Y2088194D01*
X2655554Y2109354D01*
X2697873D01*
X2719033Y2088194D01*
Y2045874D01*
X2697873Y2024714D01*
X2592074Y2109354D02*
Y2045874D01*
X2570915Y2024714D01*
X2549755Y2045874D01*
X2528595Y2024714D01*
X2507435Y2045874D01*
Y2109354D01*
X2443956D02*
X2401636D01*
X2380476Y2088194D01*
Y2024714D01*
X2443956D01*
X2465115Y2045874D01*
X2443956Y2067034D01*
X2380476D01*
X2253517Y2109354D02*
X2316997D01*
X2338157Y2088194D01*
Y2045874D01*
X2316997Y2024714D01*
X2253517D01*
X2211198D02*
Y2045874D01*
X2190038D01*
Y2024714D01*
X2211198D01*
%TF.MD5,10e0dddcf8548794ed889307f6b06380*%
M02*
